<?xml version="1.0" encoding="utf-8"?>
<!-- Generator: Adobe Illustrator 16.0.4, SVG Export Plug-In . SVG Version: 6.00 Build 0)  -->
<!DOCTYPE svg PUBLIC "-//W3C//DTD SVG 1.1//EN" "http://www.w3.org/Graphics/SVG/1.1/DTD/svg11.dtd">
<svg version="1.1" id="Layer_1" xmlns="http://www.w3.org/2000/svg" xmlns:xlink="http://www.w3.org/1999/xlink" x="0px" y="0px"
	 width="675px" height="112px" viewBox="0 0 675 112" enable-background="new 0 0 675 112" xml:space="preserve">
<g>
	<g>
		<g>
			<path fill="#1776BF" d="M36.276,47.063c-2.001,1.089-4.301,1.625-6.898,1.625c-2.27,0-4.397-0.455-6.369-1.376
				c-1.978-0.92-3.699-2.203-5.156-3.855c-1.458-1.651-2.611-3.597-3.446-5.837c-0.842-2.25-1.262-4.724-1.262-7.433
				c0-2.649,0.423-5.106,1.262-7.382c0.835-2.272,2-4.231,3.492-5.884c1.482-1.646,3.243-2.936,5.271-3.856
				c2.031-0.918,4.23-1.375,6.615-1.375c2.374,0,4.473,0.401,6.292,1.215c1.808,0.81,3.332,1.974,4.581,3.489L50.4,8.441
				c-1.249-1.564-2.657-2.888-4.222-3.975c-1.569-1.078-3.209-1.951-4.915-2.597c-1.699-0.65-3.435-1.119-5.187-1.422
				c-1.761-0.292-3.456-0.445-5.073-0.445c-4.491,0-8.635,0.701-12.414,2.114c-3.793,1.405-7.066,3.419-9.821,6.042
				c-2.765,2.623-4.915,5.806-6.456,9.533c-1.539,3.735-2.31,7.901-2.31,12.497c0,4.598,0.771,8.765,2.31,12.496
				c1.541,3.733,3.692,6.916,6.459,9.539c2.757,2.623,6.028,4.632,9.818,6.042c3.781,1.41,7.927,2.113,12.414,2.113
				c3.944,0,7.785-0.816,11.522-2.434c3.73-1.63,6.817-4.139,9.251-7.551l-10.553-7.874C39.928,44.47,38.281,45.983,36.276,47.063z
				 M107.118,1.466H94.458v34.811c0,1.787-0.287,3.437-0.853,4.949c-0.567,1.516-1.367,2.827-2.391,3.937
				c-1.032,1.107-2.247,1.976-3.656,2.595c-1.405,0.622-2.95,0.933-4.628,0.933c-1.674,0-3.229-0.311-4.661-0.933
				c-1.434-0.621-2.663-1.488-3.694-2.595c-1.029-1.11-1.829-2.423-2.392-3.937c-0.565-1.512-0.852-3.166-0.852-4.949V1.466H58.672
				V36.76c0,3.414,0.517,6.55,1.542,9.417c1.029,2.865,2.557,5.357,4.581,7.463c2.035,2.114,4.561,3.763,7.593,4.953
				c3.031,1.193,6.55,1.785,10.544,1.785c3.952,0,7.444-0.592,10.473-1.785c3.027-1.189,5.565-2.838,7.592-4.953
				c2.024-2.105,3.554-4.598,4.583-7.463c1.024-2.867,1.542-6.007,1.542-9.417h-0.002V1.466H107.118z M151.345,38.953h-0.163
				l-13.231-37.49H118.81v57.455h12.653V14.851h0.164l14.525,44.067h9.651l15.101-44.067h0.163v44.067h12.661V1.466h-19.072
				L151.345,38.953z M243.85,1.466h-12.657v34.811c0,1.787-0.283,3.437-0.849,4.949c-0.574,1.516-1.368,2.827-2.399,3.937
				c-1.027,1.107-2.242,1.976-3.647,2.595c-1.408,0.622-2.956,0.933-4.629,0.933c-1.671,0-3.23-0.311-4.661-0.933
				c-1.439-0.621-2.667-1.488-3.692-2.595c-1.033-1.11-1.831-2.423-2.396-3.937c-0.567-1.512-0.854-3.166-0.854-4.949V1.466h-12.655
				V36.76c0,3.414,0.514,6.55,1.539,9.417c1.022,2.865,2.561,5.357,4.583,7.463c2.027,2.114,4.562,3.763,7.596,4.953
				c3.022,1.193,6.541,1.785,10.545,1.785c3.95,0,7.434-0.592,10.468-1.785c3.03-1.189,5.556-2.838,7.587-4.953
				c2.031-2.105,3.56-4.598,4.588-7.463c1.028-2.867,1.538-6.007,1.538-9.417h-0.005V1.466H243.85z M268.688,1.466h-12.66h-0.002
				v57.452h36.108V47.234h-23.446V1.466z M349.269,8.153c-2.759-2.621-6.034-4.634-9.821-6.044C335.665,0.702,331.519,0,327.036,0
				c-4.494,0-8.633,0.701-12.42,2.114c-3.786,1.405-7.057,3.419-9.819,6.042c-2.76,2.623-4.912,5.805-6.453,9.534
				c-1.538,3.733-2.312,7.9-2.312,12.496c0,4.6,0.774,8.767,2.317,12.495c1.536,3.735,3.691,6.917,6.452,9.538
				c2.76,2.628,6.031,4.637,9.819,6.047c3.783,1.406,7.922,2.107,12.416,2.107c4.483,0,8.63-0.701,12.412-2.107
				c3.787-1.41,7.063-3.419,9.821-6.047c2.76-2.625,4.911-5.804,6.452-9.538c1.545-3.728,2.314-7.895,2.314-12.495
				c0-4.598-0.77-8.767-2.314-12.501C354.18,13.96,352.028,10.778,349.269,8.153z M343.63,37.619
				c-0.836,2.24-2.043,4.184-3.614,5.837c-1.566,1.652-3.442,2.936-5.636,3.855c-2.193,0.92-4.64,1.375-7.344,1.375
				c-2.711,0-5.158-0.455-7.349-1.375c-2.19-0.922-4.072-2.204-5.638-3.855c-1.564-1.654-2.769-3.598-3.609-5.837
				c-0.843-2.251-1.26-4.725-1.26-7.433c0-2.651,0.417-5.106,1.26-7.382c0.84-2.27,2.038-4.228,3.609-5.884
				c1.565-1.646,3.448-2.932,5.638-3.854c2.191-0.921,4.639-1.378,7.349-1.378c2.704,0,5.151,0.457,7.344,1.378
				c2.193,0.922,4.069,2.208,5.636,3.854c1.571,1.651,2.778,3.614,3.614,5.884c0.84,2.275,1.262,4.732,1.262,7.382
				C344.892,32.895,344.465,35.369,343.63,37.619z M399.827,47.063c-2.004,1.087-4.304,1.625-6.905,1.625
				c-2.267,0-4.393-0.459-6.366-1.381c-1.977-0.916-3.694-2.203-5.158-3.856c-1.457-1.648-2.605-3.592-3.445-5.837
				c-0.839-2.245-1.263-4.722-1.263-7.428c0-2.649,0.427-5.111,1.263-7.382c0.84-2.272,1.998-4.231,3.49-5.884
				c1.487-1.646,3.245-2.936,5.276-3.856c2.031-0.918,4.23-1.375,6.617-1.375c2.374,0,4.472,0.401,6.286,1.215
				c1.81,0.81,3.336,1.974,4.583,3.489l9.734-7.953c-1.242-1.564-2.653-2.888-4.215-3.975c-1.571-1.078-3.206-1.951-4.912-2.597
				c-1.703-0.65-3.438-1.119-5.191-1.422c-1.759-0.292-3.456-0.445-5.071-0.445c-4.496,0-8.637,0.701-12.415,2.109
				c-3.792,1.407-7.061,3.424-9.824,6.044c-2.759,2.625-4.915,5.805-6.449,9.533c-1.541,3.732-2.313,7.901-2.313,12.499
				c0,4.596,0.772,8.765,2.313,12.496c1.534,3.733,3.69,6.916,6.449,9.534c2.765,2.628,6.033,4.637,9.824,6.047
				c3.782,1.41,7.919,2.109,12.419,2.109c3.945,0,7.778-0.812,11.513-2.434c3.739-1.626,6.819-4.14,9.254-7.547l-10.552-7.874
				C403.474,44.468,401.828,45.983,399.827,47.063z M422.06,58.918h12.654V1.466H422.06V58.918z M526.173,1.466l-12.9,21.499
				L501.1,1.466h-14.688h-1.059h-44.383v11.195h16.384v46.257h12.665V12.661h16.393V3.08l20.53,31.328v24.51h12.655v-24.51
				L541.18,1.463h-15.007V1.466z"/>
		</g>
	</g>
	<g>
		<g>
			<path fill="#1776BF" d="M569.256,58.918h12.663V1.466h-12.663V58.918z M627.896,24.144c-1.978-1.815-4.306-3.21-6.978-4.18
				c-2.686-0.977-5.539-1.46-8.562-1.46c-3.039,0-5.892,0.483-8.562,1.46c-2.682,0.97-5.012,2.365-6.984,4.18
				c-1.979,1.811-3.524,3.991-4.666,6.532c-1.136,2.539-1.702,5.385-1.702,8.519c0,3.144,0.566,5.979,1.702,8.521
				c1.142,2.549,2.688,4.72,4.666,6.529c1.973,1.815,4.303,3.208,6.984,4.183c2.678,0.971,5.523,1.461,8.562,1.461
				c3.023,0,5.877-0.488,8.562-1.461c2.672-0.977,5-2.364,6.978-4.183c1.973-1.806,3.525-3.98,4.663-6.529
				c1.138-2.542,1.706-5.384,1.706-8.521c0-3.133-0.568-5.979-1.706-8.519C631.422,28.134,629.869,25.955,627.896,24.144z
				 M619.536,46.416c-1.712,1.846-4.1,2.762-7.185,2.762c-3.087,0-5.478-0.917-7.184-2.762c-1.704-1.836-2.554-4.243-2.554-7.221
				c0-2.973,0.852-5.382,2.554-7.221c1.706-1.833,4.094-2.759,7.184-2.759c3.077,0,5.473,0.925,7.185,2.759
				c1.696,1.836,2.549,4.248,2.549,7.221C622.087,42.172,621.232,44.58,619.536,46.416z M629.554,1.466v11.195h16.395v46.257h12.657
				V12.661H675V1.463h-45.446V1.466z"/>
		</g>
	</g>
	<g>
		<path fill="#9D9C9C" d="M0.001,85.582H5.89c0.802,0,1.585,0.084,2.347,0.248c0.763,0.164,1.445,0.43,2.045,0.803
			c0.603,0.371,1.088,0.865,1.46,1.461c0.37,0.602,0.556,1.346,0.556,2.234c0,1.129-0.303,2.061-0.912,2.799
			c-0.61,0.736-1.431,1.258-2.466,1.568v0.057c0.616,0.053,1.194,0.213,1.73,0.475s0.999,0.605,1.392,1.02
			c0.39,0.422,0.696,0.906,0.913,1.461c0.221,0.557,0.326,1.152,0.326,1.787c0,1.07-0.224,1.957-0.666,2.648
			c-0.447,0.689-1.029,1.238-1.748,1.648c-0.717,0.41-1.525,0.695-2.428,0.859c-0.899,0.164-1.795,0.246-2.686,0.246H0L0.001,85.582
			L0.001,85.582z M2.291,93.768h3.162c0.547,0,1.08-0.037,1.599-0.109c0.517-0.074,0.985-0.225,1.402-0.451
			c0.419-0.227,0.756-0.545,1.012-0.957c0.253-0.41,0.379-0.949,0.379-1.619c0-0.604-0.116-1.088-0.353-1.461
			c-0.236-0.371-0.552-0.668-0.942-0.885c-0.389-0.219-0.835-0.371-1.334-0.449c-0.503-0.082-1.005-0.125-1.514-0.125h-3.41
			L2.291,93.768L2.291,93.768z M2.291,102.766h3.873c0.567,0,1.122-0.062,1.678-0.176c0.556-0.121,1.055-0.311,1.502-0.572
			c0.442-0.262,0.802-0.609,1.075-1.037c0.273-0.426,0.41-0.949,0.41-1.568c0-0.67-0.133-1.234-0.396-1.688
			c-0.264-0.455-0.61-0.818-1.035-1.09c-0.426-0.275-0.919-0.467-1.471-0.574C7.369,95.951,6.8,95.898,6.22,95.898H2.291V102.766z"
			/>
		<path fill="#9D9C9C" d="M21.191,96.574l-7.203-10.992h2.92l5.426,8.73l5.589-8.73h2.756l-7.202,10.992v8.318h-2.29v-8.318H21.191z
			"/>
		<path fill="#9D9C9C" d="M48.548,89.729c-0.367-0.523-0.854-0.912-1.459-1.158c-0.613-0.246-1.251-0.369-1.924-0.369
			c-0.399,0-0.786,0.045-1.159,0.135c-0.372,0.092-0.709,0.234-1.009,0.438c-0.3,0.199-0.543,0.461-0.723,0.777
			c-0.182,0.318-0.272,0.693-0.272,1.129c0,0.658,0.226,1.156,0.682,1.502c0.453,0.344,1.015,0.645,1.688,0.898
			c0.671,0.254,1.412,0.5,2.209,0.736c0.799,0.236,1.535,0.564,2.21,0.982c0.672,0.42,1.235,0.973,1.688,1.664
			c0.457,0.689,0.683,1.607,0.683,2.752c0,1.035-0.189,1.941-0.572,2.713c-0.379,0.77-0.896,1.414-1.541,1.924
			c-0.646,0.512-1.396,0.889-2.248,1.145c-0.857,0.254-1.758,0.379-2.704,0.379c-1.198,0-2.353-0.201-3.462-0.6
			s-2.063-1.07-2.863-2.016l2.591-2.51c0.419,0.641,0.968,1.133,1.652,1.488c0.682,0.354,1.404,0.533,2.167,0.533
			c0.399,0,0.799-0.059,1.203-0.168c0.399-0.107,0.762-0.271,1.089-0.49c0.329-0.221,0.592-0.494,0.792-0.83
			c0.199-0.336,0.299-0.723,0.299-1.16c0-0.709-0.226-1.258-0.683-1.641c-0.453-0.377-1.017-0.701-1.691-0.963
			c-0.671-0.264-1.408-0.518-2.207-0.752c-0.803-0.236-1.538-0.562-2.209-0.965c-0.673-0.412-1.236-0.957-1.693-1.639
			c-0.453-0.684-0.682-1.596-0.682-2.74c0-1.002,0.207-1.863,0.617-2.594c0.41-0.725,0.946-1.332,1.609-1.812
			c0.662-0.482,1.42-0.842,2.277-1.076c0.855-0.236,1.726-0.354,2.615-0.354c1.018,0,2.007,0.154,2.959,0.463
			c0.957,0.309,1.815,0.818,2.578,1.527L48.548,89.729z"/>
		<path fill="#9D9C9C" d="M53.156,95.322c0-1.547,0.253-2.949,0.762-4.215s1.215-2.34,2.113-3.232
			c0.899-0.889,1.974-1.58,3.22-2.059c1.245-0.482,2.613-0.721,4.105-0.721c1.508-0.021,2.89,0.203,4.144,0.666
			c1.256,0.469,2.337,1.145,3.245,2.035c0.909,0.889,1.617,1.961,2.127,3.217s0.764,2.654,0.764,4.199
			c0,1.51-0.253,2.885-0.764,4.119s-1.218,2.305-2.127,3.193c-0.909,0.891-1.99,1.588-3.245,2.086
			c-1.255,0.5-2.638,0.76-4.144,0.775c-1.492,0-2.86-0.238-4.105-0.721c-1.246-0.48-2.32-1.164-3.22-2.047
			c-0.898-0.881-1.605-1.941-2.113-3.176C53.409,98.201,53.156,96.83,53.156,95.322z M56.754,95.102
			c0,1.035,0.159,1.992,0.479,2.863c0.316,0.871,0.766,1.629,1.348,2.262c0.582,0.637,1.278,1.141,2.088,1.504
			s1.71,0.547,2.714,0.547c0.998,0,1.907-0.184,2.726-0.547s1.517-0.865,2.101-1.504c0.583-0.633,1.031-1.391,1.349-2.262
			c0.32-0.871,0.479-1.828,0.479-2.863c0-0.963-0.16-1.861-0.479-2.697c-0.317-0.836-0.767-1.566-1.349-2.195
			c-0.583-0.627-1.281-1.117-2.101-1.475c-0.818-0.354-1.728-0.531-2.726-0.531c-1.003,0-1.906,0.178-2.714,0.531
			c-0.81,0.357-1.506,0.848-2.088,1.475c-0.583,0.625-1.032,1.359-1.348,2.195C56.913,93.238,56.754,94.139,56.754,95.102z"/>
		<path fill="#9D9C9C" d="M76.362,85.582h12.464v3.111h-9.028v5.074h8.509v3.107h-8.509v8.018h-3.437L76.362,85.582L76.362,85.582z"
			/>
		<path fill="#9D9C9C" d="M95.424,88.693h-5.918v-3.111h15.275v3.111h-5.918v16.199h-3.437L95.424,88.693L95.424,88.693z"/>
		<path fill="#9D9C9C" d="M104.427,85.582h3.762l3.629,13.912h0.054l4.337-13.912h3.383l4.254,13.912h0.054l3.791-13.912h3.49
			l-5.617,19.311h-3.273l-4.475-14.697h-0.053l-4.475,14.697h-3.162L104.427,85.582z"/>
		<path fill="#9D9C9C" d="M138.351,85.582h2.974l8.318,19.311h-3.928l-1.8-4.42h-8.374l-1.744,4.42h-3.845L138.351,85.582z
			 M142.716,97.529l-2.974-7.852l-3.025,7.852H142.716z"/>
		<path fill="#9D9C9C" d="M151.253,85.582h6.709c0.928,0,1.824,0.086,2.687,0.26c0.866,0.176,1.63,0.473,2.307,0.889
			c0.672,0.422,1.209,0.982,1.608,1.689c0.399,0.711,0.601,1.611,0.601,2.701c0,1.4-0.387,2.572-1.16,3.52
			c-0.771,0.945-1.878,1.516-3.312,1.715l5.127,8.537h-4.145l-4.475-8.184h-2.511v8.184h-3.435V85.582L151.253,85.582z
			 M157.361,93.768c0.492,0,0.981-0.023,1.474-0.07c0.49-0.045,0.939-0.156,1.349-0.326c0.41-0.174,0.743-0.438,0.996-0.791
			s0.383-0.85,0.383-1.486c0-0.562-0.122-1.02-0.356-1.365c-0.237-0.34-0.547-0.604-0.926-0.775
			c-0.382-0.172-0.805-0.285-1.268-0.34s-0.915-0.08-1.352-0.08h-2.973v5.234H157.361L157.361,93.768z"/>
		<path fill="#9D9C9C" d="M167.889,85.582h12.791v3.111h-9.355v4.742h8.866v3.111h-8.866v5.236h9.848v3.107h-13.283V85.582z"/>
		<path fill="#9D9C9C" d="M197.779,85.582h2.971l8.321,19.311h-3.93l-1.801-4.42h-8.373l-1.745,4.42h-3.845L197.779,85.582z
			 M202.14,97.529l-2.971-7.852l-3.027,7.852H202.14z"/>
		<path fill="#9D9C9C" d="M227.833,103.475c-2.384,1.271-5.046,1.906-7.99,1.906c-1.492,0-2.86-0.238-4.105-0.721
			c-1.245-0.48-2.32-1.164-3.219-2.045c-0.898-0.881-1.604-1.943-2.112-3.176c-0.51-1.24-0.763-2.609-0.763-4.121
			c0-1.549,0.253-2.945,0.763-4.215c0.508-1.264,1.214-2.34,2.112-3.23c0.899-0.891,1.974-1.58,3.219-2.059
			c1.246-0.48,2.614-0.719,4.105-0.719c1.47,0,2.854,0.172,4.145,0.527c1.292,0.355,2.444,0.988,3.463,1.898l-2.537,2.564
			c-0.617-0.602-1.368-1.064-2.248-1.393c-0.882-0.326-1.814-0.492-2.798-0.492c-1.002,0-1.905,0.178-2.714,0.531
			c-0.808,0.357-1.504,0.844-2.086,1.473c-0.582,0.627-1.033,1.361-1.349,2.193c-0.319,0.836-0.478,1.74-0.478,2.699
			c0,1.037,0.16,1.992,0.478,2.863c0.315,0.871,0.767,1.629,1.349,2.264c0.583,0.637,1.279,1.137,2.086,1.502
			c0.81,0.361,1.712,0.545,2.714,0.545c0.873,0,1.694-0.082,2.467-0.246c0.772-0.162,1.461-0.42,2.06-0.766v-4.551h-3.954v-3.105
			h7.39v9.869h0.002V103.475z"/>
	</g>
</g>
</svg>
