<?xml version="1.0" encoding="UTF-8" standalone="no"?>
<svg width="200px" height="200px" viewBox="0 0 200 200" version="1.1" xmlns="http://www.w3.org/2000/svg" xmlns:xlink="http://www.w3.org/1999/xlink">
    <!-- Generator: Sketch 46.2 (44496) - http://www.bohemiancoding.com/sketch -->
    <title>c8y-data</title>
    <desc>Created with Sketch.</desc>
    <defs></defs>
    <g id="Page-1" stroke="none" stroke-width="1" fill="none" fill-rule="evenodd">
        <g id="c8y-data">
            <g id="Group-2" transform="translate(21.000000, 0.000000)">
                <g id="Group" transform="translate(0.000000, 72.000000)">
                    <path d="M81.7786667,21.5921333 C83.6453333,23.0921333 85.7333333,24.3148 87.9773333,25.2054667 L81.7786667,25.2054667 L81.7786667,21.5921333 Z M0.390666667,58.768 L0.390666667,33.6013333 L35.2386667,33.6013333 L35.2386667,58.768 L0.390666667,58.768 Z M0.546666667,92.2386667 L0.546666667,67.0826667 L35.3853333,67.0826667 L35.3853333,92.2386667 L0.546666667,92.2386667 Z M35.2012,1.05173333 L35.4532,1.05173333 L35.4532,25.2050667 L0.6052,25.2050667 L0.6052,0.0264 L28.7185333,0.0264 C30.9545333,0.7064 33.2012,1.02906667 35.2012,1.05173333 Z M75.8261333,14.5504 L75.8261333,25.2050667 L40.9768,25.2050667 L40.9768,1.07706667 C42.8221333,1.08506667 45.0368,1.09573333 47.5488,1.1064 C51.6848,7.75573333 57.7381333,10.1237333 58.4768,10.3917333 C59.0608,10.6050667 59.6768,10.7424 60.3021333,10.7944 C60.8821333,10.8437333 61.9194667,10.9290667 74.1928,10.9504 C74.6394667,12.2050667 75.1914667,13.4064 75.8261333,14.5504 Z M0.342666667,125.813333 L0.342666667,100.633333 L35.2013333,100.633333 L35.2013333,125.813333 L0.342666667,125.813333 Z M141.093733,0.0269333333 L156.991067,0.0269333333 L156.991067,25.2056 L122.1524,25.2056 L122.1524,10.8362667 L125.0244,10.8229333 C130.737733,10.7589333 138.799067,7.7416 141.093733,0.0269333333 Z M105.5664,25.2053333 C110.0624,23.4266667 113.9184,20.3186667 116.617067,16.32 L116.617067,25.2053333 L105.5664,25.2053333 Z" id="Combined-Shape" fill="#545658"></path>
                    <path d="M81.5448,92.2634667 L116.410133,92.2634667 L116.410133,67.0928 L81.5448,67.0928 L81.5448,92.2634667 Z M40.9954667,58.8261333 L75.8461333,58.8261333 L75.8461333,33.6594667 L40.9954667,33.6594667 L40.9954667,58.8261333 Z M81.5448,125.610133 L116.410133,125.610133 L116.410133,100.438133 L81.5448,100.438133 L81.5448,125.610133 Z M81.5448,58.7674667 L116.410133,58.7674667 L116.410133,33.6008 L81.5448,33.6008 L81.5448,58.7674667 Z M121.927467,92.2634667 L156.766133,92.2634667 L156.766133,67.0928 L121.927467,67.0928 L121.927467,92.2634667 Z M40.9954667,92.3221333 L75.8461333,92.3221333 L75.8461333,67.1514667 L40.9954667,67.1514667 L40.9954667,92.3221333 Z M121.927467,58.7674667 L156.766133,58.7674667 L156.766133,33.6008 L121.927467,33.6008 L121.927467,58.7674667 Z M121.927467,125.610133 L156.766133,125.610133 L156.766133,100.438133 L121.927467,100.438133 L121.927467,125.610133 Z M40.9954667,125.6648 L75.8461333,125.6648 L75.8461333,100.495467 L40.9954667,100.495467 L40.9954667,125.6648 Z" id="Fill-63" fill="@color0"></path>
                </g>
                <path d="M96.542961,89.8132362 C87.0439279,89.8132362 79.0232607,83.0791711 77.2510828,74.0626402 C63.7809354,74.0547333 61.2416557,73.9782997 60.5370388,73.9203155 C60.2897582,73.8992304 60.0491249,73.8491532 59.8151389,73.7634948 C59.5319627,73.6607048 53.3153806,71.347929 49.977092,64.3384394 C41.1906526,64.304176 35.1761493,64.275184 35.1761493,64.275184 C29.8582861,64.2185177 19.8274667,61.3588462 19.8274667,50.9546498 C19.8274667,46.5966159 21.2061227,43.1755527 23.9182329,40.7876612 C26.5027144,38.5131022 29.7519288,37.7461304 32.155603,37.5181474 C32.2087816,34.7559947 33.0583103,30.8209813 36.7475779,27.5896843 C40.3663838,24.4150537 44.671194,24.0895519 47.6611626,24.3821082 C48.3990161,15.8768917 53.2914502,3.41030554 68.5351051,0.910399193 C86.0893714,-1.97035741 95.9194415,10.2194864 99.6844887,19.2294282 C105.769454,16.5186705 113.953645,16.8125446 120.832301,20.2336078 C128.888864,24.2384657 133.506099,31.5418294 133.506099,40.2723932 C133.506099,44.9427506 132.568825,49.1492351 130.707573,52.8391338 C134.2732,54.2557913 137.1608,57.3987943 137.1608,62.9982155 C137.1608,71.5376953 128.991233,73.8860522 124.671798,73.9321759 L115.852122,73.9703927 C114.119828,83.0383187 106.091184,89.8132362 96.542961,89.8132362 Z M61.4038505,68.455312 C62.7785182,68.5067071 67.233558,68.5581021 79.691982,68.5581021 C81.1650301,68.5581021 82.3801619,69.6953816 82.4639182,71.1489381 C82.9066303,78.5274176 89.0873168,84.3086981 96.5403021,84.3086981 C104.026524,84.3086981 110.215187,78.4984255 110.619345,71.0777757 C110.700442,69.6215836 111.911586,68.4803506 113.381975,68.4737615 L124.626596,68.4223665 C124.61729,68.4223665 126.636749,68.3736071 128.531238,67.5328374 C130.626476,66.6037736 131.604962,65.1620775 131.604962,62.9968977 C131.604962,61.5433412 131.604962,57.6939862 126.100974,57.4251507 C126.091668,57.4251507 126.081032,57.4238329 126.071726,57.4238329 C125.965369,57.4198794 125.869647,57.4146081 125.777914,57.4185616 C125.769937,57.4172438 125.767278,57.4185616 125.76196,57.4185616 C125.732712,57.4093368 125.676874,57.4172438 125.631673,57.4146081 C125.283353,57.4185616 125.049367,57.4370111 125.001506,57.4422824 C124.698388,57.4725922 124.395269,57.4488715 124.106775,57.3816626 C123.495221,57.2498805 122.930198,56.9243787 122.532688,56.4420563 C121.966335,55.7554715 121.727032,54.8435394 121.961018,53.9869558 C121.982289,53.8881193 122.706848,50.7938757 120.171557,48.5680761 C119.135903,47.6640509 117.783836,47.2238987 116.151252,47.2489373 C114.866988,47.2845185 113.901796,47.6021133 113.888501,47.6073846 C113.682434,47.6785469 113.464402,47.7233528 113.246369,47.744438 C112.532446,47.832732 111.807887,47.6508727 111.221593,47.2120383 C110.483739,46.6611892 110.079582,45.7822026 110.122125,44.8715883 C110.150043,44.3167857 110.579461,31.1385762 98.0226564,29.0775042 C97.0986777,28.9259548 96.1733695,28.836343 95.2759801,28.8113044 C82.9744331,28.5582827 78.952799,41.2713015 78.6523398,42.275481 C78.5712423,42.5878046 78.4329779,42.8856321 78.2375464,43.1584211 C77.6844887,43.9332998 76.8097002,44.3444599 75.9202876,44.3246926 C75.282144,44.3497312 74.7237683,44.1441511 74.2292071,43.7777969 C72.5952936,42.5719907 70.2806936,41.907809 67.6975416,41.907809 C67.6829175,41.907809 67.6656344,41.9091268 67.6483514,41.907809 C60.8162266,41.9578862 53.5453782,46.4661517 53.5453782,54.7262534 C53.5453782,55.9913615 53.8578027,57.9812711 54.4693569,60.6353625 C54.4813221,60.6973001 54.4972757,60.7671446 54.5145588,60.8396248 C56.3691635,65.7933137 60.2804519,67.9295015 61.4038505,68.455312 Z M35.2319869,58.7693281 C35.2519288,58.7693281 40.4634348,58.7956845 48.2541043,58.8299478 C48.0280951,57.5015843 47.9124316,56.1323683 47.9124316,54.728889 C47.9124316,43.2928388 57.9352743,36.4322629 67.6257504,36.4006352 C70.0653202,36.3993174 72.3772612,36.8012528 74.4193207,37.6077592 C77.342816,31.1346227 83.9595672,23.0761476 95.2640149,23.3028128 C94.6910151,21.6700326 93.0251945,17.4964937 89.8078873,13.6774486 C84.5618152,7.45074457 77.7137369,4.98246593 69.4444597,6.33982151 C52.4937708,9.1191059 53.1000072,26.8306195 53.1332438,27.5844131 C53.1757867,28.4989808 52.754346,29.3792852 52.0111747,29.9248631 C51.2640149,30.4717588 50.2961638,30.6154013 49.4253637,30.3057133 C49.3854797,30.2938529 44.0622987,28.5240194 40.4301981,31.7091926 C36.7648609,34.9194045 37.8324219,39.3578254 37.8776238,39.5436382 C38.0996446,40.421307 37.8762943,41.3661846 37.2713874,42.0435445 C36.6678099,42.7222223 35.7704205,43.0767162 34.8610659,42.9699727 C34.8331471,42.9660192 30.3036571,42.5047819 27.5835701,44.9216655 C26.1052042,46.2381686 25.3846337,48.2096288 25.3846337,50.953332 C25.3846337,58.3805709 34.2229223,58.7521964 35.2319869,58.7693281 Z M116.402521,41.7364923 C119.302086,41.7364923 121.907839,42.6668739 123.932615,44.4432965 C125.222197,45.5739869 126.103633,46.8417306 126.693916,48.1239704 C127.531479,45.7505749 127.954249,43.1281112 127.954249,40.2710754 C127.954249,31.2729939 121.93044,26.9347273 118.342212,25.1543512 C112.944581,22.4712678 106.415574,22.2024323 101.860824,24.2924963 C107.541632,25.980625 111.694883,29.7614533 113.96694,35.3503319 C114.924155,37.7079136 115.380162,39.9903795 115.590217,41.7575774 C115.736459,41.7483526 115.884029,41.7443992 116.038247,41.7417635 C116.160558,41.7378101 116.28154,41.7364923 116.402521,41.7364923 Z M82.5609692,64.4201443 L82.5144379,64.4201443 C80.9855522,64.3924701 79.7664321,63.1629431 79.7823857,61.6500847 C79.7823857,61.5248917 80.0615735,49.0121817 93.6008532,48.7802452 L93.6487139,48.7802452 C95.161646,48.7802452 96.3967197,49.9834158 96.4246385,51.4883673 C96.4498984,53.006497 95.2281193,54.2597448 93.6939158,54.2900546 C85.911223,54.4205189 85.3648126,60.5062161 85.3355643,61.7252004 C85.2983393,63.2196094 84.064595,64.4201443 82.5609692,64.4201443 Z" id="Combined-Shape" fill="@color0"></path>
            </g>
        </g>
    </g>
</svg>