<?xml version="1.0" encoding="UTF-8" standalone="no"?>
<svg width="200px" height="200px" viewBox="0 0 200 200" version="1.1" xmlns="http://www.w3.org/2000/svg" xmlns:xlink="http://www.w3.org/1999/xlink">
    <!-- Generator: Sketch 46.2 (44496) - http://www.bohemiancoding.com/sketch -->
    <title>data-explorer</title>
    <desc>Created with Sketch.</desc>
    <defs></defs>
    <g id="Page-1" stroke="none" stroke-width="1" fill="none" fill-rule="evenodd">
        <g id="data-explorer">
            <path d="M53.1404883,115.041255 L66.1297295,38.2389179 L79.3953945,93.5199789 C80.7117629,99.1917686 88.8072269,99.8274675 91.0105672,94.3628011 L103.024273,64.5578979 C103.024273,64.5578979 108.830518,77.6496495 109.928162,79.8798066 C111.0352,82.108661 112.190545,83.5520104 115.927635,83.5520104 L130.666667,83.5520104 L130.666667,71.7029982 L119.891501,71.7029982 L108.368917,46.6371789 C106.20449,41.7808555 99.0778521,41.8824631 97.0932356,46.8143409 L86.9017804,72.0885861 L71.206,4.61200489 C69.7259243,-1.76973551 60.3208013,-1.41150351 59.2513359,4.96111827 L46.2352575,82.9189167 L32.9279946,34.9197355 C31.4398677,29.1776021 23.105552,28.8571473 21.2148659,34.5471742 L11.3052021,71.7290514 L0,71.7290514 L0,83.557221 L16.1077325,83.557221 C18.3003379,83.557221 20.6848298,81.8311941 21.3181894,79.7847123 L26.9312055,60.2981937 L41.216687,115.531056 C42.8376584,121.773412 52.089809,121.352652 53.1404883,115.041255" id="Fill-30" fill="@color0"></path>
            <path d="M105.725654,132.988865 C105.725654,117.897471 118.10298,105.609336 133.316636,105.609336 C148.53702,105.609336 160.906272,117.897471 160.906272,132.988865 C160.906272,148.090944 148.53702,160.375072 133.316636,160.375072 C118.10298,160.375072 105.725654,148.090944 105.725654,132.988865 L105.725654,132.988865 Z M200,185.605748 L170.478215,156.317758 C174.801331,149.560018 177.30263,141.566921 177.30263,132.988865 C177.30263,108.912081 157.570759,89.3333333 133.316636,89.3333333 C109.065204,89.3333333 89.3333333,108.908074 89.3333333,132.988865 C89.3333333,157.058972 109.065204,176.644397 133.316636,176.644397 C141.522888,176.644397 149.209774,174.404727 155.793343,170.50634 L185.510227,200 L200,185.605748 Z" id="Fill-32" fill="#545658"></path>
        </g>
    </g>
</svg>