<?xml version="1.0" encoding="UTF-8" standalone="no"?>
<svg width="200px" height="200px" viewBox="0 0 200 200" version="1.1" xmlns="http://www.w3.org/2000/svg" xmlns:xlink="http://www.w3.org/1999/xlink">
    <!-- Generator: Sketch 46.2 (44496) - http://www.bohemiancoding.com/sketch -->
    <title>enterprise</title>
    <desc>Created with Sketch.</desc>
    <defs></defs>
    <g id="Page-1" stroke="none" stroke-width="1" fill="none" fill-rule="evenodd">
        <g id="enterprise">
            <path d="M99.625,19.0083333 L174.666667,60.3916667 L174.666667,141.1 L99.6666667,181.116667 L24.6666667,141.1 L24.6666667,59.9 L99.625,19.0083333 L99.625,19.0083333 Z M99.6666667,7.40148683e-15 L8,50 L8,151.091667 L99.6666667,200 L191.333333,151.091667 L191.333333,50.5416667 L99.6666667,0 L99.6666667,7.40148683e-15 Z" id="Shape" fill="#545658"></path>
            <path d="M108,105.083333 L158,79.375 L158,129.8 L108,155.441667 L108,105.083333 Z M91.3333333,104.991667 L91.3333333,155.441667 L41.3333333,129.8 L41.3333333,78.2583333 L91.3333333,104.991667 Z M99.75,90.5916667 L52.125,65.125 L99.6666667,39.975 L147.975,65.7916667 L99.75,90.5916667 Z" id="Combined-Shape" fill="@color0"></path>
        </g>
    </g>
</svg>