<?xml version="1.0" encoding="UTF-8" standalone="no"?>
<svg width="200px" height="200px" viewBox="0 0 200 200" version="1.1" xmlns="http://www.w3.org/2000/svg" xmlns:xlink="http://www.w3.org/1999/xlink">
    <!-- Generator: Sketch 46.2 (44496) - http://www.bohemiancoding.com/sketch -->
    <title>group-smart-open</title>
    <desc>Created with Sketch.</desc>
    <defs></defs>
    <g id="Page-1" stroke="none" stroke-width="1" fill="none" fill-rule="evenodd">
        <g id="group-smart-open">
            <path d="M192.515753,123.980938 L200,75.3333333 L0,75.3333333 L16.6666667,183.666667 L111.281737,183.666667 C103.591371,176.337232 99,167.072537 99,156.998605 C99,133.251857 124.518469,114 156.000925,114 C169.893631,114 182.625769,117.749827 192.515753,123.980938 Z" id="Combined-Shape" fill="#545658"></path>
            <path d="M156.5,168.368717 C148.096046,168.368717 141.281621,163.278331 141.281621,157.000564 C141.281621,150.721669 148.096046,145.631283 156.5,145.631283 C164.903954,145.631283 171.718379,150.721669 171.718379,157.000564 C171.718379,163.278331 164.903954,168.368717 156.5,168.368717 L156.5,168.368717 Z M198,161.175584 L198,152.825545 L191.960697,151.222807 C189.656484,150.611058 187.802538,149.296135 186.867254,147.608746 L186.865743,147.607617 C185.927438,145.916841 185.99392,144.008229 187.045547,142.3547 L189.795493,138.031822 L181.891666,132.12878 L176.106204,134.182993 C173.89416,134.967432 171.336106,135.017094 169.07269,134.316178 L169.069668,134.316178 C166.810784,133.616391 165.05505,132.233748 164.23611,130.512497 L162.087526,126 L150.910963,126 L148.76389,130.512497 C147.943439,132.23149 146.186194,133.61752 143.928821,134.316178 L143.925799,134.316178 C141.663894,135.017094 139.107351,134.968561 136.893796,134.182993 L131.106823,132.12878 L123.202996,138.031822 L125.954453,142.3547 C127.004569,144.0071 127.069541,145.91797 126.131235,147.607617 L126.131235,147.609874 C125.195951,149.298393 123.345027,150.609929 121.040814,151.222807 L115,152.825545 L115,161.175584 L121.040814,162.779451 C123.343516,163.3912 125.197462,164.703865 126.131235,166.390126 L126.131235,166.393512 C127.071051,168.083159 127.00608,169.991771 125.954453,171.6453 L123.202996,175.968178 L131.106823,181.872349 L136.893796,179.819264 C139.10584,179.032568 141.663894,178.982906 143.925799,179.683822 L143.928821,179.68495 C146.187705,180.384737 147.941928,181.766252 148.76389,183.487503 L150.910963,188 L162.087526,188 L164.222511,183.516848 C165.049006,181.780925 166.822872,180.383609 169.099887,179.675921 L169.10442,179.674792 C171.345172,178.977262 173.876029,179.025796 176.06843,179.804591 L181.891666,181.872349 L189.795493,175.96705 L187.044036,171.641914 C185.99392,169.991771 185.928949,168.08203 186.865743,166.394641 L186.865743,166.393512 C187.80556,164.703865 189.656484,163.3912 191.962208,162.777193 L198,161.175584 Z" id="Fill-81-Copy" fill="@color0"></path>
            <path d="M66.4333333,17 L8.33333333,17 L14.2833333,58.6666667 L31.125,58.6666667 L27.55,33.6666667 L58.3333333,33.6666667 C67.6,45.2333333 74.6,50.3333333 93.975,50.3333333 L171.333333,50.3333333 L169.666667,58.6666667 L186.666667,58.6666667 L191.666667,33.6666667 L93.975,33.6666667 C77.4916667,33.6666667 76.9666667,30.1916667 66.4333333,17 L66.4333333,17 Z" id="Path" fill="@color0"></path>
        </g>
    </g>
</svg>