<?xml version="1.0" encoding="UTF-8" standalone="no"?>
<svg width="200px" height="200px" viewBox="0 0 200 200" version="1.1" xmlns="http://www.w3.org/2000/svg" xmlns:xlink="http://www.w3.org/1999/xlink">
    <!-- Generator: Sketch 46.2 (44496) - http://www.bohemiancoding.com/sketch -->
    <title>group-smart</title>
    <desc>Created with Sketch.</desc>
    <defs></defs>
    <g id="Page-1" stroke="none" stroke-width="1" fill="none" fill-rule="evenodd">
        <g id="group-smart">
            <path d="M0,180 L0,20 L52.5973333,20 L68.4653333,35.8428947 C72.856,40.2271341 78.7986667,42.6886725 84.9946667,42.6886725 L200,42.6886725 L200,98.0993607 C177.273333,75.3077341 140.528,75.3130824 117.829333,98.0766306 C95.0826667,120.884302 95.3333333,157.408933 117.388,180 L0,180 Z" id="Fill-122-Copy" stroke="#545658" fill="#545658"></path>
            <path d="M158.666667,153.823928 C150.296464,153.823928 143.509406,147.03687 143.509406,138.666667 C143.509406,130.294959 150.296464,123.507901 158.666667,123.507901 C167.03687,123.507901 173.823928,130.294959 173.823928,138.666667 C173.823928,147.03687 167.03687,153.823928 158.666667,153.823928 L158.666667,153.823928 Z M200,144.233258 L200,133.100075 L193.984951,130.96313 C191.689992,130.147479 189.843491,128.394281 188.911964,126.14447 L188.910459,126.142965 C187.975922,123.888638 188.042137,121.343868 189.089541,119.139202 L191.828442,113.37547 L183.956358,105.504891 L178.194131,108.243792 C175.990971,109.289691 173.44319,109.355907 171.188864,108.421369 L171.185854,108.421369 C168.936042,107.488337 167.187359,105.644846 166.371708,103.349887 L164.231753,97.3333333 L153.100075,97.3333333 L150.961625,103.349887 C150.14447,105.641836 148.394281,107.489842 146.145974,108.421369 L146.142965,108.421369 C143.890143,109.355907 141.343868,109.291196 139.139202,108.243792 L133.37547,105.504891 L125.503386,113.37547 L128.243792,119.139202 C129.289691,121.342363 129.354402,123.890143 128.419865,126.142965 L128.419865,126.145974 C127.488337,128.397291 125.644846,130.145974 123.349887,130.96313 L117.333333,133.100075 L117.333333,144.233258 L123.349887,146.371708 C125.643341,147.187359 127.489842,148.937547 128.419865,151.185854 L128.419865,151.190369 C129.355907,153.44319 129.291196,155.987961 128.243792,158.192626 L125.503386,163.956358 L133.37547,171.828442 L139.139202,169.091046 C141.342363,168.042137 143.890143,167.975922 146.142965,168.910459 L146.145974,168.911964 C148.395786,169.844996 150.142965,171.686983 150.961625,173.981941 L153.100075,179.998495 L164.231753,179.998495 L166.358164,174.021068 C167.181339,171.706546 168.948081,169.843491 171.215952,168.899925 L171.220467,168.89842 C173.45222,167.968397 175.972912,168.033108 178.156509,169.071482 L183.956358,171.828442 L191.828442,163.954853 L189.088036,158.188111 C188.042137,155.987961 187.977427,153.441685 188.910459,151.191874 L188.910459,151.190369 C189.846501,148.937547 191.689992,147.187359 193.986456,146.368698 L200,144.233258 Z" id="Fill-81-Copy" fill="@color0"></path>
        </g>
    </g>
</svg>