<?xml version="1.0" encoding="UTF-8" standalone="no"?>
<svg width="200px" height="200px" viewBox="0 0 200 200" version="1.1" xmlns="http://www.w3.org/2000/svg" xmlns:xlink="http://www.w3.org/1999/xlink">
    <!-- Generator: Sketch 46.2 (44496) - http://www.bohemiancoding.com/sketch -->
    <title>parking</title>
    <desc>Created with Sketch.</desc>
    <defs></defs>
    <g id="Page-1" stroke="none" stroke-width="1" fill="none" fill-rule="evenodd">
        <g id="parking">
            <path d="M141.666667,132.812934 C141.666667,139.641059 147.266667,145.182726 154.166667,145.182726 C161.066667,145.182726 166.666667,139.641059 166.666667,132.812934 C166.666667,125.984809 161.066667,120.443142 154.166667,120.443142 C147.266667,120.443142 141.666667,125.976563 141.666667,132.812934 Z M70.8333333,136.944444 C68.5333333,136.944444 66.6666667,138.78342 66.6666667,141.059462 C66.6666667,143.335503 68.5333333,145.182726 70.8333333,145.182726 L129.166667,145.182726 C131.466667,145.182726 133.333333,143.335503 133.333333,141.059462 C133.333333,138.78342 131.466667,136.944444 129.166667,136.944444 L70.8333333,136.944444 Z M33.3333333,132.812934 C33.3333333,139.641059 38.9333333,145.182726 45.8333333,145.182726 C52.7333333,145.182726 58.3333333,139.641059 58.3333333,132.812934 C58.3333333,125.984809 52.7333333,120.443142 45.8333333,120.443142 C38.9333333,120.443142 33.3333333,125.976563 33.3333333,132.812934 Z M22.5166667,79.2105035 L4.16666667,79.2105035 C1.86666667,79.2105035 0,81.0577257 0,83.3337674 L0,87.5477431 C0,94.0872396 7.71666667,95.703559 13.4666667,95.703559 L22.5166667,79.2105035 Z M180.9,112.204861 L168.308333,112.204861 C172.258333,119.544271 175,125.852865 175,136.713542 C175,150.509983 163.708333,161.684028 149.783333,161.684028 L50.2166667,161.684028 C36.2916667,161.684028 25,150.509983 25,136.713542 C25,123.18099 29.2166667,116.748698 34.8666667,106.382813 C43.5416667,108.081597 67.925,112.196615 100,112.196615 C107.308333,112.196615 114.4,111.957465 121.1,111.569878 C111.075,109.780382 102.541667,103.875868 97.275,95.6623264 C73.15,95.4726563 53.6333333,92.8667535 43.2916667,91.1267361 C46.475,85.4696181 49.7833333,79.6970486 53.1583333,74.1306424 C58.7416667,64.9192708 60.2583333,64.6553819 64.7416667,63.8554688 C73.1666667,62.3628472 81.275,61.6124132 91.6666667,61.3650174 L91.6666667,44.8554688 C80.15,45.1111111 71.2416667,45.9440104 61.7916667,47.6180556 C50.2833333,49.6631944 45.4166667,54.8337674 38.8666667,65.6532118 C30.6916667,79.1527778 22.925,93.5429688 16.5,105.335503 C10.775,115.833333 8.33333333,125.217882 8.33333333,136.713542 C8.33333333,147.582465 11.8333333,156.628906 16.6666667,168.190538 L16.6666667,186.407118 C16.6666667,190.967448 20.4,194.670139 25,194.670139 L37.5,194.670139 C42.1,194.670139 45.8333333,190.967448 45.8333333,186.415365 L45.8333333,178.168837 L154.166667,178.168837 L154.166667,186.415365 C154.166667,190.967448 157.9,194.670139 162.5,194.670139 L175,194.670139 C179.6,194.670139 183.333333,190.967448 183.333333,186.415365 L183.333333,168.198785 C188.166667,156.628906 191.666667,147.590712 191.666667,136.721788 C191.666667,127.576389 190.033333,119.750434 186.516667,111.644097 C184.675,111.932726 182.825,112.204861 180.9,112.204861 L180.9,112.204861 Z" id="park" fill="#545658" fill-rule="nonzero"></path>
            <path d="M200,23.9010417 L200,76.8190104 C200,87.2508681 191.45,95.7118056 180.9,95.7118056 L127.425,95.7118056 C116.883333,95.7118056 108.333333,87.2508681 108.333333,76.8107639 L108.333333,23.9010417 C108.333333,13.4609375 116.883333,5 127.433333,5 L180.908333,5 C191.45,5 200,13.4609375 200,23.9010417 L200,23.9010417 Z M177.083333,38.983941 C177.083333,32.7248264 175.158333,28.016059 171.325,24.8576389 C167.483333,21.6992187 161.875,20.1241319 154.5,20.1241319 L135.075,20.1241319 L135.075,80.5959201 L147.966667,80.5959201 L147.966667,59.0807292 L153.5,59.0807292 C161.041667,59.0807292 166.858333,57.3572049 170.95,53.9101562 C175.033333,50.4631076 177.083333,45.4904514 177.083333,38.983941 L177.083333,38.983941 Z M164.066667,39.4375 C164.066667,46.1996528 159.041667,48.5828993 152.208333,48.5828993 L147.966667,48.5828993 L147.966667,30.6219618 L153.833333,30.6219618 C160.291667,30.6219618 164.066667,32.9557292 164.066667,39.4375 L164.066667,39.4375 Z" id="Combined-Shape" fill="@color0"></path>
        </g>
    </g>
</svg>