<?xml version="1.0" encoding="UTF-8" standalone="no"?>
<svg width="200px" height="200px" viewBox="0 0 200 200" version="1.1" xmlns="http://www.w3.org/2000/svg" xmlns:xlink="http://www.w3.org/1999/xlink">
    <!-- Generator: Sketch 46.2 (44496) - http://www.bohemiancoding.com/sketch -->
    <title>rocket</title>
    <desc>Created with Sketch.</desc>
    <defs></defs>
    <g id="Page-1" stroke="none" stroke-width="1" fill="none" fill-rule="evenodd">
        <g id="rocket">
            <path d="M55.7366445,167.644295 C51.2226479,158.948993 44.8357515,140.379866 42.4761928,128 C27.0613032,141.112752 17.5010686,172.146309 26.4513037,200 C28.7290822,183.873826 36.5799775,172.022819 55.7366445,167.644295 M172.88203,200 C181.832265,172.146309 172.27203,141.112752 156.85714,128 C154.497582,140.379866 148.110685,158.948993 143.596689,167.644295 C162.753356,172.022819 170.606932,183.873826 172.88203,200" id="Fill-109" fill="@color0"></path>
            <path d="M116.333333,67.9993502 C116.333333,58.4271236 108.572585,50.6666667 99,50.6666667 C89.4274145,50.6666667 81.6666667,58.4271236 81.6666667,67.9993502 C81.6666667,77.5715768 89.4274145,85.3333333 99,85.3333333 C108.572585,85.3333333 116.333333,77.5715768 116.333333,67.9993502 L116.333333,67.9993502 Z M109.666667,110.666007 C109.666667,104.77476 104.892931,100 99,100 C93.1097088,100 88.3333333,104.77476 88.3333333,110.666007 C88.3333333,116.558573 93.1097088,121.333333 99,121.333333 C104.892931,121.333333 109.666667,116.557253 109.666667,110.666007 L109.666667,110.666007 Z M127.296971,168.094864 L70.6679512,168.094864 C48.7709525,124.419137 38.8890386,51.5084735 98.8351389,0 C159.198541,51.1685013 149.243299,122.228056 127.296971,168.094864 L127.296971,168.094864 Z M110.847557,192 L87.0627023,192 L78.932655,177.766673 L118.977605,177.766673 L110.847557,192 Z" id="Fill-110" fill="#545658"></path>
        </g>
    </g>
</svg>