<?xml version="1.0" encoding="UTF-8" standalone="no"?>
<svg width="200px" height="200px" viewBox="0 0 200 200" version="1.1" xmlns="http://www.w3.org/2000/svg" xmlns:xlink="http://www.w3.org/1999/xlink">
    <!-- Generator: Sketch 46.2 (44496) - http://www.bohemiancoding.com/sketch -->
    <title>shield</title>
    <desc>Created with Sketch.</desc>
    <defs></defs>
    <g id="Page-1" stroke="none" stroke-width="1" fill="none" fill-rule="evenodd">
        <g id="shield">
            <path d="M191.333333,33.3333333 C191.333333,104.858333 149.1,167.475 99.6666667,200 C50.2333333,167.475 8,104.858333 8,33.3333333 C37.2833333,33.3333333 74.7083333,24.9583333 99.6666667,0 C124.625,24.9583333 162.05,33.3333333 191.333333,33.3333333 Z M173.933333,49.1166667 C153.475,47.0666667 124.375,40.6833333 99.6666667,22.0333333 C74.9583333,40.6833333 45.8583333,47.0666667 25.4,49.1166667 C30.8833333,107.883333 66.1583333,154.058333 99.6666667,179.575 C133.175,154.058333 168.45,107.883333 173.933333,49.1166667 Z" id="Shape" fill="#545658" fill-rule="nonzero"></path>
            <path d="M155.075,63.2083333 C145.875,110.033333 117.208333,142.091667 99.6666667,157.908333 L99.6666667,42.2166667 C118.275,53.7916667 138.075,59.9666667 155.075,63.2083333 Z" id="Path" fill="@color0"></path>
        </g>
    </g>
</svg>