<?xml version="1.0" encoding="UTF-8" standalone="no"?>
<svg width="200px" height="200px" viewBox="0 0 200 200" version="1.1" xmlns="http://www.w3.org/2000/svg" xmlns:xlink="http://www.w3.org/1999/xlink">
    <!-- Generator: Sketch 46.2 (44496) - http://www.bohemiancoding.com/sketch -->
    <title>simulator</title>
    <desc>Created with Sketch.</desc>
    <defs></defs>
    <g id="Page-1" stroke="none" stroke-width="1" fill="none" fill-rule="evenodd">
        <g id="simulator">
            <path d="M25.4475377,109.362667 C25.4475377,109.016 25.3984256,108.678667 25.3984256,108.333333 C25.3984256,69.7946667 54.5138911,38.0573333 91.7965531,33.9013333 L91.766024,50 L116.695021,25.032 L91.8456652,0 L91.8231002,17.0853333 C45.2874675,21.2733333 8.80652603,60.5013333 8.80652603,108.333333 C8.80652603,109.464 8.93660652,110.561333 8.97775443,111.681333 L25.4475377,109.362667 Z M100.061974,183.333333 C72.4185418,183.333333 48.2925924,168.122667 35.3867492,145.637333 L50.0579705,137.093333 L16.0313028,128.018667 L7,162.181333 L21.05533,153.996 C36.8056884,181.46 66.2370636,200 100.061974,200 C118.331646,200 135.304496,194.546667 149.578839,185.269333 L139.289207,172.029333 C127.87398,179.149333 114.458433,183.333333 100.061974,183.333333 L100.061974,183.333333 Z M194,160.985333 L160.21491,170.913333 L150.316847,136.978667 L164.938956,145.018667 C171.056721,134.146667 174.725522,121.694667 174.725522,108.333333 C174.725522,77.6573333 156.279312,51.2573333 129.955268,39.652 L135.125303,23.7013333 C168.113982,37.5066667 191.317422,70.1893333 191.317422,108.333333 C191.317422,124.609333 186.990254,139.828 179.570357,153.058667 L194,160.985333 Z" id="Fill-101" fill="#545658"></path>
            <path d="M141.152174,108.108108 C141.152174,130.496865 122.953009,148.648649 100.5,148.648649 C78.0469913,148.648649 59.8478261,130.496865 59.8478261,108.108108 C59.8478261,85.7193514 78.0469913,67.5675676 100.5,67.5675676 C122.953009,67.5675676 141.152174,85.7193514 141.152174,108.108108" id="Fill-106" fill="@color0"></path>
        </g>
    </g>
</svg>