<?xml version="1.0" encoding="UTF-8" standalone="no"?>
<svg width="200px" height="200px" viewBox="0 0 200 200" version="1.1" xmlns="http://www.w3.org/2000/svg" xmlns:xlink="http://www.w3.org/1999/xlink">
    <!-- Generator: Sketch 46.2 (44496) - http://www.bohemiancoding.com/sketch -->
    <title>smart-rules</title>
    <desc>Created with Sketch.</desc>
    <defs></defs>
    <g id="Page-1" stroke="none" stroke-width="1" fill="none" fill-rule="evenodd">
        <g id="smart-rules">
            <path d="M163.288,150.050667 C155.872,150.050667 149.858667,144.037333 149.858667,136.621333 C149.858667,129.204 155.872,123.190667 163.288,123.190667 C170.704,123.190667 176.717333,129.204 176.717333,136.621333 C176.717333,144.037333 170.704,150.050667 163.288,150.050667 L163.288,150.050667 Z M199.909333,141.553333 L199.909333,131.689333 L194.58,129.796 C192.546667,129.073333 190.910667,127.52 190.085333,125.526667 L190.084,125.525333 C189.256,123.528 189.314667,121.273333 190.242667,119.32 L192.669333,114.213333 L185.694667,107.24 L180.589333,109.666667 C178.637333,110.593333 176.38,110.652 174.382667,109.824 L174.38,109.824 C172.386667,108.997333 170.837333,107.364 170.114667,105.330667 L168.218667,100 L158.356,100 L156.461333,105.330667 C155.737333,107.361333 154.186667,108.998667 152.194667,109.824 L152.192,109.824 C150.196,110.652 147.94,110.594667 145.986667,109.666667 L140.88,107.24 L133.905333,114.213333 L136.333333,119.32 C137.26,121.272 137.317333,123.529333 136.489333,125.525333 L136.489333,125.528 C135.664,127.522667 134.030667,129.072 131.997333,129.796 L126.666667,131.689333 L126.666667,141.553333 L131.997333,143.448 C134.029333,144.170667 135.665333,145.721333 136.489333,147.713333 L136.489333,147.717333 C137.318667,149.713333 137.261333,151.968 136.333333,153.921333 L133.905333,159.028 L140.88,166.002667 L145.986667,163.577333 C147.938667,162.648 150.196,162.589333 152.192,163.417333 L152.194667,163.418667 C154.188,164.245333 155.736,165.877333 156.461333,167.910667 L158.356,173.241333 L168.218667,173.241333 L170.102667,167.945333 C170.832,165.894667 172.397333,164.244 174.406667,163.408 L174.410667,163.406667 C176.388,162.582667 178.621333,162.64 180.556,163.56 L185.694667,166.002667 L192.669333,159.026667 L190.241333,153.917333 C189.314667,151.968 189.257333,149.712 190.084,147.718667 L190.084,147.717333 C190.913333,145.721333 192.546667,144.170667 194.581333,143.445333 L199.909333,141.553333 Z" id="Fill-81" fill="@color0"></path>
            <path d="M103.942667,176.801333 C98.56,176.801333 94.196,172.438667 94.196,167.053333 C94.196,161.670667 98.56,157.308 103.942667,157.308 C109.325333,157.308 113.689333,161.670667 113.689333,167.053333 C113.689333,172.438667 109.325333,176.801333 103.942667,176.801333 L103.942667,176.801333 Z M128.778667,169.757333 L128.778667,164.350667 L125.016,163.409333 C124.236,163.214667 123.621333,162.609333 123.413333,161.833333 C123.412,161.829333 123.412,161.825333 123.410667,161.821333 C123.204,161.056 123.432,160.238667 124.001333,159.689333 L126.802667,156.978667 L124.098667,152.296 L120.386667,153.357333 C119.601333,153.581333 118.750667,153.362667 118.173333,152.785333 L118.173333,152.784 C117.618667,152.232 117.409333,151.422667 117.624,150.670667 L118.701333,146.897333 L114.018667,144.194667 L111.321333,146.982667 C110.762667,147.558667 109.934667,147.789333 109.16,147.582667 L109.148,147.58 C108.381333,147.376 107.785333,146.772 107.592,146 L106.646667,142.218667 L101.24,142.218667 L100.298667,145.982667 C100.102667,146.761333 99.4986667,147.377333 98.7213333,147.584 L98.7093333,147.588 C97.944,147.793333 97.128,147.565333 96.5773333,146.996 L93.8666667,144.194667 L89.184,146.897333 L90.2453333,150.610667 C90.4706667,151.396 90.2506667,152.245333 89.6746667,152.824 L89.6733333,152.825333 C89.12,153.38 88.3106667,153.589333 87.56,153.374667 L83.7866667,152.296 L81.0826667,156.978667 L83.8706667,159.674667 C84.448,160.233333 84.6786667,161.062667 84.4706667,161.837333 C84.4706667,161.841333 84.4693333,161.845333 84.4693333,161.849333 C84.264,162.616 83.6586667,163.213333 82.8893333,163.404 L79.1066667,164.350667 L79.1066667,169.757333 L82.8706667,170.7 C83.6506667,170.894667 84.2653333,171.498667 84.472,172.274667 C84.4733333,172.278667 84.4746667,172.284 84.4746667,172.288 C84.6826667,173.052 84.4546667,173.869333 83.8853333,174.421333 L81.0826667,177.130667 L83.7866667,181.814667 L87.4986667,180.752 C88.2853333,180.528 89.1346667,180.745333 89.712,181.322667 C89.7133333,181.324 89.7133333,181.325333 89.7133333,181.325333 C90.2666667,181.877333 90.476,182.686667 90.2626667,183.438667 L89.184,187.212 L93.8666667,189.914667 L96.564,187.125333 C97.1213333,186.549333 97.9506667,186.32 98.7253333,186.526667 C98.7306667,186.526667 98.7346667,186.528 98.7346667,186.528 C99.5053333,186.732 100.1,187.338667 100.293333,188.108 L101.24,191.890667 L106.646667,191.890667 L107.588,188.126667 C107.784,187.346667 108.388,186.732 109.164,186.525333 C109.168,186.522667 109.172,186.521333 109.172,186.521333 C109.941333,186.316 110.757333,186.542667 111.308,187.112 L114.018667,189.914667 L118.701333,187.212 L117.64,183.497333 C117.414667,182.713333 117.636,181.864 118.210667,181.285333 L118.213333,181.282667 C118.765333,180.729333 119.576,180.521333 120.326667,180.734667 L124.098667,181.814667 L126.802667,177.130667 L124.014667,174.434667 C123.437333,173.876 123.206667,173.046667 123.414667,172.272 C123.414667,172.268 123.416,172.264 123.417333,172.258667 C123.622667,171.492 124.228,170.897333 124.997333,170.704 L128.778667,169.757333 Z M68.8866667,102.150667 C54.9346667,102.150667 43.624,90.8386667 43.624,76.888 C43.624,62.936 54.9346667,51.624 68.8866667,51.624 C82.8386667,51.624 94.1493333,62.936 94.1493333,76.888 C94.1493333,90.8386667 82.8386667,102.150667 68.8866667,102.150667 L68.8866667,102.150667 Z M137.773333,86.1653333 L137.773333,67.6106667 L127.748,64.0466667 C123.925333,62.6866667 120.849333,59.768 119.297333,56.0186667 L119.294667,56.0146667 C117.736,52.2586667 117.845333,48.0173333 119.589333,44.344 L124.157333,34.7373333 L111.036,21.6173333 L101.433333,26.1826667 C97.7613333,27.928 93.5146667,28.0386667 89.76,26.4813333 L89.7546667,26.48 C86.004,24.9253333 83.0893333,21.852 81.7293333,18.0266667 L78.164,8 L59.6093333,8 L56.0426667,18.0266667 C54.684,21.848 51.7653333,24.9253333 48.0186667,26.48 L48.0133333,26.4813333 C44.2546667,28.04 40.0146667,27.9306667 36.3413333,26.184 L26.7373333,21.6173333 L13.616,34.7373333 L18.1813333,44.3413333 C19.9266667,48.012 20.0346667,52.26 18.4786667,56.016 C18.4773333,56.0173333 18.4773333,56.0173333 18.476,56.0213333 C16.9213333,59.7706667 13.8506667,62.6853333 10.0253333,64.0466667 L0,67.6106667 L0,86.1653333 L10.0253333,89.7306667 C13.848,91.0906667 16.924,94.0093333 18.4773333,97.7573333 L18.4786667,97.7613333 C20.0373333,101.518667 19.928,105.76 18.184,109.434667 L13.616,119.04 L26.7373333,132.158667 L36.3413333,127.594667 C40.012,125.848 44.2586667,125.738667 48.016,127.296 C48.0173333,127.297333 48.0186667,127.297333 48.02,127.297333 C51.7693333,128.853333 54.684,131.922667 56.044,135.749333 L59.6093333,145.773333 L78.1653333,145.773333 L81.708,135.813333 C83.08,131.954667 86.024,128.849333 89.804,127.277333 C89.8053333,127.276 89.8066667,127.276 89.8093333,127.274667 C93.5306667,125.728 97.732,125.834667 101.372,127.564 L111.036,132.158667 L124.157333,119.04 L119.588,109.428 C117.845333,105.76 117.737333,101.517333 119.293333,97.7666667 C119.294667,97.764 119.296,97.764 119.296,97.7613333 C120.852,94.008 123.925333,91.0906667 127.753333,89.728 L137.773333,86.1653333 Z" id="Fill-82" fill="#545658"></path>
        </g>
    </g>
</svg>