<?xml version="1.0" encoding="UTF-8" standalone="no"?>
<svg width="200px" height="200px" viewBox="0 0 200 200" version="1.1" xmlns="http://www.w3.org/2000/svg" xmlns:xlink="http://www.w3.org/1999/xlink">
    <!-- Generator: Sketch 46.2 (44496) - http://www.bohemiancoding.com/sketch -->
    <title>usage-statistics</title>
    <desc>Created with Sketch.</desc>
    <defs></defs>
    <g id="Page-1" stroke="none" stroke-width="1" fill="none" fill-rule="evenodd">
        <g id="usage-statistics">
            <path d="M100.916667,183.333333 L41.6666667,183.333333 L63.325,158.333333 L85.7916667,158.333333 C88.6666667,167.933333 93.925,176.5 100.916667,183.333333 Z M83.3333333,141.666667 L0,141.666667 L0,0 L183.333333,0 L183.333333,100.916667 C178.55,96.0333333 172.908333,92.0166667 166.666667,89.0416667 L166.666667,16.6666667 L16.6666667,16.6666667 L16.6666667,125 L85.7916667,125 C84.2083333,130.283333 83.3333333,135.875 83.3333333,141.666667 Z" id="Shape" fill="#545658" fill-rule="nonzero"></path>
            <path d="M65.575,105.233333 C64.9333333,109.183333 59.3166667,109.441667 58.3416667,105.541667 L49.65,70.4916667 L46.2666667,80.9666667 C45.8833333,82.25 44.4333333,83.3333333 43.1,83.3333333 L33.3333333,83.3333333 L33.3333333,76.1333333 L40.1916667,76.1333333 L46.2,54.925 C47.35,51.375 52.4,51.5833333 53.3083333,55.1666667 L61.3833333,85.1666667 L69.2833333,36.4416667 C69.6166667,34.3916667 71.2833333,33.3333333 72.95,33.3333333 C74.5166667,33.3333333 76.1,34.2833333 76.5333333,36.2166667 L86.0666667,78.4 L92.2416667,62.6083333 C93.4333333,59.525 97.775,59.4583333 99.075,62.4916667 L106.041667,76.025 L113.716667,76.025 L113.716667,83.3333333 L103.65,83.3333333 C101.366667,83.3333333 100.666667,82.4333333 100,81.025 L96.0083333,72.9083333 L88.55,92.3083333 C87.2083333,95.725 82.2916667,95.325 81.4916667,91.7833333 L73.45,57.2416667 L65.575,105.233333 Z M176.408333,164.616667 L176.408333,164.616667 L200,188.216667 L188.216667,200 L164.625,176.4 C158.033333,180.758333 150.158333,183.333333 141.666667,183.333333 C118.65,183.333333 100,164.675 100,141.666667 C100,118.658333 118.65,100 141.666667,100 C164.683333,100 183.333333,118.658333 183.333333,141.666667 C183.333333,150.158333 180.758333,158.033333 176.408333,164.616667 Z M141.666667,166.666667 C155.45,166.666667 166.666667,155.45 166.666667,141.666667 C166.666667,127.883333 155.45,116.666667 141.666667,116.666667 C127.883333,116.666667 116.666667,127.883333 116.666667,141.666667 C116.666667,155.45 127.883333,166.666667 141.666667,166.666667 Z" id="Combined-Shape" fill="@color0"></path>
        </g>
    </g>
</svg>