<?xml version="1.0" encoding="UTF-8" standalone="no"?>
<svg width="200px" height="200px" viewBox="0 0 200 200" version="1.1" xmlns="http://www.w3.org/2000/svg" xmlns:xlink="http://www.w3.org/1999/xlink">
    <!-- Generator: Sketch 46.2 (44496) - http://www.bohemiancoding.com/sketch -->
    <title>users</title>
    <desc>Created with Sketch.</desc>
    <defs></defs>
    <g id="Page-1" stroke="none" stroke-width="1" fill="none" fill-rule="evenodd">
        <g id="users">
            <path d="M199.974073,166.340741 L66.6888901,166.340741 L66.6666667,159.418134 C66.6666667,145.428468 67.7778395,137.350242 84.3120914,133.527807 C103.024242,129.205345 121.469711,125.349575 112.59144,108.981999 C86.3010908,60.5015279 105.102135,33 133.325926,33 C161.005241,33 180.28409,59.4792488 154.060411,108.993111 C145.448821,125.260681 163.238698,129.127563 182.33976,133.538919 C198.896235,137.361353 199.996296,145.450692 199.996296,159.462581 L199.974073,166.340741 Z" id="Shape" fill="#545658" fill-rule="nonzero"></path>
            <path d="M0.0222234569,166.340741 L50.0361131,166.340741 C49.8027668,111.826601 74.9930552,135.53903 74.9930552,92.1588422 C74.9930552,75.4134674 64.0702261,66.3351853 50.0138897,66.3351853 C29.2460692,66.3351853 14.8008223,86.191844 34.4685816,123.32724 C40.9244958,135.53903 27.5904217,138.428079 13.256292,141.739374 C0.822267904,144.6062 0,150.684316 0,161.196011 L0.0222234569,166.340741 L0.0222234569,166.340741 Z" id="Path" fill="@color0"></path>
        </g>
    </g>
</svg>