<?xml version="1.0" encoding="UTF-8" standalone="no"?>
<svg width="200px" height="200px" viewBox="0 0 200 200" version="1.1" xmlns="http://www.w3.org/2000/svg" xmlns:xlink="http://www.w3.org/1999/xlink">
    <!-- Generator: Sketch 46.2 (44496) - http://www.bohemiancoding.com/sketch -->
    <title>waste-bin</title>
    <desc>Created with Sketch.</desc>
    <defs></defs>
    <g id="Page-1" stroke="none" stroke-width="1" fill="none" fill-rule="evenodd">
        <g id="waste-bin">
            <path d="M75.6347305,158.333333 C75.6347305,162.933333 71.9461078,166.666667 67.4011976,166.666667 C62.8562874,166.666667 59.1676647,162.933333 59.1676647,158.333333 L59.1676647,75 C59.1676647,70.4 62.8562874,66.6666667 67.4011976,66.6666667 C71.9461078,66.6666667 75.6347305,70.4 75.6347305,75 L75.6347305,158.333333 Z M108.568862,158.333333 C108.568862,162.933333 104.88024,166.666667 100.335329,166.666667 C95.7904192,166.666667 92.1017964,162.933333 92.1017964,158.333333 L92.1017964,75 C92.1017964,70.4 95.7904192,66.6666667 100.335329,66.6666667 C104.88024,66.6666667 108.568862,70.4 108.568862,75 L108.568862,158.333333 Z M141.502994,158.333333 C141.502994,162.933333 137.814371,166.666667 133.269461,166.666667 C128.724551,166.666667 125.035928,162.933333 125.035928,158.333333 L125.035928,75 C125.035928,70.4 128.724551,66.6666667 133.269461,66.6666667 C137.814371,66.6666667 141.502994,70.4 141.502994,75 L141.502994,158.333333 Z M157.97006,50 L157.97006,183.333333 L42.7005988,183.333333 L42.7005988,50 L26.2335329,50 L26.2335329,200 L174.437126,200 L174.437126,50 L157.97006,50 Z" id="waste" fill="#545658" fill-rule="nonzero"></path>
            <path d="M182.670659,16.6666667 L182.670659,33.3333333 L18,33.3333333 L18,16.6666667 L65.0217066,16.6666667 C72.4318862,16.6666667 78.4505988,7.50833333 78.4505988,0 L122.211826,0 C122.211826,7.50833333 128.222305,16.6666667 135.640719,16.6666667 L182.670659,16.6666667 Z" id="Path" fill="@color0"></path>
        </g>
    </g>
</svg>