<?xml version="1.0" encoding="UTF-8" standalone="no"?>
<svg width="200px" height="200px" viewBox="0 0 200 200" version="1.1" xmlns="http://www.w3.org/2000/svg" xmlns:xlink="http://www.w3.org/1999/xlink">
    <!-- Generator: Sketch 46.2 (44496) - http://www.bohemiancoding.com/sketch -->
    <title>calendar</title>
    <desc>Created with Sketch.</desc>
    <defs></defs>
    <g id="Page-1" stroke="none" stroke-width="1" fill="none" fill-rule="evenodd">
        <g id="calendar">
            <path d="M200,16.6666667 L200,200 L0,200 L0,16.6666667 L25,16.6666667 L25,25 C25,34.1916667 32.475,41.6666667 41.6666667,41.6666667 C50.8583333,41.6666667 58.3333333,34.1916667 58.3333333,25 L58.3333333,16.6666667 L141.666667,16.6666667 L141.666667,25 C141.666667,34.1916667 149.141667,41.6666667 158.333333,41.6666667 C167.525,41.6666667 175,34.1916667 175,25 L175,16.6666667 L200,16.6666667 Z M183.333333,66.6666667 L16.6666667,66.6666667 L16.6666667,183.333333 L183.333333,183.333333 L183.333333,66.6666667 Z M166.666667,8.33333333 C166.666667,3.73333333 162.941667,0 158.333333,0 C153.725,0 150,3.73333333 150,8.33333333 L150,25 C150,29.6 153.725,33.3333333 158.333333,33.3333333 C162.941667,33.3333333 166.666667,29.6 166.666667,25 L166.666667,8.33333333 Z M50,25 C50,29.6 46.275,33.3333333 41.6666667,33.3333333 C37.0583333,33.3333333 33.3333333,29.6 33.3333333,25 L33.3333333,8.33333333 C33.3333333,3.73333333 37.0583333,0 41.6666667,0 C46.275,0 50,3.73333333 50,8.33333333 L50,25 Z" id="Shape" fill="white" fill-rule="nonzero"></path>
            <path d="M166.666667,166.666667 L133.333333,166.666667 L133.333333,133.333333 L166.666667,133.333333 L166.666667,166.666667 Z M66.6666667,83.3333333 L66.6666667,116.666667 L33.3333333,116.666667 L33.3333333,83.3333333 L66.6666667,83.3333333 Z M116.666667,133.333333 L116.666667,166.666667 L83.3333333,166.666667 L83.3333333,133.333333 L116.666667,133.333333 Z M66.6666667,133.333333 L66.6666667,166.666667 L33.3333333,166.666667 L33.3333333,133.333333 L66.6666667,133.333333 Z M166.666667,83.3333333 L166.666667,116.666667 L133.333333,116.666667 L133.333333,83.3333333 L166.666667,83.3333333 Z M116.666667,83.3333333 L116.666667,116.666667 L83.3333333,116.666667 L83.3333333,83.3333333 L116.666667,83.3333333 Z" id="Combined-Shape" fill="@color0"></path>
        </g>
    </g>
</svg>