<?xml version="1.0" encoding="UTF-8" standalone="no"?>
<svg width="200px" height="200px" viewBox="0 0 200 200" version="1.1" xmlns="http://www.w3.org/2000/svg" xmlns:xlink="http://www.w3.org/1999/xlink">
    <!-- Generator: Sketch 46.2 (44496) - http://www.bohemiancoding.com/sketch -->
    <title>device-protocols</title>
    <desc>Created with Sketch.</desc>
    <defs></defs>
    <g id="Page-1" stroke="none" stroke-width="1" fill="none" fill-rule="evenodd">
        <g id="device-protocols">
            <path d="M153,170 L184,170 L184,141 L153,141 L153,125 L116,154.5 L153,184 L153,170 Z M199.605333,14.9832252 L167.357635,47.1969078 L184.514511,64.3545128 L136.047964,112.810533 L87.6053333,64.3545128 L136.047964,15.9038059 L153.218126,33.0627394 L185.447224,0.810533333 L199.605333,14.9832252 Z" id="Combined-Shape" fill="@color0"></path>
            <path d="M79.329382,105.450656 L86.8486106,97.9324926 L101.910867,113.00452 L94.3956049,120.517394 L79.329382,105.450656 Z M40,26 L9,26 L9,55 L40,55 L40,69 L77,39.5 L40,10 L40,26 Z M86.8499328,83.8362667 L116,112.98072 L101.42695,127.555591 L110.971756,137.108656 L62.7519092,185.331474 L45.6786195,168.253633 L14.0825222,199.836267 L0,185.746652 L31.5960973,154.162696 L14.518841,137.083534 L62.7519092,88.8607164 L72.2980372,98.4084931 L86.8499328,83.8362667 Z" id="Combined-Shape" fill="white"></path>
        </g>
    </g>
</svg>