<?xml version="1.0" encoding="UTF-8" standalone="no"?>
<svg width="200px" height="200px" viewBox="0 0 200 200" version="1.1" xmlns="http://www.w3.org/2000/svg" xmlns:xlink="http://www.w3.org/1999/xlink">
    <!-- Generator: Sketch 46.2 (44496) - http://www.bohemiancoding.com/sketch -->
    <title>device-control</title>
    <desc>Created with Sketch.</desc>
    <defs></defs>
    <g id="Page-1" stroke="none" stroke-width="1" fill="none" fill-rule="evenodd">
        <g id="device-control">
            <path d="M95.8211921,57.7721854 L105.466225,57.7721854 L105.466225,31.7324503 L95.8211921,31.7324503 L95.8211921,57.7721854 Z M153.687417,57.7721854 L163.331126,57.7721854 L163.331126,31.7324503 L153.687417,31.7324503 L153.687417,57.7721854 Z M134.398675,50.0569536 L144.043709,50.0569536 L144.043709,31.7324503 L134.398675,31.7324503 L134.398675,50.0569536 Z M115.109934,50.0569536 L124.753642,50.0569536 L124.753642,31.7324503 L115.109934,31.7324503 L115.109934,50.0569536 Z M76.5324503,50.0569536 L86.1761589,50.0569536 L86.1761589,31.7324503 L76.5324503,31.7324503 L76.5324503,50.0569536 Z M57.2437086,50.0569536 L66.8874172,50.0569536 L66.8874172,31.7324503 L57.2437086,31.7324503 L57.2437086,50.0569536 Z M37.9536424,57.7721854 L47.5986755,57.7721854 L47.5986755,31.7324503 L37.9536424,31.7324503 L37.9536424,57.7721854 Z" id="Fill-97" fill="@color0"></path>
            <path d="M107.152848,135.651258 C107.152848,139.24596 104.23894,142.161192 100.642914,142.161192 C97.0482119,142.161192 94.1329801,139.24596 94.1329801,135.651258 C94.1329801,132.055232 97.0482119,129.141325 100.642914,129.141325 C104.23894,129.141325 107.152848,132.055232 107.152848,135.651258 L107.152848,135.651258 Z M180.690596,99.7254305 L122.914437,99.7254305 L100.642914,67.7386755 L78.3713907,99.7254305 L20.5939073,99.7254305 L20.5939073,38.9651656 C20.5939073,28.3121854 29.2296689,19.6764238 39.882649,19.6764238 L161.403179,19.6764238 C172.056159,19.6764238 180.690596,28.3121854 180.690596,38.9651656 L180.690596,99.7254305 Z M100.642914,174.116159 C86.1886093,174.116159 74.4733775,162.398278 74.4733775,147.945298 C74.4733775,133.492318 86.1886093,121.774437 100.642914,121.774437 C115.095894,121.774437 126.813775,133.492318 126.813775,147.945298 C126.813775,162.398278 115.095894,174.116159 100.642914,174.116159 L100.642914,174.116159 Z M163.813775,0.387682119 L37.472053,0.387682119 C17.4972185,0.387682119 1.30516556,16.5797351 1.30516556,36.5545695 L1.30516556,162.896291 C1.30516556,182.869801 17.4972185,199.063179 37.472053,199.063179 L163.813775,199.063179 C183.788609,199.063179 199.980662,182.869801 199.980662,162.896291 L199.980662,36.5545695 C199.980662,16.5797351 183.788609,0.387682119 163.813775,0.387682119 L163.813775,0.387682119 Z" id="Fill-98" fill="white"></path>
        </g>
    </g>
</svg>