<?xml version="1.0" encoding="UTF-8" standalone="no"?>
<svg width="200px" height="200px" viewBox="0 0 200 200" version="1.1" xmlns="http://www.w3.org/2000/svg" xmlns:xlink="http://www.w3.org/1999/xlink">
    <!-- Generator: Sketch 46.2 (44496) - http://www.bohemiancoding.com/sketch -->
    <title>energy</title>
    <desc>Created with Sketch.</desc>
    <defs></defs>
    <g id="Page-1" stroke="none" stroke-width="1" fill="none" fill-rule="evenodd">
        <g id="energy">
            <polygon id="Fill-8" fill="@color0" points="76.7249499 158.666667 98.0278125 109.530667 54.6666667 117.232 122.775933 38.6666667 102.178579 86.5586667 145.333333 80.3173333"></polygon>
            <path d="M100,0 C44.7706667,0 0,44.7706667 0,100 C0,155.229333 44.7706667,200 100,200 C155.229333,200 200,155.229333 200,100 C200,44.7706667 155.229333,0 100,0 M100,19.4173333 C144.534667,19.4173333 180.584,55.456 180.584,100 C180.584,144.533333 144.542667,180.582667 100,180.582667 C55.4653333,180.582667 19.416,144.542667 19.416,100 C19.416,55.4666667 55.4586667,19.4173333 100,19.4173333" id="Fill-10" fill="white"></path>
        </g>
    </g>
</svg>