<?xml version="1.0" encoding="UTF-8" standalone="no"?>
<svg width="200px" height="200px" viewBox="0 0 200 200" version="1.1" xmlns="http://www.w3.org/2000/svg" xmlns:xlink="http://www.w3.org/1999/xlink">
    <!-- Generator: Sketch 46.2 (44496) - http://www.bohemiancoding.com/sketch -->
    <title>event-processing</title>
    <desc>Created with Sketch.</desc>
    <defs></defs>
    <g id="Page-1" stroke="none" stroke-width="1" fill="none" fill-rule="evenodd">
        <g id="event-processing">
            <g id="Group">
                <path d="M50.3583333,137.466667 L38,150.008333 C14.75,131.666667 0,104.9 0,75 C0,45.1 14.75,18.3333333 38.0083333,0 L50.3666667,12.5333333 C30.975,27.825 18.6583333,50.1333333 18.6583333,75 C18.6583333,99.8666667 30.975,122.175 50.3583333,137.466667 Z M55.9833333,75 C55.9833333,60.075 63.375,46.6833333 75,37.5166667 L62.6583333,25 C47.1583333,37.225 37.325,55.0666667 37.325,75 C37.325,94.9333333 47.1583333,112.775 62.6583333,125 L75,112.483333 C63.3666667,103.316667 55.9833333,89.925 55.9833333,75 Z M162,0 L149.641667,12.5333333 C169.025,27.825 181.341667,50.1333333 181.341667,75 C181.341667,99.8666667 169.025,122.175 149.641667,137.466667 L162,150.008333 C185.25,131.666667 200,104.9 200,75 C200,45.1 185.25,18.3333333 162,0 Z M137.341667,25 L125,37.5166667 C136.633333,46.6916667 144.016667,60.075 144.016667,75 C144.016667,89.925 136.633333,103.316667 125,112.483333 L137.341667,125 C152.841667,112.775 162.675,94.9333333 162.675,75 C162.675,55.0666667 152.85,37.225 137.341667,25 Z" id="Shape" fill="white" fill-rule="nonzero"></path>
                <circle id="Path" fill="@color0" cx="99.6666667" cy="75.6666667" r="25"></circle>
                <path d="M100.621333,176.717333 C93.2053333,176.717333 87.192,170.704 87.192,163.288 C87.192,155.870667 93.2053333,149.857333 100.621333,149.857333 C108.037333,149.857333 114.050667,155.870667 114.050667,163.288 C114.050667,170.704 108.037333,176.717333 100.621333,176.717333 L100.621333,176.717333 Z M137.242667,168.22 L137.242667,158.356 L131.913333,156.462667 C129.88,155.74 128.244,154.186667 127.418667,152.193333 L127.417333,152.192 C126.589333,150.194667 126.648,147.94 127.576,145.986667 L130.002667,140.88 L123.028,133.906667 L117.922667,136.333333 C115.970667,137.26 113.713333,137.318667 111.716,136.490667 L111.713333,136.490667 C109.72,135.664 108.170667,134.030667 107.448,131.997333 L105.552,126.666667 L95.6893333,126.666667 L93.7946667,131.997333 C93.0706667,134.028 91.52,135.665333 89.528,136.490667 L89.5253333,136.490667 C87.5293333,137.318667 85.2733333,137.261333 83.32,136.333333 L78.2133333,133.906667 L71.2386667,140.88 L73.6666667,145.986667 C74.5933333,147.938667 74.6506667,150.196 73.8226667,152.192 L73.8226667,152.194667 C72.9973333,154.189333 71.364,155.738667 69.3306667,156.462667 L64,158.356 L64,168.22 L69.3306667,170.114667 C71.3626667,170.837333 72.9986667,172.388 73.8226667,174.38 L73.8226667,174.384 C74.652,176.38 74.5946667,178.634667 73.6666667,180.588 L71.2386667,185.694667 L78.2133333,192.669333 L83.32,190.244 C85.272,189.314667 87.5293333,189.256 89.5253333,190.084 L89.528,190.085333 C91.5213333,190.912 93.0693333,192.544 93.7946667,194.577333 L95.6893333,199.908 L105.552,199.908 L107.436,194.612 C108.165333,192.561333 109.730667,190.910667 111.74,190.074667 L111.744,190.073333 C113.721333,189.249333 115.954667,189.306667 117.889333,190.226667 L123.028,192.669333 L130.002667,185.693333 L127.574667,180.584 C126.648,178.634667 126.590667,176.378667 127.417333,174.385333 L127.417333,174.384 C128.246667,172.388 129.88,170.837333 131.914667,170.112 L137.242667,168.22 Z" id="Fill-81" fill="@color0" transform="translate(100.621333, 163.287333) scale(1, -1) translate(-100.621333, -163.287333) "></path>
            </g>
        </g>
    </g>
</svg>