<?xml version="1.0" encoding="UTF-8" standalone="no"?>
<svg width="200px" height="200px" viewBox="0 0 200 200" version="1.1" xmlns="http://www.w3.org/2000/svg" xmlns:xlink="http://www.w3.org/1999/xlink">
    <!-- Generator: Sketch 46.2 (44496) - http://www.bohemiancoding.com/sketch -->
    <title>group-remote-inactive</title>
    <desc>Created with Sketch.</desc>
    <defs></defs>
    <g id="Page-1" stroke="none" stroke-width="1" fill="none" fill-rule="evenodd">
        <g id="group-remote-inactive" fill-rule="nonzero">
            <path d="M158.666667,97.3333333 C135.840333,97.3333333 117.333333,115.840333 117.333333,138.666667 C117.333333,161.493 135.840333,180 158.666667,180 C181.493,180 200,161.493 200,138.666667 C200,115.840333 181.493,97.3333333 158.666667,97.3333333 Z M178.403333,166.852556 C178.038222,165.040778 177.590444,163.249667 177.032444,161.496444 C180.122111,158.703 179.994667,153.929 176.784444,151.566111 C178.789111,143.581889 178.885556,134.864 176.777556,126.463 C177.418222,126.080667 177.976222,125.588111 178.413667,124.999111 C183.463222,126.418222 188.164889,128.670889 192.370556,131.581444 C192.852778,133.872 193.111111,136.238333 193.111111,138.666667 C193.111111,150.315778 187.283111,160.614667 178.403333,166.852556 L178.403333,166.852556 Z M124.222222,138.666667 C124.222222,135.721667 124.635556,132.873111 125.334778,130.141667 C127.742444,129.990111 130.132889,130.003889 132.73,130.251889 L132.867778,131.030333 C129.695444,133.699778 126.84,136.751556 124.301444,140.240778 L124.222222,138.666667 L124.222222,138.666667 Z M135.185889,134.567778 C138.106778,136.782556 142.360667,136.069556 144.355,132.88 C154.337,136.531111 162.744889,143.478556 168.259444,152.396222 C165.621,155.065667 165.655444,159.278222 168.324889,161.679 C165.979222,165.919111 162.992889,169.756222 159.507111,173.069778 C142.622444,173.472778 128.768889,161.834 125.169444,146.557889 C127.828556,142.025 131.214444,137.967444 135.185889,134.567778 Z M145.126556,128.019889 C151.984444,124.665 159.438222,123.087444 166.909222,123.276889 C167.959778,125.381444 170.112556,126.983111 172.647667,127.293111 L172.668333,127.293111 C174.586889,134.722778 174.676444,142.696667 172.768222,150.370889 L172.000111,150.450111 C166.061889,140.719556 156.730889,132.776667 145.260889,128.746667 L145.126556,128.019889 L145.126556,128.019889 Z M166.006778,172.305111 C168.424778,169.491 170.522444,166.466778 172.251556,163.256556 L173.181556,163.229 C173.774,165.164778 174.242444,167.152222 174.586889,169.184444 C171.910556,170.582889 169.034444,171.643778 166.006778,172.305111 L166.006778,172.305111 Z M190.472667,125.467556 C186.997222,123.538667 183.322,122.016222 179.488333,120.951889 C179.116333,117.524667 175.902667,114.669222 172.189556,114.696778 C170.288222,111.186889 167.946,107.894 165.218,104.866333 C176.657,107.077667 186.094778,114.958556 190.472667,125.467556 Z M168.180222,116.14 C167.295,116.897778 166.654333,117.913889 166.375333,119.095333 C157.915778,118.992 149.917778,120.907111 142.787778,124.485889 C139.86,122.288333 135.657778,123.035778 133.673778,126.149556 C131.166222,125.887778 128.923889,125.832667 126.702222,125.901556 C131.786222,113.215667 144.186222,104.222222 158.666667,104.222222 L158.670111,104.222222 C162.448667,107.646 165.676111,111.662222 168.180222,116.14 L168.180222,116.14 Z" id="Shape" fill="@color0"></path>
            <path d="M190,52.6886725 L84.9946667,52.6886725 C76.1481342,52.6886725 67.6644152,49.1749374 61.3998658,42.9195584 L48.4598346,30 L10,30 L10,170 L98.0926657,170 C85.2213995,144.438182 89.3857227,112.435412 110.748181,91.0156615 C132.207226,69.4952789 164.382377,65.3323155 190,78.5287812 L190,52.6886725 Z M0,180 L0,20 L52.5973333,20 L68.4653333,35.8428947 C72.856,40.2271341 78.7986667,42.6886725 84.9946667,42.6886725 L200,42.6886725 L200,98.0993607 C177.273333,75.3077341 140.528,75.3130824 117.829333,98.0766306 C95.0826667,120.884302 95.3333333,157.408933 117.388,180 L0,180 Z" id="Fill-122-Copy" fill="white"></path>
        </g>
    </g>
</svg>