<?xml version="1.0" encoding="UTF-8" standalone="no"?>
<svg width="200px" height="200px" viewBox="0 0 200 200" version="1.1" xmlns="http://www.w3.org/2000/svg" xmlns:xlink="http://www.w3.org/1999/xlink">
    <!-- Generator: Sketch 46.2 (44496) - http://www.bohemiancoding.com/sketch -->
    <title>group-remote-open</title>
    <desc>Created with Sketch.</desc>
    <defs></defs>
    <g id="Page-1" stroke="none" stroke-width="1" fill="none" fill-rule="evenodd">
        <g id="group-remote-open">
            <path d="M192.515753,123.980938 L200,75.3333333 L0,75.3333333 L16.6666667,183.666667 L111.281737,183.666667 C103.591371,176.337232 99,167.072537 99,156.998605 C99,133.251857 124.518469,114 156.000925,114 C169.893631,114 182.625769,117.749827 192.515753,123.980938 Z" id="Combined-Shape" fill="white"></path>
            <path d="M156.5,126 C133.581625,126 115,139.88025 115,157 C115,174.11975 133.581625,188 156.5,188 C179.418375,188 198,174.11975 198,157 C198,139.88025 179.418375,126 156.5,126 Z M176.31625,178.139417 C175.949667,176.780583 175.500083,175.43725 174.939833,174.122333 C178.041958,172.02725 177.914,168.44675 174.690833,166.674583 C176.703583,160.686417 176.800417,154.148 174.683917,147.84725 C175.327167,147.5605 175.887417,147.191083 176.326625,146.749333 C181.396542,147.813667 186.117167,149.503167 190.339792,151.686083 C190.823958,153.404 191.083333,155.17875 191.083333,157 C191.083333,165.736833 185.231833,173.461 176.31625,178.139417 L176.31625,178.139417 Z M121.916667,157 C121.916667,154.79125 122.331667,152.654833 123.033708,150.60625 C125.451083,150.492583 127.851167,150.502917 130.45875,150.688917 L130.597083,151.27275 C127.411958,153.274833 124.545,155.563667 121.996208,158.180583 L121.916667,157 L121.916667,157 Z M132.924542,153.925833 C135.857208,155.586917 140.12825,155.052167 142.130625,152.66 C152.152875,155.398333 160.594667,160.608917 166.131458,167.297167 C163.482375,169.29925 163.516958,172.458667 166.197167,174.25925 C163.842042,177.439333 160.843667,180.317167 157.343833,182.802333 C140.391083,183.104583 126.481667,174.3755 122.867708,162.918417 C125.537542,159.51875 128.937083,156.475583 132.924542,153.925833 Z M142.905292,149.014917 C149.790833,146.49875 157.274667,145.315583 164.775792,145.457667 C165.830583,147.036083 167.992042,148.237333 170.537375,148.469833 L170.558125,148.469833 C172.484417,154.042083 172.574333,160.0225 170.658417,165.778167 L169.887208,165.837583 C163.925042,158.539667 154.556417,152.5825 143.040167,149.56 L142.905292,149.014917 L142.905292,149.014917 Z M163.869708,182.228833 C166.297458,180.11825 168.403583,177.850083 170.139667,175.442417 L171.073417,175.42175 C171.66825,176.873583 172.138583,178.364167 172.484417,179.888333 C169.797292,180.937167 166.909583,181.732833 163.869708,182.228833 L163.869708,182.228833 Z M188.43425,147.100667 C184.944792,145.654 181.25475,144.512167 177.405625,143.713917 C177.032125,141.1435 173.8055,139.001917 170.077417,139.022583 C168.168417,136.390167 165.81675,133.9205 163.07775,131.64975 C174.562875,133.30825 184.038708,139.218917 188.43425,147.100667 Z M166.051917,140.105 C165.163125,140.673333 164.519875,141.435417 164.23975,142.3215 C155.746083,142.244 147.715833,143.680333 140.557083,146.364417 C137.6175,144.71625 133.398333,145.276833 131.406333,147.612167 C128.888667,147.415833 126.637292,147.3745 124.406667,147.426167 C129.511167,137.91175 141.961167,131.166667 156.5,131.166667 L156.503458,131.166667 C160.29725,133.7345 163.537708,136.746667 166.051917,140.105 L166.051917,140.105 Z" id="Shape" fill="@color0" fill-rule="nonzero"></path>
            <path d="M66.4333333,17 L8.33333333,17 L14.2833333,58.6666667 L31.125,58.6666667 L27.55,33.6666667 L58.3333333,33.6666667 C67.6,45.2333333 74.6,50.3333333 93.975,50.3333333 L171.333333,50.3333333 L169.666667,58.6666667 L186.666667,58.6666667 L191.666667,33.6666667 L93.975,33.6666667 C77.4916667,33.6666667 76.9666667,30.1916667 66.4333333,17 L66.4333333,17 Z" id="Path" fill="@color0"></path>
        </g>
    </g>
</svg>