<?xml version="1.0" encoding="UTF-8" standalone="no"?>
<svg width="200px" height="200px" viewBox="0 0 200 200" version="1.1" xmlns="http://www.w3.org/2000/svg" xmlns:xlink="http://www.w3.org/1999/xlink">
    <!-- Generator: Sketch 46.2 (44496) - http://www.bohemiancoding.com/sketch -->
    <title>java</title>
    <desc>Created with Sketch.</desc>
    <defs></defs>
    <g id="Page-1" stroke="none" stroke-width="1" fill="none" fill-rule="evenodd">
        <g id="java" fill-rule="nonzero">
            <path d="M75.7923421,153.258074 C46.1191,161.551995 93.8419053,178.675158 131.627242,162.494647 C125.437021,160.080116 121.009195,157.295837 121.009195,157.295837 C104.148105,160.492526 96.3366842,160.739363 81.0449895,158.993221 C68.4187263,157.547753 75.7923421,153.258074 75.7923421,153.258074 Z M71.1765947,132.124574 C38.4884895,142.972189 89.3653211,155.282542 135.043342,141.921863 C130.191932,140.214321 127.102916,137.081626 127.102916,137.081626 C104.779926,141.381463 91.8763526,141.2423 75.5404263,139.556089 C62.9029895,138.249784 71.1765947,132.124574 71.1765947,132.124574 Z M160.069347,168.887011 C160.069347,168.887011 165.520074,173.390005 154.056889,176.865021 C132.242811,183.472732 63.2900053,185.464695 44.1312,177.122016 C37.2512579,174.1295 50.1609263,169.974921 54.2251,169.101342 C58.4599263,168.180021 60.8805526,168.346611 60.8805526,168.346611 C53.2235316,162.964958 11.3801158,178.948405 39.6292211,183.530632 C116.656537,196.017732 180.046879,177.898079 160.069347,168.887011 Z M79.3425263,110.235326 C79.3425263,110.235326 44.2663,118.566832 66.9204368,121.592868 C76.4881579,122.866668 95.5504632,122.583263 113.315605,121.100211 C127.836316,119.874153 142.411879,117.2717 142.411879,117.2717 C142.411879,117.2717 137.293316,119.460726 133.5867,121.983947 C97.9649947,131.358668 29.1554158,126.999916 48.9612789,117.410863 C65.7207895,109.3201 79.3425263,110.235326 79.3425263,110.235326 Z M142.266621,145.414147 C142.101047,145.858047 141.533221,146.3568 141.533221,146.355784 C189.893942,133.645211 172.111532,101.545247 149.002321,109.673595 C146.967695,110.390742 145.902132,112.050542 145.902132,112.050542 C145.902132,112.050542 147.182026,111.547726 150.046553,110.942316 C161.735242,108.506453 178.473421,126.588521 142.266621,145.414147 Z M82.9028684,196.392558 C117.658105,198.619168 171.029716,195.155326 172.288279,178.712742 C172.288279,178.712742 169.861558,184.944611 143.567847,189.903695 C113.904763,195.476316 77.3180579,194.829258 55.6116526,191.246568 C55.6116526,191.246568 60.0557316,194.930837 82.9028684,196.392558 Z" id="Combined-Shape" fill="white"></path>
            <path d="M110.097584,96.2773632 C78.5441158,59.9263211 144.611063,43.4248211 144.612079,43.4248211 C102.520811,67.8291632 110.296679,74.9132789 120.437305,89.1668368 C131.29,104.442279 107.650547,116.644958 107.650547,116.644958 C107.650547,116.644958 119.403232,106.996989 110.097584,96.2773632 Z M120.437305,4 C120.437305,4 140.483911,24.0577789 101.412584,54.9093368 C70.0785263,79.656 94.2705684,93.7602368 101.401411,109.881832 C83.1121211,93.3803316 69.6884632,78.8586053 78.6944526,65.3343842 C91.9149526,45.4858579 128.521974,35.8632842 120.437305,4 Z" id="Combined-Shape" fill="@color0"></path>
        </g>
    </g>
</svg>