<?xml version="1.0" encoding="UTF-8" standalone="no"?>
<svg width="200px" height="200px" viewBox="0 0 200 200" version="1.1" xmlns="http://www.w3.org/2000/svg" xmlns:xlink="http://www.w3.org/1999/xlink">
    <!-- Generator: Sketch 46.2 (44496) - http://www.bohemiancoding.com/sketch -->
    <title>location</title>
    <desc>Created with Sketch.</desc>
    <defs></defs>
    <g id="Page-1" stroke="none" stroke-width="1" fill="none" fill-rule="evenodd">
        <g id="location">
            <path d="M99.44,73.5306667 C88.5253333,73.5306667 79.6773333,64.6813333 79.6773333,53.7693333 C79.6773333,42.856 88.5253333,34.0066667 99.44,34.0066667 C110.357333,34.0066667 119.202667,42.8573333 119.202667,53.7693333 C119.202667,64.684 110.357333,73.5306667 99.44,73.5306667 M99.44,0 C69.0066667,0 44.3333333,24.6706667 44.3333333,55.108 C44.3333333,85.5413333 68.4506667,120.910667 99.44,173.973333 C130.428,120.910667 154.546667,85.5413333 154.546667,55.108 C154.546667,24.6706667 129.874667,0 99.44,0" id="Fill-34" fill="white"></path>
            <path d="M159.638667,169.833333 C159.638667,175.024 157.028,184.796 139.546667,191.926667 C117.078667,201.092 81.576,201.101333 59.0933333,191.926667 C41.6106667,184.794667 39,175.022667 39,169.833333 C39,156.765333 53.4106667,149.084 65.9786667,145.333333 C68.4133333,149.462667 70.928,153.696 73.52,158.06 C73.5946667,158.186667 73.668,158.310667 73.744,158.437333 C31.328,168.942667 65.752,184.072 99.32,184.072 C132.852,184.072 167.268,168.930667 124.893333,158.437333 C124.969333,158.310667 125.045333,158.186667 125.118667,158.06 C127.712,153.697333 130.225333,149.462667 132.661333,145.333333 C145.233333,149.088 159.638667,156.768 159.638667,169.833333" id="Fill-36" fill="@color0"></path>
        </g>
    </g>
</svg>