<?xml version="1.0" encoding="UTF-8" standalone="no"?>
<svg width="200px" height="200px" viewBox="0 0 200 200" version="1.1" xmlns="http://www.w3.org/2000/svg" xmlns:xlink="http://www.w3.org/1999/xlink">
    <!-- Generator: Sketch 46.2 (44496) - http://www.bohemiancoding.com/sketch -->
    <title>mobile-add</title>
    <desc>Created with Sketch.</desc>
    <defs></defs>
    <g id="Page-1" stroke="none" stroke-width="1" fill="none" fill-rule="evenodd">
        <g id="mobile-add">
            <path d="M99.3340039,184.564 C92.8330754,184.564 87.5612579,179.304 87.5612579,172.816 C87.5612579,166.328 92.8330754,161.068 99.3340039,161.068 C105.833596,161.068 111.105414,166.328 111.105414,172.816 C111.105414,179.304 105.833596,184.564 99.3340039,184.564 M150.125681,95.7026667 C147.154439,95.7026667 144.220604,95.4653333 141.341545,95.0053333 L141.341545,148.357333 L57.3251267,148.357333 L57.3251267,27.94 L96.6833993,27.94 C99.2645324,17.204 105.046698,7.52133333 113.432709,0 L51.7740872,0 C45.2718227,0 40.0000052,5.26133333 40.0000052,11.752 C40.0000052,11.752 40.0040132,167.013333 40.0000052,173.049333 C39.9839733,198.034667 76.9842231,199.985333 99.2511725,200 C121.519458,200.014667 158.666667,198.097333 158.666667,173.049333 L158.666667,95.044 C155.866431,95.4786667 153.012756,95.7026667 150.125681,95.7026667" id="Fill-120" fill="white"></path>
            <path d="M177.402114,50.1775514 L159.511677,50.1775514 L159.511677,68.0690394 L145.692551,68.0690394 L145.692551,50.1775514 L127.802114,50.1775514 L127.802114,36.3599909 L145.692551,36.3599909 L145.692551,18.468503 L159.511677,18.468503 L159.511677,36.3599909 L177.402114,36.3599909 L177.402114,50.1775514 Z M152.000671,1.33333333 C129.171287,1.33333333 110.666667,19.8389947 110.666667,42.6653257 C110.666667,65.4943386 129.171287,84 152.000671,84 C174.827372,84 193.333333,65.4943386 193.333333,42.6653257 C193.333333,19.8389947 174.827372,1.33333333 152.000671,1.33333333 L152.000671,1.33333333 Z" id="Fill-121" fill="@color0"></path>
        </g>
    </g>
</svg>