<?xml version="1.0" encoding="UTF-8" standalone="no"?>
<svg width="200px" height="200px" viewBox="0 0 200 200" version="1.1" xmlns="http://www.w3.org/2000/svg" xmlns:xlink="http://www.w3.org/1999/xlink">
    <!-- Generator: Sketch 46.2 (44496) - http://www.bohemiancoding.com/sketch -->
    <title>administration</title>
    <desc>Created with Sketch.</desc>
    <defs></defs>
    <g id="Page-1" stroke="none" stroke-width="1" fill="none" fill-rule="evenodd">
        <g id="administration">
            <path d="M100,144.678667 C75.3173333,144.678667 55.3173333,124.678667 55.3173333,100 C55.3173333,75.3186667 75.3173333,55.3173333 100,55.3173333 C124.677333,55.3173333 144.68,75.3173333 144.68,100 C144.68,124.678667 124.677333,144.678667 100,144.678667 L100,144.678667 Z M190.638667,80.8506667 L171.658667,79.6586667 C170.041333,73.916 167.745333,68.4666667 164.852,63.4026667 L177.62,49.4453333 C181.276,45.7853333 181.276,39.872 177.62,36.212 L163.789333,22.3826667 C160.128,18.7213333 154.213333,18.7213333 150.552,22.3826667 L136.593333,35.1466667 C131.533333,32.256 126.082667,29.9573333 120.338667,28.3426667 L119.148,9.36266667 C119.148,4.17066667 114.976,0 109.786667,0 L90.2106667,0 C85.024,0 80.8493333,4.17066667 80.8493333,9.36266667 L79.6586667,28.3426667 C73.9173333,29.9573333 68.4666667,32.256 63.4066667,35.1466667 L49.4453333,22.3826667 C45.784,18.7213333 39.872,18.7213333 36.2106667,22.3826667 L22.3826667,36.212 C18.724,39.8733333 18.724,45.7853333 22.3826667,49.4453333 L35.148,63.4026667 C32.2546667,68.4666667 29.9586667,73.916 28.3386667,79.6586667 L9.364,80.8506667 C4.172,80.8506667 0,85.02 0,90.212 L0,109.785333 C0,114.978667 4.172,119.145333 9.364,119.145333 L28.3386667,120.34 C29.9586667,126.082667 32.2546667,131.533333 35.148,136.596 L22.3826667,150.550667 C18.724,154.212 18.724,160.126667 22.3826667,163.788 L36.2106667,177.616 C39.872,181.274667 45.784,181.274667 49.4453333,177.616 L63.4066667,164.850667 C68.4666667,167.741333 73.9173333,170.042667 79.6586667,171.657333 L80.8493333,190.637333 C80.8493333,195.829333 85.024,199.998667 90.2106667,199.998667 L109.786667,199.998667 C114.976,199.998667 119.148,195.826667 119.148,190.637333 L120.338667,171.657333 C126.085333,170.04 131.533333,167.741333 136.593333,164.850667 L150.552,177.616 C154.213333,181.274667 160.128,181.274667 163.789333,177.616 L177.62,163.788 C181.276,160.126667 181.276,154.212 177.62,150.550667 L164.852,136.596 C167.745333,131.533333 170.044,126.082667 171.658667,120.34 L190.638667,119.145333 C195.825333,119.145333 200,114.978667 200,109.785333 L200,90.212 C200,85.02 195.825333,80.8506667 190.638667,80.8506667 L190.638667,80.8506667 Z M100,72.3413333 C84.724,72.3413333 72.3413333,84.7253333 72.3413333,100 C72.3413333,115.274667 84.724,127.657333 100,127.657333 C115.273333,127.657333 127.658667,115.274667 127.658667,100 C127.658667,84.724 115.273333,72.3413333 100,72.3413333 L100,72.3413333 Z" id="Fill-4" fill="#545658"></path>
            <path d="M100.001323,84 C108.836571,84 116,91.1631329 116,100.000661 C116,108.836867 108.836571,116 100.001323,116 C91.1634289,116 84,108.836867 84,100.000661 C84,91.1631329 91.1634289,84 100.001323,84" id="Fill-6" fill="@color0"></path>
        </g>
    </g>
</svg>