<?xml version="1.0" encoding="UTF-8" standalone="no"?>
<svg width="200px" height="200px" viewBox="0 0 200 200" version="1.1" xmlns="http://www.w3.org/2000/svg" xmlns:xlink="http://www.w3.org/1999/xlink">
    <!-- Generator: Sketch 46.2 (44496) - http://www.bohemiancoding.com/sketch -->
    <title>alarm</title>
    <desc>Created with Sketch.</desc>
    <defs></defs>
    <g id="Page-1" stroke="none" stroke-width="1" fill="none" fill-rule="evenodd">
        <g id="alarm">
            <path d="M125.896058,32.875 C120.50875,29.7583333 117.179327,23.9583333 117.187692,17.7083333 L117.187692,17.6833333 C117.196058,7.91666667 109.340962,-1.42108547e-14 99.6538462,-1.42108547e-14 C89.9667308,-1.42108547e-14 82.1116346,7.91666667 82.1116346,17.6833333 L82.1116346,17.7083333 C82.12,23.9666667 78.7989423,29.7583333 73.4032692,32.875 C34.3620192,55.475 56.7979808,130.5 16,143.758333 L16,158.333333 L183.307692,158.333333 L183.307692,143.758333 C142.509712,130.5 164.945673,55.475 125.896058,32.875 L125.896058,32.875 Z M99.6538462,8.33333333 C104.271538,8.33333333 108.019231,12.075 108.019231,16.6666667 C108.019231,21.2666667 104.271538,25 99.6538462,25 C95.0361538,25 91.2884615,21.2666667 91.2884615,16.6666667 C91.2884615,12.075 95.0361538,8.33333333 99.6538462,8.33333333 Z M124.75,175 C124.75,188.316667 113.105385,200 99.8964423,200 C86.6875,200 74.5576923,188.316667 74.5576923,175 L124.75,175 Z" id="Shape" fill="#545658" fill-rule="nonzero"></path>
            <path d="M0,74.4466653 C0,57.798506 8.407983,41.5709671 23.5490188,32.3846154 L28.5238115,40.7549633 C19.9991667,45.9285955 13.4244406,54.3998923 10.824549,64.9238172 C8.23299029,75.4477421 10.1162452,86.0389663 15.2410316,94.6532741 L6.95804341,99.6838953 C2.49156285,92.1800256 0,83.4815936 0,74.4466653 Z M37.0317903,55.0308231 C32.1236615,58.0172286 28.3404858,62.888014 26.8488813,68.9449492 C25.3489438,75.0102968 26.432232,81.1177064 29.3821091,86.0642035 L21.2991125,90.9770509 C17.0992875,83.919039 15.5660181,75.2542567 17.6909295,66.6483613 C19.815841,58.0340534 25.1906171,51.11064 32.1819924,46.8707854 L37.0317903,55.0308231 Z M176.442648,32.3846154 L176.442648,32.3846154 C191.583684,41.5709671 199.991667,57.798506 200,74.4550777 C200,83.4900061 197.508437,92.188438 193.041957,99.6923077 L184.758968,94.6616865 C189.883755,86.0473787 191.76701,75.4561545 189.175451,64.9322296 C186.567226,54.4083047 179.9925,45.9370079 171.467856,40.7549633 L176.442648,32.3846154 Z M173.142786,68.9449492 C171.651181,62.888014 167.868005,58.0172286 162.959877,55.0308231 L167.809675,46.8707854 C174.80105,51.1022276 180.175826,58.0340534 182.300737,66.6483613 C184.425649,75.2542567 182.892379,83.9274514 178.692554,90.9770509 L170.609558,86.0642035 C173.559435,81.109294 174.642723,75.0102968 173.142786,68.9449492 Z" id="Combined-Shape" fill="@color0"></path>
        </g>
    </g>
</svg>