<?xml version="1.0" encoding="UTF-8" standalone="no"?>
<svg width="200px" height="200px" viewBox="0 0 200 200" version="1.1" xmlns="http://www.w3.org/2000/svg" xmlns:xlink="http://www.w3.org/1999/xlink">
    <!-- Generator: Sketch 46.2 (44496) - http://www.bohemiancoding.com/sketch -->
    <title>alert-idle</title>
    <desc>Created with Sketch.</desc>
    <defs></defs>
    <g id="Page-1" stroke="none" stroke-width="1" fill="none" fill-rule="evenodd">
        <g id="alert-idle">
            <path d="M69.9278677,175.889333 L118.525031,175.889333 C118.525031,189.205333 107.645631,200 94.2264496,200 C80.8072681,200 69.9278677,189.205333 69.9278677,175.889333 M147.666667,84.184 C143.585548,63.4066667 138.309791,42.9413333 120.640172,32.8786667 C115.173596,29.7653333 111.787221,23.964 111.797971,17.708 L111.797971,17.6773333 C111.797971,7.916 103.822522,0 93.9818781,0 C84.1425784,0 76.1671286,7.916 76.1671286,17.6773333 L76.1671286,17.708 C76.1765352,23.972 72.7995671,29.76 67.3249281,32.8786667 C27.6532804,55.4706667 50.4481507,130.501333 9,143.761333 L9,161.286667 L110.153161,161.286667 C105.81672,153.588 103.506729,144.881333 103.506729,135.82 C103.506729,121.844 108.994806,108.702667 118.955047,98.82 C126.863307,90.9733333 136.839674,85.9306667 147.666667,84.184 M93.9818781,24.8506667 C89.9988565,24.8506667 86.7535808,21.6333333 86.7535808,17.6786667 C86.7535808,13.7226667 89.9988565,10.5066667 93.9818781,10.5066667 C97.9689311,10.5066667 101.210175,13.7226667 101.210175,17.6786667 C101.210175,21.6333333 97.9689311,24.8506667 93.9818781,24.8506667" id="Fill-115" fill="#545658"></path>
            <path d="M147.982916,156.109763 L130.344114,138.465689 L137.853886,130.954599 L147.982916,141.086265 L171.365105,117.702758 L178.877514,125.21253 L147.982916,156.109763 Z M154.333992,98.6666667 C133.714746,98.6666667 117,115.381412 117,135.999341 C117,156.619906 133.714746,173.333333 154.333992,173.333333 C174.951921,173.333333 191.666667,156.619906 191.666667,135.999341 C191.666667,115.381412 174.951921,98.6666667 154.333992,98.6666667 L154.333992,98.6666667 Z" id="Fill-116" fill="@color0"></path>
        </g>
    </g>
</svg>