<?xml version="1.0" encoding="UTF-8" standalone="no"?>
<svg width="200px" height="200px" viewBox="0 0 200 200" version="1.1" xmlns="http://www.w3.org/2000/svg" xmlns:xlink="http://www.w3.org/1999/xlink">
    <!-- Generator: Sketch 46.2 (44496) - http://www.bohemiancoding.com/sketch -->
    <title>archive</title>
    <desc>Created with Sketch.</desc>
    <defs></defs>
    <g id="Page-1" stroke="none" stroke-width="1" fill="none" fill-rule="evenodd">
        <g id="archive">
            <path d="M62.0083333,16.6666667 L137.983333,16.6666667 L160.208333,83.3333333 L177.766667,83.3333333 L150,0 L50,0 L22.225,83.3333333 L39.7833333,83.3333333 L62.0083333,16.6666667 L62.0083333,16.6666667 Z M200,100 L183.333333,200 L16.6666667,200 L0,100 L200,100 L200,100 Z M125,125 L75,125 L75,141.666667 L125,141.666667 L125,125 L125,125 Z" id="Shape" fill="#545658"></path>
            <path d="M52.9583333,83.3333333 L55.7333333,75 L144.258333,75 L147.033333,83.3333333 L52.9583333,83.3333333 Z M72.4083333,25 L127.583333,25 L130.366667,33.3333333 L69.6333333,33.3333333 L72.4083333,25 Z M58.5166667,66.6666667 L58.5166667,66.6666667 L61.2916667,58.3333333 L138.7,58.3333333 L141.475,66.6666667 L58.5166667,66.6666667 Z M66.85,41.6666667 L133.141667,41.6666667 L135.916667,50 L64.075,50 L66.85,41.6666667 L66.85,41.6666667 Z" id="Combined-Shape" fill="@color0"></path>
        </g>
    </g>
</svg>