<?xml version="1.0" encoding="UTF-8" standalone="no"?>
<svg width="200px" height="200px" viewBox="0 0 200 200" version="1.1" xmlns="http://www.w3.org/2000/svg" xmlns:xlink="http://www.w3.org/1999/xlink">
    <!-- Generator: Sketch 46.2 (44496) - http://www.bohemiancoding.com/sketch -->
    <title>bulb</title>
    <desc>Created with Sketch.</desc>
    <defs></defs>
    <g id="Page-1" stroke="none" stroke-width="1" fill="none" fill-rule="evenodd">
        <g id="bulb">
            <path d="M121.93335,153.333333 C124.913938,153.333333 127.333333,155.719801 127.333333,158.667325 C127.333333,161.612215 124.913938,164 121.93335,164 L79.3973173,164 C76.4167292,164 74,161.612215 74,158.667325 C74,155.719801 76.4167292,153.333333 79.3973173,153.333333 L121.93335,153.333333 Z M120.676143,170.666667 C123.614712,170.666667 126,173.054156 126,176 C126,178.944527 123.614712,181.333333 120.676143,181.333333 L80.6545621,181.333333 C77.7159927,181.333333 75.3333333,178.944527 75.3333333,176 C75.3333333,173.054156 77.7159927,170.666667 80.6545621,170.666667 L120.676143,170.666667 Z M80.6666667,189.333333 L120.666667,189.333333 C109.619555,198.34613 108.607402,200 104.510848,200 L96.4402641,200 C92.2464902,200 91.1677487,198.214503 80.6666667,189.333333 Z M162,58.6112441 C162,94.9532585 130.286858,115.320586 130.286858,144 L115.847829,144 C115.857244,108.652096 147.297368,90.0344017 147.297368,58.6112441 C147.297368,-0.210913358 52.7012874,-0.302371488 52.7012874,58.6112441 C52.7012874,90.0065666 83.5953752,107.822345 84.312216,144 L69.7131422,144 C69.7131422,115.319261 38,94.9532585 38,58.6112441 C38,-19.4979748 162,-19.5761782 162,58.6112441 Z" id="Combined-Shape" fill="#545658"></path>
            <polygon id="Fill-76" fill="@color0" points="89.0877109 116 122 67.7801846 102.858653 67.7801846 112.365597 34.6666667 78 82.3555856 98.8456324 82.3555856"></polygon>
        </g>
    </g>
</svg>