<?xml version="1.0" encoding="UTF-8" standalone="no"?>
<svg width="200px" height="200px" viewBox="0 0 200 200" version="1.1" xmlns="http://www.w3.org/2000/svg" xmlns:xlink="http://www.w3.org/1999/xlink">
    <!-- Generator: Sketch 46.2 (44496) - http://www.bohemiancoding.com/sketch -->
    <title>c8y-engine</title>
    <desc>Created with Sketch.</desc>
    <defs></defs>
    <g id="Page-1" stroke="none" stroke-width="1" fill="none" fill-rule="evenodd">
        <g id="c8y-engine">
            <path d="M75.5555556,144.864993 L70.0586407,146.817405 C67.9594304,147.566075 66.2752579,149.164838 65.4184918,151.224012 L65.4184918,151.225347 C64.5657294,153.281852 64.6244485,155.609266 65.5813041,157.620398 L68.0862104,162.890443 L60.8904432,170.08621 L55.5897037,167.566624 C53.5945865,166.617776 51.2898592,166.559057 49.2507026,167.407816 L49.246699,167.40915 C47.1741793,168.272589 45.5594021,169.975445 44.8080637,172.090669 L42.8636585,177.554221 L32.689228,177.554221 L30.7354811,172.054637 C29.9868117,169.956761 28.3893834,168.273923 26.332878,167.422495 L26.330209,167.421161 C24.2710345,166.565729 21.9436202,166.625783 19.9298196,167.583973 L14.6624433,170.08621 L7.46667609,162.891778 L9.97158243,157.624401 C10.9297725,155.609266 10.9898262,153.283187 10.1330601,151.224012 L10.1330601,151.220008 C9.28296673,149.164838 7.59345611,147.566075 5.49824942,146.820074 L0,144.864993 L0,134.689228 L5.49824942,132.736816 C7.59612516,131.989481 9.2816322,130.390718 10.1330601,128.334213 L10.1330601,128.331543 C10.9871571,126.272369 10.928438,123.94362 9.97158243,121.92982 L7.46667609,116.662443 L14.6624433,109.468011 L19.9298196,111.971582 C21.9449547,112.929773 24.2710345,112.989826 26.330209,112.134395 L26.332878,112.134395 C28.3880489,111.282967 29.9881463,109.593456 30.7354811,107.498249 L32.689228,102 L42.8636585,102 L44.8200744,107.498249 C45.5660748,109.59746 47.1635031,111.281632 49.2200085,112.134395 L49.2226775,112.134395 C51.2831865,112.989826 53.6106009,112.928438 55.6244014,111.971582 L60.8904432,109.468011 L68.0862104,116.662443 L65.5826386,121.92982 C64.6244485,123.944955 64.5643948,126.271034 65.4184918,128.331543 L65.4211609,128.332878 C66.2725888,130.388049 67.9607649,131.990815 70.0573061,132.736816 L75.5555556,134.689228 L75.5555556,144.864993 Z M37.7791123,153.630163 C45.4299531,153.630163 51.6328325,147.428619 51.6328325,139.776443 C51.6328325,132.125602 45.4299531,125.922723 37.7791123,125.922723 C30.1282716,125.922723 23.9253921,132.126937 23.9253921,139.776443 C23.9253921,147.428619 30.1296061,153.630163 37.7791123,153.630163 Z" id="Combined-Shape" fill="#545658"></path>
            <path d="M199.555556,144.864993 L194.058641,146.817405 C191.95943,147.566075 190.275258,149.164838 189.418492,151.224012 L189.418492,151.225347 C188.565729,153.281852 188.624449,155.609266 189.581304,157.620398 L192.08621,162.890443 L184.890443,170.08621 L179.589704,167.566624 C177.594587,166.617776 175.289859,166.559057 173.250703,167.407816 L173.246699,167.40915 C171.174179,168.272589 169.559402,169.975445 168.808064,172.090669 L166.863658,177.554221 L156.689228,177.554221 L154.735481,172.054637 C153.986812,169.956761 152.389383,168.273923 150.332878,167.422495 L150.330209,167.421161 C148.271034,166.565729 145.94362,166.625783 143.92982,167.583973 L138.662443,170.08621 L131.466676,162.891778 L133.971582,157.624401 C134.929773,155.609266 134.989826,153.283187 134.13306,151.224012 L134.13306,151.220008 C133.282967,149.164838 131.593456,147.566075 129.498249,146.820074 L124,144.864993 L124,134.689228 L129.498249,132.736816 C131.596125,131.989481 133.281632,130.390718 134.13306,128.334213 L134.13306,128.331543 C134.987157,126.272369 134.928438,123.94362 133.971582,121.92982 L131.466676,116.662443 L138.662443,109.468011 L143.92982,111.971582 C145.944955,112.929773 148.271034,112.989826 150.330209,112.134395 L150.332878,112.134395 C152.388049,111.282967 153.988146,109.593456 154.735481,107.498249 L156.689228,102 L166.863658,102 L168.820074,107.498249 C169.566075,109.59746 171.163503,111.281632 173.220008,112.134395 L173.222678,112.134395 C175.283187,112.989826 177.610601,112.928438 179.624401,111.971582 L184.890443,109.468011 L192.08621,116.662443 L189.582639,121.92982 C188.624449,123.944955 188.564395,126.271034 189.418492,128.331543 L189.421161,128.332878 C190.272589,130.388049 191.960765,131.990815 194.057306,132.736816 L199.555556,134.689228 L199.555556,144.864993 Z M161.779112,153.630163 C169.429953,153.630163 175.632832,147.428619 175.632832,139.776443 C175.632832,132.125602 169.429953,125.922723 161.779112,125.922723 C154.128272,125.922723 147.925392,132.126937 147.925392,139.776443 C147.925392,147.428619 154.129606,153.630163 161.779112,153.630163 Z" id="Combined-Shape" fill="#545658"></path>
            <path d="M105.557895,108.736884 C94.0973684,108.736884 84.4210526,100.542147 82.2828947,89.5684631 C66.0276316,89.556621 62.9657895,89.4645157 62.1157895,89.3934631 C61.8171053,89.3684631 61.5276316,89.3079368 61.2434211,89.2013578 C60.9026316,89.0763578 53.4026316,86.2618842 49.3763158,77.7289894 C38.775,77.6881999 31.5184211,77.6513578 31.5184211,77.6513578 C25.1,77.5829368 13,74.1013578 13,61.4395157 C13,56.1329368 14.6618421,51.9710947 17.9342105,49.0645157 C21.0539474,46.2960947 24.9710526,45.3618842 27.8723684,45.0855684 C27.9368421,41.7224105 28.9631579,36.9329368 33.4131579,32.9987263 C37.7802632,29.1342526 42.975,28.7381999 46.5802632,29.0947789 C47.4736842,18.7421473 53.3763158,3.56714732 71.7657895,0.523726266 C92.9486842,-2.98153689 104.809211,11.8539894 109.35,22.8224105 C116.690789,19.5224105 126.567105,19.881621 134.867105,24.0434631 C144.586842,28.9184631 150.157895,37.8079368 150.157895,48.4355684 C150.157895,54.1184631 149.027632,59.2408315 146.781579,63.731621 C151.085526,65.4579368 154.568421,69.281621 154.568421,76.0960947 C154.568421,86.4908315 144.710526,89.3487263 139.5,89.4053052 L128.859211,89.4526736 C126.765789,100.490832 117.078947,108.736884 105.557895,108.736884 L105.557895,108.736884 Z M63.1605263,82.7395157 C64.8184211,82.8039894 70.1947368,82.8658315 85.2263158,82.8658315 C87.0052632,82.8658315 88.4710526,84.2500421 88.5710526,86.0197789 C89.1039474,95.0000421 96.5631579,102.0382 105.555263,102.0382 C114.586842,102.0382 122.052632,94.9645157 122.542105,85.9329368 C122.639474,84.1605684 124.102632,82.7724105 125.875,82.7645157 L139.440789,82.7013578 C139.430263,82.7013578 141.869737,82.6421473 144.152632,81.6184631 C146.681579,80.4881999 147.861842,78.7342526 147.861842,76.0974105 C147.861842,74.3303052 147.861842,69.6421473 141.221053,69.3171473 C141.209211,69.3171473 141.196053,69.3158315 141.185526,69.3158315 C141.057895,69.3092526 140.940789,69.3039894 140.831579,69.3079368 C140.819737,69.306621 140.817105,69.3079368 140.810526,69.3079368 C140.775,69.2960947 140.707895,69.306621 140.655263,69.3039894 C140.234211,69.3079368 139.951316,69.331621 139.894737,69.3368842 C139.527632,69.3710947 139.160526,69.3460947 138.814474,69.2631999 C138.076316,69.1013578 137.394737,68.7053052 136.915789,68.1184631 C136.231579,67.2829368 135.944737,66.1724105 136.226316,65.1303052 C136.253947,65.0092526 137.127632,61.2434631 134.067105,58.5342526 C132.817105,57.4342526 131.186842,56.8987263 129.215789,56.9276736 C127.664474,56.9724105 126.502632,57.3592526 126.486842,57.3658315 C126.238158,57.4500421 125.973684,57.5053052 125.710526,57.5303052 C124.85,57.6395157 123.976316,57.4184631 123.268421,56.8842526 C122.378947,56.2145157 121.892105,55.1434631 121.942105,54.0342526 C121.975,53.3605684 122.494737,37.3197789 107.342105,34.8105684 C106.226316,34.6276736 105.113158,34.5158315 104.030263,34.4881999 L104.030263,34.4881999 C89.1855263,34.1789894 84.3342105,49.6513578 83.9710526,50.8763578 C83.8736842,51.2539894 83.7078947,51.6184631 83.4710526,51.9500421 C82.8039474,52.8934631 81.7460526,53.3934631 80.6736842,53.3684631 C79.9065789,53.3987263 79.2315789,53.1500421 78.6328947,52.7039894 C76.6631579,51.2368842 73.8710526,50.4276736 70.7539474,50.4276736 C70.7368421,50.4276736 70.7157895,50.4289894 70.6947368,50.4276736 L70.6947368,50.4276736 C62.4513158,50.4908315 53.6789474,55.9763578 53.6789474,66.0289894 C53.6789474,67.5684631 54.0552632,69.9921473 54.7921053,73.2224105 C54.8078947,73.2987263 54.8263158,73.3829368 54.8486842,73.4710947 C57.0868421,79.5000421 61.8039474,82.1000421 63.1605263,82.7395157 L63.1605263,82.7395157 Z M31.5842105,70.9513578 C31.6078947,70.9513578 37.8973684,70.981621 47.2960526,71.0250421 C47.0223684,69.4079368 46.8828947,67.7408315 46.8828947,66.0329368 C46.8828947,52.1131999 58.975,43.7618842 70.6671053,43.7250421 C73.6105263,43.7237263 76.4,44.2118842 78.8657895,45.1934631 C82.3894737,37.3145157 90.3736842,27.506621 104.013158,27.7803052 C103.322368,25.7921473 101.313158,20.7131999 97.4315789,16.0658315 C91.1,8.48556837 82.8394737,5.48293679 72.8605263,7.13425258 C52.4105263,10.5171473 53.1407895,32.0763578 53.1815789,32.9934631 C53.2328947,34.1079368 52.7236842,35.1776736 51.8263158,35.8434631 C50.925,36.5092526 49.7605263,36.681621 48.7078947,36.306621 C48.6592105,36.2895157 42.2381579,34.1381999 37.8539474,38.0131999 C33.4315789,41.9224105 34.7210526,47.3250421 34.7763158,47.5513578 C35.0407895,48.6197789 34.7723684,49.7697789 34.0407895,50.5934631 C33.3144737,51.4197789 32.2302632,51.8500421 31.1355263,51.7197789 C31.1,51.7158315 25.6368421,51.1539894 22.3539474,54.0974105 C20.5710526,55.7000421 19.6986842,58.0987263 19.6986842,61.4395157 C19.7013158,70.4776736 30.3657895,70.9303052 31.5842105,70.9513578 L31.5842105,70.9513578 L31.5842105,70.9513578 Z M129.519737,50.2184631 C133.018421,50.2184631 136.161842,51.3500421 138.605263,53.5118842 C140.160526,54.8895157 141.225,56.4329368 141.935526,57.9921473 C142.948684,55.1053052 143.455263,51.9105684 143.455263,48.4329368 C143.455263,37.481621 136.189474,32.2000421 131.859211,30.0342526 C125.346053,26.7697789 117.468421,26.4408315 111.973684,28.9842526 C118.828947,31.0395157 123.840789,35.6434631 126.581579,42.4434631 C127.736842,45.3145157 128.284211,48.0921473 128.538158,50.2434631 C128.715789,50.2329368 128.896053,50.2263578 129.080263,50.2237263 C129.227632,50.2197789 129.375,50.2184631 129.519737,50.2184631 L129.519737,50.2184631 Z M88.6894737,77.8303052 L88.6315789,77.8303052 C86.7894737,77.7960947 85.3171053,76.2987263 85.3368421,74.4592526 C85.3368421,74.3053052 85.6736842,59.0750421 102.009211,58.7934631 L102.065789,58.7934631 C103.890789,58.7934631 105.382895,60.2553052 105.417105,62.0895157 C105.444737,63.9355684 103.972368,65.4631999 102.121053,65.4987263 C92.7289474,65.6579368 92.0723684,73.0671473 92.0368421,74.5500421 C91.9894737,76.3671473 90.5026316,77.8303052 88.6894737,77.8303052 L88.6894737,77.8303052 Z" id="Shape" fill="@color0"></path>
            <path d="M128.333333,175.568358 L124.273188,176.58513 C123.446713,176.792096 122.796645,177.429663 122.577178,178.25336 C122.575789,178.258916 122.5744,178.263083 122.573011,178.26725 C122.350766,179.10067 122.598014,179.989652 123.217523,180.589714 L126.21089,183.485849 L123.30781,188.514151 L119.257388,187.354308 C118.451748,187.125117 117.582213,187.348752 116.989096,187.943258 C116.987707,187.944647 116.986318,187.946036 116.986318,187.946036 C116.368198,188.566934 116.132062,189.479529 116.373754,190.321283 L117.512762,194.309199 L112.48446,197.21089 L109.574435,194.202243 C108.984096,193.591069 108.107615,193.347988 107.28114,193.568844 C107.28114,193.568844 107.276973,193.570233 107.272806,193.573011 C106.439386,193.795256 105.789318,194.453658 105.580963,195.291246 L104.569747,199.333333 L98.7621975,199.333333 L97.7468139,195.271799 C97.5412369,194.445324 96.9022815,193.793867 96.0744175,193.5744 C96.0744175,193.5744 96.0688613,193.573011 96.0633052,193.573011 C95.2312741,193.350766 94.3422926,193.596625 93.7422301,194.216134 L90.8474841,197.209501 L85.8191826,194.30781 L86.9776366,190.255999 C87.2068271,189.44897 86.9818037,188.579435 86.3872973,187.986318 C86.3872973,187.986318 86.3872973,187.984929 86.3859083,187.98354 C85.7663993,187.36542 84.8538042,187.132062 84.0092718,187.372365 L80.0241345,188.512762 L77.1210543,183.48446 L80.129701,180.574435 C80.7408758,179.982707 80.9853457,179.106226 80.7631003,178.285307 C80.7631003,178.28114 80.7617113,178.275584 80.7603223,178.270028 C80.5380769,177.436608 79.879675,176.787929 79.0406987,176.578185 L75,175.56558 L75,169.760808 L79.0615342,168.745425 C79.8880092,168.539848 80.5380769,167.899503 80.7575442,167.075807 C80.7575442,167.071639 80.7603223,167.067472 80.7603223,167.063305 C80.9825676,166.231274 80.7353197,165.340904 80.1158107,164.740841 L77.1224433,161.846095 L80.0255235,156.819183 L84.0773344,157.976248 C84.8829739,158.206827 85.7511199,157.981804 86.3456263,157.385908 L86.3470153,157.384519 C86.9665243,156.763621 87.201271,155.851026 86.9595791,155.009272 L85.8205716,151.022745 L90.8488731,148.119665 L93.7588985,151.128312 C94.3492378,151.738098 95.225718,151.983957 96.0480258,151.7631 C96.0521929,151.761711 96.0605271,151.758933 96.0605271,151.758933 C96.8953363,151.536688 97.545404,150.875508 97.7537591,150.03931 L98.7649755,146 L104.572525,146 L105.586519,150.060145 C105.792096,150.888009 106.432441,151.536688 107.256138,151.756155 L107.270028,151.758933 C108.102059,151.981179 108.989652,151.732542 109.591103,151.114422 L112.485849,148.121054 L117.514151,151.024134 L116.357086,155.074556 C116.126506,155.881585 116.35153,156.75112 116.947425,157.344237 L116.947425,157.345626 C117.566934,157.965135 118.480918,158.199882 119.324062,157.959579 L123.309199,156.820572 L126.212279,161.847484 L123.205021,164.757509 C122.593847,165.34646 122.349377,166.225718 122.570233,167.046637 C122.571622,167.050804 122.571622,167.05636 122.573011,167.060527 C122.796645,167.893947 123.455047,168.542626 124.294024,168.75237 L128.333333,169.763586 L128.333333,175.568358 Z M101.668056,183.133035 C107.447824,183.133035 112.131646,178.447824 112.131646,172.668056 C112.131646,166.888287 107.447824,162.203077 101.668056,162.203077 C95.888287,162.203077 91.2044657,166.888287 91.2044657,172.668056 C91.2044657,178.447824 95.888287,183.133035 101.668056,183.133035 Z" id="Combined-Shape" fill="#545658"></path>
        </g>
    </g>
</svg>