<?xml version="1.0" encoding="UTF-8" standalone="no"?>
<svg width="200px" height="200px" viewBox="0 0 200 200" version="1.1" xmlns="http://www.w3.org/2000/svg" xmlns:xlink="http://www.w3.org/1999/xlink">
    <!-- Generator: Sketch 46.2 (44496) - http://www.bohemiancoding.com/sketch -->
    <title>cockpit</title>
    <desc>Created with Sketch.</desc>
    <defs>
        <path d="M0.993377483,100.331126 C0.993377483,155.107285 45.5536424,199.668874 100.329801,199.668874 C155.107285,199.668874 199.668874,155.107285 199.668874,100.331126 C199.668874,45.5562914 155.107285,0.993377483 100.329801,0.993377483 C45.5536424,0.993377483 0.993377483,45.5562914 0.993377483,100.331126 L0.993377483,100.331126 Z M17.5470199,100.331126 C17.5470199,54.6821192 54.6821192,17.5470199 100.329801,17.5470199 C145.978808,17.5470199 183.113907,54.6821192 183.113907,100.331126 C183.113907,145.980132 145.978808,183.115232 100.329801,183.115232 C54.6821192,183.115232 17.5470199,145.980132 17.5470199,100.331126 L17.5470199,100.331126 Z M94.9417219,31.3099338 L94.9417219,54.3536424 C96.7311258,54.1496689 98.5364238,54.0384106 100.321854,54.0384106 C102.111258,54.0384106 103.915232,54.1496689 105.69404,54.3536424 L105.69404,31.3099338 C103.880795,31.1682119 102.075497,31.0927152 100.321854,31.0927152 C98.5655629,31.0927152 96.7562914,31.1682119 94.9417219,31.3099338 L94.9417219,31.3099338 Z M113.69404,56.0039735 C117.143046,57.0370861 120.47947,58.4781457 123.627815,60.3019868 L132.101987,38.9986755 C128.901987,37.2980132 125.562914,35.8569536 122.166887,34.7033113 L113.69404,56.0039735 L113.69404,56.0039735 Z M68.2847682,39.1324503 L76.8450331,60.386755 C79.9827815,58.5576159 83.3099338,57.1086093 86.7642384,56.0609272 L78.2039735,34.792053 C74.807947,35.9708609 71.4807947,37.4251656 68.2847682,39.1324503 L68.2847682,39.1324503 Z M130.390728,65 C133.197351,67.3430464 135.745695,70.002649 137.989404,72.9205298 L153.631788,56.6317881 C151.300662,53.8 148.749669,51.1337748 146.037086,48.7059603 L130.390728,65 L130.390728,65 Z M47.0092715,56.6317881 L62.6476821,72.9205298 C64.8927152,69.992053 67.4503311,67.3430464 70.2582781,65 L54.610596,48.7059603 C51.8953642,51.1430464 49.3377483,53.8 47.0092715,56.6317881 L47.0092715,56.6317881 Z M142.143046,79.2794702 C143.941722,82.5350993 145.37351,85.984106 146.425166,89.5642384 L166.728477,80.4066225 C165.560265,76.8701987 164.129801,73.4225166 162.456954,70.1245033 L142.143046,79.2794702 L142.143046,79.2794702 Z M33.5602649,81.4900662 L54.005298,90.3245033 C55.007947,86.7205298 56.3907285,83.2516556 58.1271523,79.9748344 L37.6821192,71.1390728 C36.0529801,74.4768212 34.6701987,77.9549669 33.5602649,81.4900662 L33.5602649,81.4900662 Z" id="path-1"></path>
    </defs>
    <g id="Page-1" stroke="none" stroke-width="1" fill="none" fill-rule="evenodd">
        <g id="cockpit">
            <mask id="mask-2" fill="white">
                <use xlink:href="#path-1"></use>
            </mask>
            <use id="gauge" fill="#545658" xlink:href="#path-1"></use>
            <path d="M90.9509934,108.360265 C84.984106,111.663576 80.9337748,118.027815 80.9337748,125.339073 C80.9337748,136.051656 89.6198675,144.735099 100.329801,144.735099 C111.039735,144.735099 119.727152,136.051656 119.727152,125.333775 C119.727152,118.022517 115.688742,111.654305 109.711258,108.349669 L100.329801,64.4066225 L90.9509934,108.360265 L90.9509934,108.360265 Z" id="pointer" fill="@color0"></path>
        </g>
    </g>
</svg>