<?xml version="1.0" encoding="UTF-8" standalone="no"?>
<svg width="200px" height="200px" viewBox="0 0 200 200" version="1.1" xmlns="http://www.w3.org/2000/svg" xmlns:xlink="http://www.w3.org/1999/xlink">
    <!-- Generator: Sketch 46.2 (44496) - http://www.bohemiancoding.com/sketch -->
    <title>data-points</title>
    <desc>Created with Sketch.</desc>
    <defs></defs>
    <g id="Page-1" stroke="none" stroke-width="1" fill="none" fill-rule="evenodd">
        <g id="data-points">
            <path d="M29.1253333,89 C45.2106667,89 58.2506667,102.04 58.2506667,118.125333 C58.2506667,134.209333 45.2106667,147.250667 29.1253333,147.250667 C13.0413333,147.250667 0,134.209333 0,118.125333 C0,102.04 13.0413333,89 29.1253333,89 Z M29.7106667,160.752 C33.0466667,160.752 36.2933333,160.374667 39.4186667,159.666667 L39.4186667,179.2 C39.4186667,184.561333 35.072,188.908 29.7106667,188.908 C24.3493333,188.908 20,184.561333 20,179.2 L20,159.666667 C23.128,160.374667 26.3746667,160.752 29.7106667,160.752 Z M29.7106667,74.0493333 C26.3746667,74.0493333 23.1253333,74.4266667 20,75.136 L20,18.7093333 C20,13.3466667 24.3493333,9 29.7106667,9 C35.072,9 39.4186667,13.3466667 39.4186667,18.7093333 L39.4186667,75.136 C36.2933333,74.424 33.0466667,74.0493333 29.7106667,74.0493333 Z M100.374667,37.6413333 C97.0386667,37.6413333 93.792,38.0186667 90.6666667,38.7306667 L90.6666667,18.7093333 C90.6666667,13.3466667 95.0133333,9 100.374667,9 C105.736,9 110.082667,13.3466667 110.082667,18.7093333 L110.082667,38.7306667 C106.957333,38.0186667 103.710667,37.6413333 100.374667,37.6413333 Z M100.374667,124.753333 C103.710667,124.753333 106.957333,124.377333 110.082667,123.666667 L110.082667,179.609333 C110.082667,184.970667 105.736,189.317333 100.374667,189.317333 C95.0133333,189.317333 90.6666667,184.970667 90.6666667,179.609333 L90.6666667,123.666667 C93.792,124.377333 97.0386667,124.753333 100.374667,124.753333 Z M170.461333,89 C186.546667,89 199.589333,102.04 199.589333,118.126667 C199.589333,134.212 186.546667,147.252 170.461333,147.252 C154.376,147.252 141.333333,134.212 141.333333,118.126667 C141.333333,102.04 154.376,89 170.461333,89 Z M171.038667,74.0493333 C167.702667,74.0493333 164.456,74.4266667 161.333333,75.136 L161.333333,18.7093333 C161.333333,13.3466667 165.677333,9 171.038667,9 C176.4,9 180.746667,13.3466667 180.746667,18.7093333 L180.746667,75.136 C177.621333,74.424 174.377333,74.0493333 171.038667,74.0493333 Z M171.038667,160.752 C174.377333,160.752 177.624,160.374667 180.746667,159.666667 L180.746667,179.2 C180.746667,184.561333 176.4,188.908 171.038667,188.908 C165.678667,188.908 161.333333,184.561333 161.333333,179.2 L161.333333,159.666667 C164.456,160.374667 167.702667,160.752 171.038667,160.752 Z" id="Combined-Shape" fill="#545658"></path>
            <path d="M99.792,51.6666667 C83.7066667,51.6666667 70.6666667,64.7066667 70.6666667,80.7933333 C70.6666667,96.88 83.7066667,109.92 99.792,109.92 C115.877333,109.92 128.92,96.88 128.92,80.7933333 C128.92,64.7066667 115.877333,51.6666667 99.792,51.6666667 M99.792,70.112 C105.682667,70.112 110.472,74.904 110.472,80.7933333 C110.472,86.68 105.682667,91.4733333 99.792,91.4733333 C93.904,91.4733333 89.112,86.68 89.112,80.7933333 C89.112,74.9013333 93.904,70.112 99.792,70.112" id="Fill-18" fill="@color0"></path>
        </g>
    </g>
</svg>