<?xml version="1.0" encoding="UTF-8" standalone="no"?>
<svg width="200px" height="200px" viewBox="0 0 200 200" version="1.1" xmlns="http://www.w3.org/2000/svg" xmlns:xlink="http://www.w3.org/1999/xlink">
    <!-- Generator: Sketch 46.2 (44496) - http://www.bohemiancoding.com/sketch -->
    <title>device</title>
    <desc>Created with Sketch.</desc>
    <defs></defs>
    <g id="Page-1" stroke="none" stroke-width="1" fill="none" fill-rule="evenodd">
        <g id="device">
            <path d="M92.3333333,33.3333333 L17.3333333,33.3333333 L17.3333333,12.5 C17.3333333,5.59466667 22.932,0 29.8333333,0 L79.8333333,0 C86.7346667,0 92.3333333,5.59466667 92.3333333,12.5 L92.3333333,33.3333333 Z M184,33.3333333 L109,33.3333333 L109,12.5 C109,5.59466667 114.598667,0 121.5,0 L171.5,0 C178.401333,0 184,5.59466667 184,12.5 L184,33.3333333 Z" id="Fill-111" fill="@color0"></path>
            <path d="M0,199.666667 L200,199.666667 L200,124.666667 L0,124.666667 L0,199.666667 Z M0,116.333333 L200,116.333333 L200,41.3333333 L0,41.3333333 L0,116.333333 Z" id="Fill-112" fill="#545658"></path>
        </g>
    </g>
</svg>