<?xml version="1.0" encoding="UTF-8" standalone="no"?>
<svg width="200px" height="200px" viewBox="0 0 200 200" version="1.1" xmlns="http://www.w3.org/2000/svg" xmlns:xlink="http://www.w3.org/1999/xlink">
    <!-- Generator: Sketch 46.2 (44496) - http://www.bohemiancoding.com/sketch -->
    <title>device-management</title>
    <desc>Created with Sketch.</desc>
    <defs></defs>
    <g id="Page-1" stroke="none" stroke-width="1" fill="none" fill-rule="evenodd">
        <g id="device-management">
            <path d="M181.121156,35.1537062 L200,35.1563977 L200,88 L146.686402,87.9851967 L146.678401,35.1604349 L165.565245,35.1550519 L165.54791,0 L181.135824,0.0107660076 L181.121156,35.1537062 Z M107.781956,35.1537062 L126.6608,35.1563977 L126.6608,88 L73.3472011,87.9851967 L73.3392005,35.1604349 L92.2260448,35.1550519 L92.20871,0 L107.796624,0.0107660076 L107.781956,35.1537062 Z M34.4427554,35.1537062 L53.3215991,35.1563977 L53.3215991,88 L0.00800064005,87.9851967 L0,35.1604349 L18.8868443,35.1550519 L18.8695096,0 L34.4574233,0.0107660076 L34.4427554,35.1537062 Z" id="Fill-123" fill="@color0"></path>
            <path d="M165.008,114.309159 L165.009333,106.238677 L181.666667,106.242633 L181.664,114.309159 L165.008,114.309159 Z M157.217333,98.6693041 L157.228,114.305202 L146.673333,114.303884 L146.666667,166.08156 L165.548,166.08156 L165.54,199.997363 L181.114667,200 L181.121333,166.086835 L200,166.088154 L200,114.318389 L189.442667,114.313115 L189.442667,98.6666667 L157.217333,98.6693041 Z M91.6746667,114.309159 L91.676,106.238677 L108.333333,106.242633 L108.330667,114.309159 L91.6746667,114.309159 Z M83.884,98.6693041 L83.8946667,114.305202 L73.34,114.303884 L73.3333333,166.08156 L92.2146667,166.08156 L92.2066667,199.997363 L107.781333,200 L107.788,166.086835 L126.666667,166.088154 L126.666667,114.318389 L116.109333,114.313115 L116.109333,98.6666667 L83.884,98.6693041 Z M18.3413333,114.309159 L18.3426667,106.238677 L35,106.242633 L34.9973333,114.309159 L18.3413333,114.309159 Z M10.5506667,98.6693041 L10.5613333,114.305202 L0.00666666667,114.303884 L0,166.08156 L18.8813333,166.08156 L18.8733333,199.997363 L34.448,200 L34.4546667,166.086835 L53.3333333,166.088154 L53.3333333,114.318389 L42.776,114.313115 L42.776,98.6666667 L10.5506667,98.6693041 Z" id="Fill-124" fill="#545658"></path>
        </g>
    </g>
</svg>