<?xml version="1.0" encoding="UTF-8" standalone="no"?>
<svg width="200px" height="200px" viewBox="0 0 200 200" version="1.1" xmlns="http://www.w3.org/2000/svg" xmlns:xlink="http://www.w3.org/1999/xlink">
    <!-- Generator: Sketch 46.2 (44496) - http://www.bohemiancoding.com/sketch -->
    <title>events</title>
    <desc>Created with Sketch.</desc>
    <defs></defs>
    <g id="Page-1" stroke="none" stroke-width="1" fill="none" fill-rule="evenodd">
        <g id="events">
            <path d="M50.3583333,162.466667 L38,175.008333 C14.75,156.666667 0,129.9 0,100 C0,70.1 14.75,43.3333333 38.0083333,25 L50.3666667,37.5333333 C30.975,52.825 18.6583333,75.1333333 18.6583333,100 C18.6583333,124.866667 30.975,147.175 50.3583333,162.466667 Z M55.9833333,100 C55.9833333,85.075 63.375,71.6833333 75,62.5166667 L62.6583333,50 C47.1583333,62.225 37.325,80.0666667 37.325,100 C37.325,119.933333 47.1583333,137.775 62.6583333,150 L75,137.483333 C63.3666667,128.316667 55.9833333,114.925 55.9833333,100 Z M162,25 L149.641667,37.5333333 C169.025,52.825 181.341667,75.1333333 181.341667,100 C181.341667,124.866667 169.025,147.175 149.641667,162.466667 L162,175.008333 C185.25,156.666667 200,129.9 200,100 C200,70.1 185.25,43.3333333 162,25 Z M137.341667,50 L125,62.5166667 C136.633333,71.6916667 144.016667,85.075 144.016667,100 C144.016667,114.925 136.633333,128.316667 125,137.483333 L137.341667,150 C152.841667,137.775 162.675,119.933333 162.675,100 C162.675,80.0666667 152.85,62.225 137.341667,50 Z" id="Shape" fill="#545658" fill-rule="nonzero"></path>
            <circle id="Path" fill="@color0" cx="99.6666667" cy="100.666667" r="25"></circle>
        </g>
    </g>
</svg>