<?xml version="1.0" encoding="UTF-8" standalone="no"?>
<svg width="200px" height="200px" viewBox="0 0 200 200" version="1.1" xmlns="http://www.w3.org/2000/svg" xmlns:xlink="http://www.w3.org/1999/xlink">
    <!-- Generator: Sketch 46.2 (44496) - http://www.bohemiancoding.com/sketch -->
    <title>find-map</title>
    <desc>Created with Sketch.</desc>
    <defs></defs>
    <g id="Page-1" stroke="none" stroke-width="1" fill="none" fill-rule="evenodd">
        <g id="find-map">
            <path d="M83.4416667,141.666667 L83.4583333,141.383333 L58.3333333,159.508333 L58.3333333,50.6083333 L91.6666667,26.5583333 L91.6666667,111.95 C95.9,104.833333 101.575,98.6916667 108.333333,93.9416667 L108.333333,26.5583333 L141.666667,50.6083333 L141.666667,83.3333333 L141.775,83.3333333 C144.575,83.3333333 147.308333,83.6 150,83.9833333 L150,50.5916667 L183.333333,29.9333333 L183.333333,100.8 C193.233333,110.866667 199.466667,124.5 200,139.575 L200,0 L146.208333,33.3333333 L100,0 L53.7916667,33.3333333 L0,0 L0,150 L53.7916667,183.333333 L86.375,159.833333 C84.4916667,154.108333 83.4416667,148.008333 83.4416667,141.666667 Z M50,161.375 L16.6666667,140.716667 L16.6666667,29.9333333 L50,50.5916667 L50,161.375 Z" id="overview" fill="#545658" fill-rule="nonzero"></path>
            <path d="M200,188.216667 L188.216667,200 L164.658333,176.441667 C158.083333,180.775 150.241667,183.333333 141.775,183.333333 C118.758333,183.333333 100.108333,164.683333 100.108333,141.666667 C100.108333,118.65 118.758333,100 141.775,100 C164.791667,100 183.441667,118.65 183.441667,141.666667 C183.441667,150.191667 180.858333,158.091667 176.475,164.691667 L200,188.216667 Z M116.775,141.666667 L116.775,141.666667 C116.775,155.45 127.991667,166.666667 141.775,166.666667 C155.558333,166.666667 166.775,155.45 166.775,141.666667 C166.775,127.883333 155.558333,116.666667 141.775,116.666667 C127.991667,116.666667 116.775,127.883333 116.775,141.666667 Z" id="Combined-Shape" fill="@color0"></path>
        </g>
    </g>
</svg>