<?xml version="1.0" encoding="UTF-8" standalone="no"?>
<svg width="200px" height="200px" viewBox="0 0 200 200" version="1.1" xmlns="http://www.w3.org/2000/svg" xmlns:xlink="http://www.w3.org/1999/xlink">
    <!-- Generator: Sketch 46.2 (44496) - http://www.bohemiancoding.com/sketch -->
    <title>group-add</title>
    <desc>Created with Sketch.</desc>
    <defs></defs>
    <g id="Page-1" stroke="none" stroke-width="1" fill="none" fill-rule="evenodd">
        <g id="group-add">
            <path d="M183.735448,145.844218 L165.84501,145.844218 L165.84501,163.735706 L152.025885,163.735706 L152.025885,145.844218 L134.135448,145.844218 L134.135448,132.026658 L152.025885,132.026658 L152.025885,114.13517 L165.84501,114.13517 L165.84501,132.026658 L183.735448,132.026658 L183.735448,145.844218 Z M158.334004,97 C135.504621,97 117,115.505661 117,138.331992 C117,161.161005 135.504621,179.666667 158.334004,179.666667 C181.160705,179.666667 199.666667,161.161005 199.666667,138.331992 C199.666667,115.505661 181.160705,97 158.334004,97 L158.334004,97 Z" id="Fill-121" fill="@color0"></path>
            <path d="M0,180 L0,20 L52.5973333,20 L68.4653333,35.8428947 C72.856,40.2271341 78.7986667,42.6886725 84.9946667,42.6886725 L200,42.6886725 L200,98.0993607 C177.273333,75.3077341 140.528,75.3130824 117.829333,98.0766306 C95.0826667,120.884302 95.3333333,157.408933 117.388,180 L0,180 Z" id="Fill-122" fill="#545658"></path>
        </g>
    </g>
</svg>