<?xml version="1.0" encoding="UTF-8" standalone="no"?>
<svg width="200px" height="200px" viewBox="0 0 200 200" version="1.1" xmlns="http://www.w3.org/2000/svg" xmlns:xlink="http://www.w3.org/1999/xlink">
    <!-- Generator: Sketch 46.2 (44496) - http://www.bohemiancoding.com/sketch -->
    <title>report</title>
    <desc>Created with Sketch.</desc>
    <defs></defs>
    <g id="Page-1" stroke="none" stroke-width="1" fill="none" fill-rule="evenodd">
        <g id="report">
            <path d="M120,108.201439 L51.7985612,108.201439 L51.7985612,40 C22.5496403,44.2302158 0,69.1453237 0,99.5683453 C0,132.943885 27.0561151,160 60.4316547,160 C90.8546763,160 115.769784,137.45036 120,108.201439 Z" id="Combined-Shape" fill="#545658"></path>
            <path d="M62.6666667,40 L62.6666667,97.3333333 L120,97.3333333 C115.704859,67.6171751 92.3828249,44.2951412 62.6666667,40 L62.6666667,40 Z" id="Path" fill="@color0"></path>
            <polygon id="Path" fill="#545658" points="200 140 133.333333 140 133.333333 156 200 156"></polygon>
            <polygon id="Path" fill="#545658" points="200 106.666667 133.333333 106.666667 133.333333 122.666667 200 122.666667"></polygon>
            <polygon id="Path" fill="#545658" points="200 73.3333333 133.333333 73.3333333 133.333333 89.3333333 200 89.3333333"></polygon>
            <polygon id="Path" fill="#545658" points="200 40 133.333333 40 133.333333 56 200 56"></polygon>
        </g>
    </g>
</svg>