<?xml version="1.0" encoding="UTF-8" standalone="no"?>
<svg width="200px" height="200px" viewBox="0 0 200 200" version="1.1" xmlns="http://www.w3.org/2000/svg" xmlns:xlink="http://www.w3.org/1999/xlink">
    <!-- Generator: Sketch 46.2 (44496) - http://www.bohemiancoding.com/sketch -->
    <title>security</title>
    <desc>Created with Sketch.</desc>
    <defs></defs>
    <g id="Page-1" stroke="none" stroke-width="1" fill="none" fill-rule="evenodd">
        <g id="security">
            <path d="M175,83.3333333 L175,100 L133.333333,100 L133.333333,183.333333 L175,183.333333 L175,200 L25,200 L25,83.3333333 L50,83.3333333 L50,50 C50,22.3916667 72.3916667,0 100,0 C127.608333,0 150,22.3916667 150,50 L150,83.3333333 L175,83.3333333 L175,83.3333333 Z M133.333333,83.3333333 L133.333333,50 C133.333333,31.6166667 118.375,16.6666667 100,16.6666667 C81.625,16.6666667 66.6666667,31.6166667 66.6666667,50 L66.6666667,83.3333333 L133.333333,83.3333333 L133.333333,83.3333333 Z" id="Shape" fill="#545658"></path>
            <polygon id="Path" fill="@color0" points="141.666667 158.333333 175 158.333333 175 175 141.666667 175"></polygon>
            <polygon id="Path" fill="@color0" points="141.666667 150 175 150 175 133.333333 141.666667 133.333333"></polygon>
            <polygon id="Path" fill="@color0" points="141.666667 125 175 125 175 108.333333 141.666667 108.333333"></polygon>
        </g>
    </g>
</svg>