<?xml version="1.0" encoding="UTF-8" standalone="no"?>
<svg width="200px" height="200px" viewBox="0 0 200 200" version="1.1" xmlns="http://www.w3.org/2000/svg" xmlns:xlink="http://www.w3.org/1999/xlink">
    <!-- Generator: Sketch 46.2 (44496) - http://www.bohemiancoding.com/sketch -->
    <title>smart-rest</title>
    <desc>Created with Sketch.</desc>
    <defs></defs>
    <g id="Page-1" stroke="none" stroke-width="1" fill="none" fill-rule="evenodd">
        <g id="smart-rest">
            <path d="M147.666667,110.969444 L147.666667,119.256667 L116.555556,134.606111 L116.555556,125.933889 L138.488889,115.111111 L116.555556,104.261111 L116.555556,95.6161111 L147.666667,110.969444 Z M85.4444444,125.933889 L63.5111111,115.111111 L85.4444444,104.261111 L85.4444444,95.6161111 L54.3333333,110.969444 L54.3333333,119.256667 L85.4444444,134.606111 L85.4444444,125.933889 Z M112.849444,84 L104.768333,84 L89.17,146.222222 L97.2316667,146.222222 L112.849444,84 L112.849444,84 Z" id="Shape" fill="@color0"></path>
            <path d="M133.666667,0 L17,0 L17,200 L183.666667,200 L183.666667,50 L133.666667,0 Z M133.666667,25 L158.666667,50 L133.666667,50 L133.666667,25 Z M33.6666667,183.333333 L33.6666667,16.6666667 L117,16.6666667 L117,66.6666667 L167,66.6666667 L167,183.333333 L33.6666667,183.333333 Z" id="Shape" fill="#545658"></path>
        </g>
    </g>
</svg>