<?xml version="1.0" encoding="UTF-8" standalone="no"?>
<svg width="200px" height="200px" viewBox="0 0 200 200" version="1.1" xmlns="http://www.w3.org/2000/svg" xmlns:xlink="http://www.w3.org/1999/xlink">
    <!-- Generator: Sketch 46.2 (44496) - http://www.bohemiancoding.com/sketch -->
    <title>tenant-policies</title>
    <desc>Created with Sketch.</desc>
    <defs></defs>
    <g id="Page-1" stroke="none" stroke-width="1" fill="none" fill-rule="evenodd">
        <g id="tenant-policies">
            <path d="M183.666667,16.6666667 L183.666667,200 L17,200 L17,16.6666667 L42,16.6666667 C52.25,16.6666667 60.175,7.63333333 67,0 L133.666667,0 C140.5,7.63333333 148.425,16.6666667 158.666667,16.6666667 L183.666667,16.6666667 Z M92,25 C92,29.6 95.7333333,33.3333333 100.333333,33.3333333 C104.941667,33.3333333 108.666667,29.6 108.666667,25 C108.666667,20.4 104.941667,16.6666667 100.333333,16.6666667 C95.7333333,16.6666667 92,20.4 92,25 Z M167,33.3333333 L133.666667,33.3333333 L117,50 L84.525,50 L67,33.3333333 L33.6666667,33.3333333 L33.6666667,183.333333 L167,183.333333 L167,33.3333333 Z" id="Shape" fill="#545658" fill-rule="nonzero"></path>
            <path d="M108.666667,141.666667 L142,141.666667 L142,150 L108.666667,150 L108.666667,141.666667 Z M108.666667,133.333333 L108.666667,125 L142,125 L142,133.333333 L108.666667,133.333333 Z M108.666667,108.333333 L108.666667,100 L142,100 L142,108.333333 L108.666667,108.333333 Z M108.666667,91.6666667 L108.666667,83.3333333 L142,83.3333333 L142,91.6666667 L108.666667,91.6666667 Z M54.5,92.3083333 L57.7166667,89.35 C61.4583333,91.1666667 63.8416667,92.5416667 68.0583333,95.5583333 C75.9916667,86.55 81.225,82 90.9583333,75.9333333 L92,78.3333333 C83.975,85.3416667 78.0916667,93.1416667 69.6166667,108.333333 C64.4,102.183333 60.9166667,98.2666667 54.5,92.3083333 L54.5,92.3083333 Z M55.3166667,133.975 L58.5333333,131.016667 C62.275,132.833333 64.6583333,134.208333 68.875,137.225 C76.8083333,128.216667 82.0416667,123.666667 91.775,117.6 L92.8166667,120.008333 C84.7916667,127.016667 78.9083333,134.816667 70.4333333,150.008333 C65.2083333,143.85 61.725,139.933333 55.3166667,133.975 L55.3166667,133.975 Z" id="Combined-Shape" fill="@color0"></path>
        </g>
    </g>
</svg>