<?xml version="1.0" encoding="UTF-8" standalone="no"?>
<svg width="200px" height="200px" viewBox="0 0 200 200" version="1.1" xmlns="http://www.w3.org/2000/svg" xmlns:xlink="http://www.w3.org/1999/xlink">
    <!-- Generator: Sketch 46.2 (44496) - http://www.bohemiancoding.com/sketch -->
    <title>user</title>
    <desc>Created with Sketch.</desc>
    <defs></defs>
    <g id="Page-1" stroke="none" stroke-width="1" fill="none" fill-rule="evenodd">
        <g id="user">
            <path d="M100,0 C44.7706667,0 0,44.7706667 0,100 C0,155.229333 44.7706667,200 100,200 C155.229333,200 200,155.229333 200,100 C200,44.7706667 155.229333,0 100,0 L100,0 Z M100,19.4173333 C144.534667,19.4173333 180.584,55.456 180.584,100 C180.584,144.533333 144.542667,180.582667 100,180.582667 C55.4653333,180.582667 19.416,144.542667 19.416,100 C19.416,55.4666667 55.4586667,19.4173333 100,19.4173333 L100,19.4173333 Z" fill="#545658" fill-rule="nonzero"></path>
            <path d="M148.358948,142.165592 C136.604514,155.637885 119.305345,164.144939 100,164.144939 C80.6916658,164.144939 63.3870715,155.634397 51.6314154,142.155081 C52.0560527,142.044999 52.4921708,141.938207 52.9400783,141.834667 C70.904242,137.685333 88.6123844,133.984 80.0890074,118.272 C54.8495708,71.7333333 72.8990749,45.3333333 99.9946662,45.3333333 C126.567547,45.3333333 145.075756,70.752 119.900325,118.282667 C111.632969,133.898667 128.711726,137.610667 147.049254,141.845333 C147.497518,141.948816 147.933979,142.055557 148.358948,142.165592 L148.358948,142.165592 Z" id="Fill-10-Copy-path" fill="@color0"></path>
        </g>
    </g>
</svg>