<?xml version="1.0" encoding="utf-8"?>
<!-- Generator: Adobe Illustrator 16.0.4, SVG Export Plug-In . SVG Version: 6.00 Build 0)  -->
<!DOCTYPE svg PUBLIC "-//W3C//DTD SVG 1.1//EN" "http://www.w3.org/Graphics/SVG/1.1/DTD/svg11.dtd">
<svg version="1.1" id="Layer_1" xmlns="http://www.w3.org/2000/svg" xmlns:xlink="http://www.w3.org/1999/xlink" x="0px" y="0px"
	 width="571px" height="96.713px" viewBox="-123.076 -20.846 571 96.713" enable-background="new -123.076 -20.846 571 96.713"
	 xml:space="preserve">
<g>
	<g>
		<g>
			<path fill="#FFFFFF" d="M-87.352-3.032c-1.05-1.274-2.333-2.255-3.854-2.936C-92.736-6.652-94.503-6.99-96.5-6.99
				c-2.006,0-3.857,0.384-5.566,1.157c-1.706,0.775-3.188,1.86-4.435,3.244c-1.255,1.392-2.235,3.039-2.938,4.952
				c-0.706,1.914-1.062,3.981-1.062,6.211c0,2.28,0.353,4.361,1.062,6.253c0.703,1.885,1.673,3.523,2.899,4.913
				s2.675,2.468,4.339,3.244c1.659,0.775,3.449,1.159,5.359,1.159c2.185,0,4.12-0.451,5.804-1.367
				c1.687-0.91,3.073-2.182,4.163-3.823l8.88,6.625c-2.048,2.871-4.645,4.983-7.784,6.354c-3.144,1.361-6.376,2.048-9.695,2.048
				c-3.776,0-7.264-0.594-10.446-1.779c-3.188-1.185-5.941-2.877-8.261-5.084c-2.328-2.208-4.138-4.886-5.435-8.028
				c-1.295-3.138-1.944-6.643-1.944-10.514c0-3.866,0.649-7.373,1.944-10.514c1.297-3.138,3.106-5.815,5.432-8.022
				c2.319-2.208,5.073-3.902,8.264-5.085c3.18-1.188,6.667-1.778,10.446-1.778c1.361,0,2.787,0.129,4.269,0.375
				c1.474,0.255,2.934,0.65,4.364,1.196c1.435,0.543,2.815,1.277,4.135,2.185c1.317,0.914,2.502,2.028,3.553,3.345L-87.352-3.032z"
				/>
			<path fill="#FFFFFF" d="M-31.426,14.106c0,2.869-0.435,5.511-1.297,7.923c-0.866,2.411-2.154,4.507-3.857,6.28
				c-1.706,1.778-3.841,3.165-6.388,4.168c-2.549,1.003-5.487,1.502-8.812,1.502c-3.361,0-6.322-0.499-8.872-1.502
				c-2.552-1.003-4.678-2.39-6.39-4.168c-1.703-1.773-2.988-3.869-3.854-6.28c-0.862-2.412-1.297-5.051-1.297-7.923v-29.699h10.653
				v29.291c0,1.501,0.241,2.891,0.717,4.165c0.474,1.274,1.146,2.378,2.012,3.312c0.868,0.933,1.902,1.661,3.109,2.185
				c1.205,0.523,2.513,0.784,3.922,0.784c1.412,0,2.712-0.261,3.894-0.784c1.186-0.523,2.208-1.252,3.076-2.185
				c0.862-0.934,1.535-2.037,2.012-3.312c0.476-1.274,0.717-2.661,0.717-4.165v-29.291h10.653v29.699H-31.426z"/>
			<path fill="#FFFFFF" d="M-21.591-15.593h16.107L5.649,15.95h0.137l11.2-31.543h16.049v48.342H22.381V-4.329h-0.137L9.537,32.749
				H1.416L-10.806-4.329h-0.138v37.078h-10.647V-15.593L-21.591-15.593z"/>
			<path fill="#FFFFFF" d="M83.626,14.106c0,2.869-0.429,5.511-1.294,7.923c-0.865,2.411-2.151,4.507-3.86,6.28
				c-1.709,1.778-3.835,3.165-6.384,4.168c-2.553,1.003-5.485,1.502-8.808,1.502c-3.37,0-6.331-0.499-8.874-1.502
				c-2.553-1.003-4.685-2.39-6.391-4.168c-1.703-1.773-2.997-3.869-3.857-6.28c-0.862-2.412-1.294-5.051-1.294-7.923v-29.699h10.647
				v29.291c0,1.501,0.241,2.891,0.718,4.165c0.476,1.274,1.148,2.378,2.017,3.312c0.863,0.933,1.896,1.661,3.106,2.185
				c1.205,0.523,2.516,0.784,3.922,0.784c1.409,0,2.712-0.261,3.896-0.784c1.183-0.523,2.205-1.252,3.07-2.185
				c0.866-0.934,1.535-2.037,2.018-3.312c0.476-1.274,0.714-2.661,0.714-4.165v-29.291h10.65v29.699H83.626z"/>
			<path fill="#FFFFFF" d="M93.87-15.593h10.653v38.51h19.729v9.832H93.868v-48.342H93.87z"/>
			<path fill="#FFFFFF" d="M127.531,8.574c0-3.866,0.652-7.373,1.946-10.514c1.297-3.138,3.106-5.815,5.429-8.022
				c2.323-2.208,5.076-3.902,8.262-5.085c3.188-1.188,6.67-1.778,10.451-1.778c3.773,0,7.262,0.591,10.443,1.775
				c3.188,1.186,5.944,2.88,8.264,5.085c2.322,2.21,4.132,4.886,5.429,8.022c1.3,3.141,1.947,6.648,1.947,10.517
				c0,3.871-0.647,7.376-1.947,10.514c-1.297,3.143-3.106,5.817-5.429,8.025c-2.319,2.21-5.076,3.902-8.264,5.087
				c-3.182,1.186-6.67,1.776-10.443,1.776c-3.781,0-7.264-0.591-10.448-1.776c-3.186-1.185-5.939-2.877-8.262-5.087
				c-2.322-2.205-4.135-4.883-5.429-8.025C128.183,15.95,127.531,12.445,127.531,8.574z M138.595,8.574
				c0,2.28,0.351,4.361,1.06,6.253c0.706,1.885,1.72,3.523,3.036,4.913c1.319,1.39,2.902,2.468,4.745,3.244
				c1.844,0.775,3.902,1.159,6.183,1.159c2.275,0,4.334-0.384,6.18-1.159c1.844-0.773,3.423-1.854,4.742-3.244
				c1.322-1.39,2.337-3.028,3.04-4.913c0.703-1.892,1.062-3.973,1.062-6.253c0-2.229-0.355-4.297-1.062-6.211
				c-0.703-1.91-1.718-3.561-3.04-4.95c-1.319-1.386-2.898-2.468-4.742-3.243c-1.846-0.776-3.904-1.16-6.18-1.16
				c-2.28,0-4.339,0.384-6.183,1.16c-1.843,0.775-3.426,1.857-4.745,3.243c-1.322,1.393-2.33,3.04-3.036,4.95
				C138.946,4.277,138.595,6.344,138.595,8.574z"/>
			<path fill="#FFFFFF" d="M218.553-3.032c-1.051-1.274-2.334-2.255-3.857-2.936c-1.527-0.684-3.292-1.022-5.289-1.022
				c-2.009,0-3.86,0.384-5.569,1.157c-1.709,0.775-3.188,1.86-4.439,3.244c-1.256,1.392-2.23,3.039-2.937,4.952
				c-0.703,1.911-1.062,3.981-1.062,6.211c0,2.277,0.355,4.361,1.062,6.25c0.706,1.888,1.673,3.526,2.899,4.913
				c1.232,1.39,2.676,2.471,4.34,3.244c1.661,0.775,3.451,1.162,5.358,1.162c2.188,0,4.124-0.453,5.808-1.367
				c1.684-0.91,3.07-2.185,4.162-3.823l8.878,6.625c-2.048,2.868-4.64,4.983-7.788,6.351c-3.141,1.364-6.367,2.048-9.687,2.048
				c-3.785,0-7.267-0.591-10.449-1.776c-3.19-1.185-5.941-2.877-8.267-5.087c-2.319-2.205-4.135-4.883-5.426-8.025
				c-1.297-3.138-1.947-6.646-1.947-10.514s0.65-7.376,1.947-10.517c1.291-3.137,3.106-5.812,5.426-8.022
				c2.325-2.205,5.076-3.902,8.267-5.085c3.18-1.185,6.664-1.775,10.446-1.775c1.358,0,2.787,0.129,4.267,0.375
				c1.476,0.255,2.936,0.65,4.37,1.196c1.434,0.543,2.81,1.277,4.132,2.185c1.313,0.914,2.501,2.028,3.546,3.345L218.553-3.032z"/>
			<path fill="#FFFFFF" d="M233.574-15.593h10.65v48.342h-10.65V-15.593z"/>
			<path fill="#FFFFFF" d="M263.276-6.172h-13.788v-9.421h38.234v9.421h-13.79v38.921h-10.656V-6.172L263.276-6.172z"/>
			<path fill="#FFFFFF" d="M304.999,12.126l-18.167-27.719h13.25l10.242,18.091l10.857-18.091h12.628l-18.16,27.719v20.623h-10.65
				V12.126z"/>
			<path fill="#FFFFFF" d="M357.433-15.593h10.653v48.342h-10.653V-15.593z"/>
			<path fill="#FFFFFF" d="M375.258,16.154c0-2.636,0.477-5.031,1.432-7.168c0.961-2.138,2.261-3.973,3.925-5.497
				c1.661-1.526,3.622-2.7,5.877-3.516c2.249-0.823,4.65-1.229,7.205-1.229c2.546,0,4.947,0.406,7.205,1.229
				c2.249,0.815,4.207,1.989,5.871,3.516c1.661,1.524,2.967,3.359,3.925,5.497c0.955,2.137,1.435,4.532,1.435,7.168
				c0,2.639-0.479,5.031-1.435,7.169c-0.958,2.146-2.264,3.975-3.925,5.496c-1.664,1.529-3.622,2.697-5.871,3.519
				c-2.258,0.817-4.659,1.229-7.205,1.229c-2.555,0-4.95-0.412-7.205-1.229c-2.255-0.821-4.216-1.992-5.877-3.519
				c-1.664-1.524-2.964-3.351-3.925-5.496C375.734,21.185,375.258,18.799,375.258,16.154z M385.5,16.154
				c0,2.505,0.717,4.532,2.151,6.076c1.434,1.552,3.448,2.325,6.045,2.325c2.594,0,4.605-0.773,6.042-2.325
				c1.429-1.544,2.148-3.571,2.148-6.076c0-2.501-0.72-4.532-2.148-6.076c-1.437-1.543-3.454-2.322-6.042-2.322
				c-2.6,0-4.611,0.779-6.045,2.322C386.217,11.625,385.5,13.653,385.5,16.154z"/>
			<path fill="#FFFFFF" d="M421.964-6.172h-13.796v-9.421h38.24v9.421h-13.794v38.921h-10.65V-6.172L421.964-6.172z"/>
		</g>
	</g>
	<g>
		<path fill="#FFFFFF" d="M-121.561,55.187h4.955c0.675,0,1.334,0.07,1.975,0.208c0.642,0.137,1.216,0.363,1.721,0.675
			c0.507,0.313,0.916,0.726,1.229,1.229c0.311,0.505,0.468,1.132,0.468,1.88c0,0.949-0.255,1.734-0.768,2.354
			c-0.513,0.618-1.204,1.059-2.075,1.319v0.047c0.518,0.045,1.005,0.18,1.456,0.401c0.451,0.221,0.841,0.51,1.171,0.859
			c0.328,0.354,0.586,0.762,0.768,1.228c0.186,0.468,0.274,0.969,0.274,1.504c0,0.902-0.188,1.645-0.56,2.228
			c-0.376,0.579-0.866,1.042-1.471,1.386c-0.603,0.345-1.283,0.586-2.043,0.724c-0.756,0.137-1.51,0.207-2.26,0.207h-4.841V55.187z
			 M-119.634,62.073h2.661c0.46,0,0.908-0.03,1.345-0.092c0.435-0.062,0.829-0.188,1.18-0.379c0.353-0.19,0.636-0.459,0.852-0.804
			c0.213-0.345,0.319-0.799,0.319-1.364c0-0.507-0.098-0.916-0.297-1.229c-0.199-0.314-0.465-0.561-0.793-0.745
			c-0.327-0.183-0.703-0.312-1.123-0.379c-0.423-0.069-0.846-0.104-1.274-0.104h-2.869V62.073z M-119.634,69.645h3.258
			c0.477,0,0.944-0.051,1.412-0.148c0.468-0.102,0.888-0.261,1.264-0.482c0.372-0.221,0.675-0.513,0.904-0.874
			c0.23-0.358,0.345-0.798,0.345-1.319c0-0.565-0.112-1.039-0.333-1.42c-0.222-0.384-0.513-0.689-0.871-0.919
			s-0.773-0.39-1.238-0.481c-0.468-0.093-0.947-0.138-1.435-0.138h-3.306V69.645z"/>
		<path fill="#FFFFFF" d="M-103.731,64.434l-6.06-9.247h2.457l4.566,7.346l4.703-7.346h2.319l-6.06,9.247v7.001h-1.927V64.434z"/>
		<path fill="#FFFFFF" d="M-80.712,58.676c-0.309-0.443-0.718-0.768-1.228-0.976c-0.516-0.207-1.053-0.311-1.619-0.311
			c-0.336,0-0.661,0.039-0.975,0.115c-0.313,0.078-0.597,0.198-0.849,0.369c-0.252,0.168-0.457,0.387-0.608,0.653
			c-0.153,0.269-0.229,0.585-0.229,0.952c0,0.552,0.19,0.972,0.574,1.264c0.381,0.288,0.854,0.54,1.421,0.756
			c0.565,0.213,1.188,0.42,1.859,0.619c0.673,0.199,1.292,0.474,1.86,0.826c0.565,0.354,1.039,0.818,1.42,1.401
			c0.384,0.579,0.574,1.353,0.574,2.316c0,0.871-0.159,1.633-0.481,2.283c-0.319,0.649-0.754,1.19-1.297,1.619
			c-0.544,0.429-1.174,0.748-1.891,0.963c-0.721,0.213-1.479,0.319-2.275,0.319c-1.008,0-1.98-0.168-2.913-0.504
			s-1.736-0.902-2.409-1.697l2.18-2.112c0.353,0.538,0.815,0.952,1.39,1.252c0.574,0.297,1.182,0.448,1.823,0.448
			c0.336,0,0.672-0.048,1.012-0.14c0.336-0.09,0.641-0.23,0.916-0.412c0.277-0.185,0.498-0.417,0.666-0.7s0.252-0.608,0.252-0.975
			c0-0.597-0.19-1.057-0.574-1.379c-0.381-0.319-0.856-0.591-1.423-0.812c-0.565-0.221-1.185-0.434-1.857-0.633
			c-0.675-0.199-1.294-0.471-1.859-0.812c-0.566-0.345-1.04-0.804-1.424-1.378c-0.381-0.574-0.574-1.342-0.574-2.306
			c0-0.843,0.174-1.568,0.519-2.182c0.345-0.611,0.796-1.121,1.354-1.524c0.557-0.406,1.195-0.709,1.916-0.907
			c0.72-0.199,1.453-0.297,2.201-0.297c0.857,0,1.689,0.129,2.49,0.389c0.805,0.261,1.527,0.689,2.169,1.286L-80.712,58.676z"/>
		<path fill="#FFFFFF" d="M-76.835,63.382c0-1.303,0.213-2.482,0.642-3.547c0.428-1.064,1.022-1.969,1.778-2.72
			c0.757-0.748,1.661-1.328,2.709-1.731c1.048-0.406,2.199-0.607,3.454-0.607c1.269-0.018,2.432,0.171,3.487,0.56
			c1.057,0.393,1.967,0.961,2.731,1.712c0.765,0.748,1.361,1.65,1.79,2.706s0.642,2.235,0.642,3.535c0,1.27-0.213,2.426-0.642,3.465
			c-0.429,1.04-1.025,1.937-1.79,2.685c-0.765,0.75-1.675,1.336-2.731,1.756c-1.056,0.42-2.219,0.639-3.487,0.652
			c-1.255,0-2.406-0.201-3.454-0.607c-1.048-0.403-1.952-0.978-2.709-1.72c-0.756-0.742-1.351-1.634-1.778-2.673
			C-76.622,65.804-76.835,64.65-76.835,63.382z M-73.807,63.196c0,0.872,0.134,1.676,0.403,2.409
			c0.266,0.734,0.644,1.37,1.134,1.905s1.076,0.958,1.757,1.264c0.681,0.305,1.439,0.459,2.283,0.459
			c0.84,0,1.605-0.154,2.294-0.459c0.689-0.306,1.277-0.729,1.768-1.264s0.868-1.171,1.135-1.905
			c0.269-0.733,0.403-1.537,0.403-2.409c0-0.81-0.135-1.568-0.403-2.271c-0.267-0.703-0.645-1.319-1.135-1.846
			c-0.49-0.529-1.078-0.941-1.768-1.241c-0.688-0.297-1.454-0.448-2.294-0.448c-0.844,0-1.603,0.151-2.283,0.448
			c-0.681,0.3-1.267,0.712-1.757,1.241c-0.49,0.526-0.868,1.143-1.134,1.846C-73.673,61.628-73.807,62.386-73.807,63.196z"/>
		<path fill="#FFFFFF" d="M-57.308,55.187h10.488v2.617h-7.597v4.269h7.16v2.616h-7.16v6.746h-2.892V55.187z"/>
		<path fill="#FFFFFF" d="M-41.268,57.804h-4.98v-2.617h12.853v2.617h-4.98v13.631h-2.892V57.804z"/>
		<path fill="#FFFFFF" d="M-33.693,55.187h3.165l3.054,11.704h0.045l3.65-11.704h2.846l3.58,11.704h0.045l3.19-11.704h2.936
			l-4.726,16.248h-2.754l-3.765-12.368h-0.045l-3.765,12.368h-2.661L-33.693,55.187z"/>
		<path fill="#FFFFFF" d="M-5.148,55.187h2.502l7,16.248H1.049l-1.515-3.718h-7.046l-1.468,3.718h-3.235L-5.148,55.187z
			 M-1.475,65.239l-2.502-6.608l-2.546,6.608H-1.475z"/>
		<path fill="#FFFFFF" d="M5.708,55.187h5.645c0.781,0,1.535,0.073,2.261,0.219c0.729,0.146,1.372,0.396,1.941,0.745
			c0.565,0.354,1.017,0.826,1.353,1.423s0.505,1.354,0.505,2.272c0,1.179-0.325,2.165-0.976,2.961
			c-0.649,0.795-1.58,1.277-2.787,1.445l4.314,7.183h-3.488l-3.765-6.886H8.598v6.886H5.708V55.187z M10.848,62.073
			c0.414,0,0.826-0.02,1.24-0.059c0.412-0.036,0.79-0.129,1.135-0.274s0.625-0.367,0.838-0.667c0.213-0.297,0.322-0.714,0.322-1.249
			c0-0.474-0.102-0.857-0.3-1.148c-0.199-0.289-0.46-0.508-0.779-0.653c-0.322-0.146-0.678-0.24-1.067-0.288
			c-0.389-0.045-0.77-0.067-1.137-0.067H8.598v4.406H10.848z"/>
		<path fill="#FFFFFF" d="M19.706,55.187h10.763v2.617h-7.872v3.991h7.46v2.616h-7.46v4.407h8.286v2.616H19.706V55.187z"/>
		<path fill="#FFFFFF" d="M44.856,55.187h2.501l7.001,16.248h-3.306l-1.516-3.718h-7.045l-1.469,3.718h-3.235L44.856,55.187z
			 M48.528,65.239l-2.501-6.608l-2.547,6.608H48.528z"/>
		<path fill="#FFFFFF" d="M70.146,70.242c-2.006,1.07-4.247,1.604-6.724,1.604c-1.255,0-2.406-0.201-3.454-0.607
			c-1.048-0.403-1.952-0.978-2.709-1.72c-0.756-0.742-1.35-1.634-1.778-2.673c-0.429-1.042-0.642-2.196-0.642-3.465
			c0-1.303,0.213-2.482,0.642-3.547s1.022-1.969,1.778-2.72c0.757-0.748,1.661-1.328,2.709-1.731
			c1.048-0.406,2.199-0.607,3.454-0.607c1.238,0,2.401,0.148,3.487,0.445c1.087,0.3,2.057,0.832,2.914,1.597l-2.135,2.157
			c-0.519-0.505-1.151-0.896-1.891-1.171c-0.742-0.275-1.527-0.415-2.354-0.415c-0.843,0-1.603,0.151-2.283,0.448
			c-0.681,0.3-1.266,0.712-1.756,1.241c-0.49,0.526-0.869,1.143-1.135,1.846c-0.269,0.703-0.403,1.462-0.403,2.271
			c0,0.872,0.135,1.676,0.403,2.409c0.266,0.734,0.645,1.37,1.135,1.905s1.075,0.958,1.756,1.264
			c0.681,0.305,1.44,0.459,2.283,0.459c0.734,0,1.426-0.07,2.076-0.207c0.649-0.138,1.229-0.354,1.733-0.645V64.55h-3.327v-2.613
			h6.219V70.242z"/>
	</g>
</g>
</svg>
