<svg width="177" height="32" viewBox="0 0 177 32" fill="none" xmlns="http://www.w3.org/2000/svg">
<path d="M17.0636 13.2952C12.8792 12.2137 9.03575 10.8471 9.03575 6.03577H3C3 15.0608 8.89351 17.1959 14.8149 18.7048C19 19.787 22.8435 20.7616 22.8435 25.9643H28.8792C28.8785 16.861 22.8999 14.8042 17.0636 13.2952Z" fill="url(#paint0_linear_1150_10862)"/>
<path d="M7.86847 32H16.7513C20.0822 32 22.8434 29.4374 22.8434 25.9642H7.86847V32Z" fill="#011F3D"/>
<path d="M23.9821 0H15.128C11.797 0 9.03577 2.56256 9.03577 6.03575H23.9821V0Z" fill="#011F3D"/>
<line x1="40.5" y1="2.45877e-08" x2="40.5" y2="32" stroke="#537393"/>
<path d="M63.1885 17.7373C63.0889 19.1143 62.5791 20.1982 61.6592 20.9893C60.7451 21.7803 59.5381 22.1758 58.0381 22.1758C56.3975 22.1758 55.1055 21.625 54.1621 20.5234C53.2246 19.416 52.7559 17.8984 52.7559 15.9707V15.1885C52.7559 13.958 52.9727 12.874 53.4062 11.9365C53.8398 10.999 54.458 10.2812 55.2607 9.7832C56.0693 9.2793 57.0068 9.02734 58.0732 9.02734C59.5498 9.02734 60.7393 9.42285 61.6416 10.2139C62.5439 11.0049 63.0654 12.1152 63.2061 13.5449H60.5693C60.5049 12.7188 60.2734 12.1211 59.875 11.752C59.4824 11.377 58.8818 11.1895 58.0732 11.1895C57.1943 11.1895 56.5352 11.5059 56.0957 12.1387C55.6621 12.7656 55.4395 13.7412 55.4277 15.0654V16.0322C55.4277 17.415 55.6357 18.4258 56.0518 19.0645C56.4736 19.7031 57.1357 20.0225 58.0381 20.0225C58.8525 20.0225 59.459 19.8379 59.8574 19.4688C60.2617 19.0938 60.4932 18.5166 60.5518 17.7373H63.1885Z" fill="#011F3D"/>
<path d="M70.4482 21.0332C69.8213 21.7949 68.9541 22.1758 67.8467 22.1758C66.8271 22.1758 66.0479 21.8828 65.5088 21.2969C64.9756 20.7109 64.7031 19.8525 64.6914 18.7217V12.4902H67.2314V18.6338C67.2314 19.624 67.6826 20.1191 68.585 20.1191C69.4463 20.1191 70.0381 19.8203 70.3604 19.2227V12.4902H72.9092V22H70.5186L70.4482 21.0332Z" fill="#011F3D"/>
<path d="M77.207 12.4902L77.2861 13.5537C77.96 12.7275 78.8711 12.3145 80.0195 12.3145C81.2441 12.3145 82.085 12.7979 82.542 13.7646C83.21 12.7979 84.1621 12.3145 85.3984 12.3145C86.4297 12.3145 87.1973 12.6162 87.7012 13.2197C88.2051 13.8174 88.457 14.7197 88.457 15.9268V22H85.9082V15.9355C85.9082 15.3965 85.8027 15.0039 85.5918 14.7578C85.3809 14.5059 85.0088 14.3799 84.4756 14.3799C83.7139 14.3799 83.1865 14.7432 82.8936 15.4697L82.9023 22H80.3623V15.9443C80.3623 15.3936 80.2539 14.9951 80.0371 14.749C79.8203 14.5029 79.4512 14.3799 78.9297 14.3799C78.209 14.3799 77.6875 14.6787 77.3652 15.2764V22H74.8252V12.4902H77.207Z" fill="#011F3D"/>
<path d="M96.1123 21.0332C95.4854 21.7949 94.6182 22.1758 93.5107 22.1758C92.4912 22.1758 91.7119 21.8828 91.1729 21.2969C90.6396 20.7109 90.3672 19.8525 90.3555 18.7217V12.4902H92.8955V18.6338C92.8955 19.624 93.3467 20.1191 94.249 20.1191C95.1104 20.1191 95.7021 19.8203 96.0244 19.2227V12.4902H98.5732V22H96.1826L96.1123 21.0332Z" fill="#011F3D"/>
<path d="M103.17 22H100.621V8.5H103.17V22Z" fill="#011F3D"/>
<path d="M104.875 17.1572C104.875 16.2139 105.057 15.373 105.42 14.6348C105.783 13.8965 106.305 13.3252 106.984 12.9209C107.67 12.5166 108.464 12.3145 109.366 12.3145C110.649 12.3145 111.695 12.707 112.504 13.4922C113.318 14.2773 113.772 15.3438 113.866 16.6914L113.884 17.3418C113.884 18.8008 113.477 19.9727 112.662 20.8574C111.848 21.7363 110.755 22.1758 109.384 22.1758C108.013 22.1758 106.917 21.7363 106.097 20.8574C105.282 19.9785 104.875 18.7832 104.875 17.2715V17.1572ZM107.415 17.3418C107.415 18.2441 107.585 18.9355 107.925 19.416C108.265 19.8906 108.751 20.1279 109.384 20.1279C109.999 20.1279 110.479 19.8936 110.825 19.4248C111.171 18.9502 111.344 18.1943 111.344 17.1572C111.344 16.2725 111.171 15.5869 110.825 15.1006C110.479 14.6143 109.993 14.3711 109.366 14.3711C108.745 14.3711 108.265 14.6143 107.925 15.1006C107.585 15.5811 107.415 16.3281 107.415 17.3418Z" fill="#011F3D"/>
<path d="M119.403 20.1279C119.872 20.1279 120.253 19.999 120.546 19.7412C120.839 19.4834 120.991 19.1406 121.003 18.7129H123.385C123.379 19.3574 123.203 19.9492 122.857 20.4883C122.512 21.0215 122.037 21.4375 121.434 21.7363C120.836 22.0293 120.174 22.1758 119.447 22.1758C118.088 22.1758 117.016 21.7451 116.23 20.8838C115.445 20.0166 115.053 18.8213 115.053 17.2979V17.1309C115.053 15.666 115.442 14.4971 116.222 13.624C117.001 12.751 118.07 12.3145 119.43 12.3145C120.619 12.3145 121.571 12.6543 122.286 13.334C123.007 14.0078 123.373 14.9072 123.385 16.0322H121.003C120.991 15.54 120.839 15.1416 120.546 14.8369C120.253 14.5264 119.866 14.3711 119.386 14.3711C118.794 14.3711 118.346 14.5879 118.041 15.0215C117.742 15.4492 117.593 16.1465 117.593 17.1133V17.377C117.593 18.3555 117.742 19.0586 118.041 19.4863C118.34 19.9141 118.794 20.1279 119.403 20.1279Z" fill="#011F3D"/>
<path d="M127.516 22H124.967V12.4902H127.516V22ZM124.817 10.0293C124.817 9.64844 124.943 9.33496 125.195 9.08887C125.453 8.84277 125.802 8.71973 126.241 8.71973C126.675 8.71973 127.021 8.84277 127.278 9.08887C127.536 9.33496 127.665 9.64844 127.665 10.0293C127.665 10.416 127.533 10.7324 127.27 10.9785C127.012 11.2246 126.669 11.3477 126.241 11.3477C125.813 11.3477 125.468 11.2246 125.204 10.9785C124.946 10.7324 124.817 10.416 124.817 10.0293Z" fill="#011F3D"/>
<path d="M132.657 10.1523V12.4902H134.283V14.3535H132.657V19.0996C132.657 19.4512 132.725 19.7031 132.859 19.8555C132.994 20.0078 133.252 20.084 133.633 20.084C133.914 20.084 134.163 20.0635 134.38 20.0225V21.9473C133.882 22.0996 133.369 22.1758 132.842 22.1758C131.061 22.1758 130.152 21.2764 130.117 19.4775V14.3535H128.729V12.4902H130.117V10.1523H132.657Z" fill="#011F3D"/>
<path d="M139.249 18.4053L141.007 12.4902H143.731L139.908 23.4766L139.697 23.9775C139.129 25.2197 138.191 25.8408 136.885 25.8408C136.516 25.8408 136.141 25.7852 135.76 25.6738V23.749L136.146 23.7578C136.627 23.7578 136.984 23.6846 137.219 23.5381C137.459 23.3916 137.646 23.1484 137.781 22.8086L138.08 22.0264L134.749 12.4902H137.482L139.249 18.4053Z" fill="#011F3D"/>
<path d="M152.187 22H149.55V9.20312H152.187V22Z" fill="#011F3D"/>
<path d="M154.076 17.1572C154.076 16.2139 154.258 15.373 154.621 14.6348C154.984 13.8965 155.506 13.3252 156.186 12.9209C156.871 12.5166 157.665 12.3145 158.567 12.3145C159.851 12.3145 160.896 12.707 161.705 13.4922C162.52 14.2773 162.974 15.3438 163.067 16.6914L163.085 17.3418C163.085 18.8008 162.678 19.9727 161.863 20.8574C161.049 21.7363 159.956 22.1758 158.585 22.1758C157.214 22.1758 156.118 21.7363 155.298 20.8574C154.483 19.9785 154.076 18.7832 154.076 17.2715V17.1572ZM156.616 17.3418C156.616 18.2441 156.786 18.9355 157.126 19.416C157.466 19.8906 157.952 20.1279 158.585 20.1279C159.2 20.1279 159.681 19.8936 160.026 19.4248C160.372 18.9502 160.545 18.1943 160.545 17.1572C160.545 16.2725 160.372 15.5869 160.026 15.1006C159.681 14.6143 159.194 14.3711 158.567 14.3711C157.946 14.3711 157.466 14.6143 157.126 15.1006C156.786 15.5811 156.616 16.3281 156.616 17.3418Z" fill="#011F3D"/>
<path d="M174.449 11.3389H170.529V22H167.893V11.3389H164.025V9.20312H174.449V11.3389Z" fill="#011F3D"/>
<defs>
<linearGradient id="paint0_linear_1150_10862" x1="3" y1="15.9999" x2="28.8788" y2="15.9999" gradientUnits="userSpaceOnUse">
<stop stop-color="#8E3CF7"/>
<stop offset="1" stop-color="#3CC1B7"/>
</linearGradient>
</defs>
</svg>
