<?xml version="1.0" encoding="UTF-8" standalone="no"?>
<svg
   xmlns:dc="http://purl.org/dc/elements/1.1/"
   xmlns:cc="http://creativecommons.org/ns#"
   xmlns:rdf="http://www.w3.org/1999/02/22-rdf-syntax-ns#"
   xmlns:svg="http://www.w3.org/2000/svg"
   xmlns="http://www.w3.org/2000/svg"
   xmlns:sodipodi="http://sodipodi.sourceforge.net/DTD/sodipodi-0.dtd"
   xmlns:inkscape="http://www.inkscape.org/namespaces/inkscape"
   width="674px"
   height="112px"
   viewBox="0 0 674 112"
   version="1.1"
   id="svg3553"
   inkscape:version="0.91 r13725"
   sodipodi:docname="logo.svg"
   inkscape:export-filename="/tmp/src/smartrest/doc/img/logo.png"
   inkscape:export-xdpi="90"
   inkscape:export-ydpi="90">
  <metadata
     id="metadata3567">
    <rdf:RDF>
      <cc:Work
         rdf:about="">
        <dc:format>image/svg+xml</dc:format>
        <dc:type
           rdf:resource="http://purl.org/dc/dcmitype/StillImage" />
      </cc:Work>
    </rdf:RDF>
  </metadata>
  <sodipodi:namedview
     pagecolor="#ffffff"
     bordercolor="#666666"
     borderopacity="1"
     objecttolerance="10"
     gridtolerance="10"
     guidetolerance="10"
     inkscape:pageopacity="0"
     inkscape:pageshadow="2"
     inkscape:window-width="1920"
     inkscape:window-height="1016"
     id="namedview3565"
     showgrid="false"
     inkscape:zoom="2.1617211"
     inkscape:cx="332.7272"
     inkscape:cy="56"
     inkscape:window-x="0"
     inkscape:window-y="27"
     inkscape:window-maximized="1"
     inkscape:current-layer="svg3553" />
  <!-- Generator: Sketch 3.7.2 (28276) - http://www.bohemiancoding.com/sketch -->
  <title
     id="title3555">Logo Cumulocity</title>
  <desc
     id="desc3557">Created with Sketch.</desc>
  <defs
     id="defs3559" />
  <g
     id="Page-1"
     stroke="none"
     stroke-width="1"
     fill="none"
     fill-rule="evenodd">
    <g
       id="Logo-Cumulocity">
      <path
         d="M88.38,103.836 C77.437,103.836 68.198,96.007 66.155,85.527 C50.637,85.517 47.71,85.429 46.896,85.361 C46.614,85.338 46.335,85.277 46.069,85.179 C45.742,85.06 38.58,82.372 34.734,74.226 C24.612,74.185 17.681,74.15 17.681,74.15 C11.553,74.084 0,70.761 0,58.667 C0,53.602 1.585,49.627 4.71,46.852 C7.689,44.206 11.433,43.316 14.201,43.051 C14.263,39.841 15.241,35.267 19.492,31.509 C23.659,27.821 28.621,27.443 32.064,27.782 C32.916,17.898 38.552,3.407 56.114,0.501 C76.337,-2.846 87.666,11.322 92.003,21.795 C99.015,18.643 108.44,18.985 116.365,22.96 C125.646,27.614 130.969,36.104 130.969,46.254 C130.969,51.68 129.886,56.572 127.741,60.858 C131.849,62.504 135.177,66.158 135.177,72.667 C135.177,82.594 125.766,85.321 120.789,85.375 L110.627,85.42 C108.632,95.959 99.383,103.836 88.38,103.836 L88.38,103.836 Z M47.899,79.009 C49.48,79.069 54.615,79.129 68.969,79.129 C70.663,79.129 72.063,80.449 72.163,82.141 C72.671,90.717 79.795,97.436 88.38,97.436 C97.008,97.436 104.134,90.682 104.602,82.059 C104.694,80.367 106.089,79.038 107.784,79.032 L120.739,78.973 C120.728,78.973 123.054,78.915 125.238,77.94 C127.653,76.86 128.778,75.184 128.778,72.666 C128.778,70.979 128.778,66.503 122.439,66.192 C122.427,66.192 122.414,66.19 122.402,66.19 C122.283,66.184 122.172,66.178 122.065,66.182 C122.057,66.18 122.053,66.182 122.046,66.182 C122.012,66.171 121.949,66.18 121.9,66.178 C121.495,66.182 121.226,66.203 121.171,66.208 C120.822,66.243 120.474,66.218 120.139,66.141 C119.436,65.987 118.785,65.608 118.327,65.048 C117.674,64.25 117.398,63.19 117.666,62.194 C117.693,62.079 118.528,58.483 115.605,55.896 C114.415,54.844 112.856,54.333 110.974,54.362 C109.495,54.403 108.384,54.775 108.373,54.779 C108.13,54.862 107.88,54.914 107.629,54.937 C106.806,55.043 105.972,54.828 105.295,54.319 C104.445,53.681 103.98,52.658 104.033,51.597 C104.06,50.956 104.557,35.637 90.091,33.243 C89.026,33.066 87.961,32.962 86.926,32.934 L86.925,32.934 C72.75,32.638 68.119,47.414 67.775,48.582 C67.68,48.941 67.521,49.29 67.295,49.61 C66.66,50.508 65.651,50.985 64.625,50.964 C63.89,50.99 63.245,50.754 62.675,50.329 C60.794,48.926 58.125,48.154 55.153,48.154 C55.134,48.154 55.113,48.156 55.094,48.154 C55.094,48.154 55.094,48.154 55.093,48.154 C47.223,48.211 38.847,53.451 38.847,63.054 C38.847,64.525 39.204,66.836 39.909,69.922 C39.926,69.994 39.944,70.074 39.962,70.159 C42.096,75.918 46.602,78.396 47.899,79.009 L47.899,79.009 Z M17.743,67.752 C17.766,67.752 23.771,67.782 32.746,67.82 C32.485,66.28 32.353,64.687 32.353,63.052 C32.353,49.761 43.899,41.786 55.065,41.751 C57.872,41.749 60.539,42.217 62.892,43.153 C66.26,35.63 73.88,26.265 86.907,26.527 C86.247,24.629 84.327,19.78 80.619,15.34 C74.578,8.105 66.685,5.236 57.159,6.812 C37.631,10.044 38.33,30.63 38.369,31.505 C38.417,32.57 37.931,33.593 37.074,34.227 C36.216,34.861 35.099,35.029 34.095,34.67 C34.05,34.655 27.916,32.598 23.732,36.3 C19.511,40.032 20.74,45.189 20.794,45.406 C21.049,46.427 20.79,47.522 20.094,48.312 C19.399,49.101 18.365,49.511 17.318,49.389 C17.283,49.384 12.068,48.849 8.935,51.657 C7.229,53.188 6.4,55.48 6.4,58.667 C6.4,67.3 16.583,67.732 17.743,67.752 L17.743,67.752 L17.743,67.752 Z M111.261,47.955 C114.604,47.955 117.604,49.037 119.937,51.099 C121.421,52.413 122.44,53.888 123.118,55.377 C124.083,52.621 124.569,49.571 124.569,46.252 C124.569,35.793 117.631,30.752 113.496,28.679 C107.277,25.562 99.758,25.25 94.507,27.679 C101.052,29.641 105.838,34.034 108.456,40.532 C109.559,43.271 110.081,45.923 110.325,47.977 C110.493,47.969 110.665,47.962 110.84,47.959 C110.981,47.957 111.122,47.955 111.261,47.955 L111.261,47.955 Z M72.272,74.318 L72.216,74.318 C70.458,74.289 69.054,72.859 69.071,71.101 C69.072,70.955 69.391,56.41 84.99,56.142 L85.046,56.142 C86.788,56.142 88.214,57.538 88.245,59.287 C88.275,61.055 86.868,62.511 85.1,62.542 C76.135,62.695 75.505,69.771 75.47,71.188 C75.427,72.924 74.004,74.318 72.272,74.318 L72.272,74.318 Z"
         id="Shape"
         fill="#00BDD6" />
      <path
         d="M192.726,86.534 C173.413,86.534 157.757,70.068 157.757,49.734 C157.757,29.505 173.413,13.041 192.726,13.041 C208.791,13.041 220.582,22.594 225.053,36.52 L216.006,36.52 C212.141,27.675 204.214,21.27 192.726,21.27 C178.189,21.27 166.297,34.183 166.297,49.734 C166.297,65.291 178.189,78.2 192.726,78.2 C203.094,78.2 211.737,72.304 216.006,62.951 L225.053,62.951 C220.271,77.284 207.874,86.534 192.726,86.534 Z M269.477,32.965 L278.119,32.965 L278.119,64.68 C278.119,77.897 268.563,86.534 256.265,86.534 C243.96,86.534 234.406,77.894 234.406,64.68 L234.406,32.965 L242.945,32.965 L242.945,64.68 C242.945,72.51 248.13,78.201 256.265,78.201 C264.292,78.201 269.477,72.511 269.477,64.68 L269.477,32.965 Z M362.28,85.314 L353.64,85.314 L353.64,51.464 C353.64,44.651 349.17,39.568 342.257,39.568 C335.344,39.568 330.869,44.65 330.869,51.464 L330.869,85.314 L322.231,85.314 L322.231,51.464 C322.231,44.651 317.754,39.568 310.844,39.568 C303.931,39.568 299.459,44.65 299.459,51.464 L299.459,85.314 L290.82,85.314 L290.82,51.77 C290.82,40.384 299.053,31.643 310.844,31.643 C317.958,31.643 323.45,34.997 326.5,40.287 C329.651,34.998 335.142,31.643 342.257,31.643 C354.15,31.643 362.278,40.384 362.278,51.77 L362.28,85.314 Z M410.156,32.965 L418.8,32.965 L418.8,64.68 C418.8,77.897 409.246,86.534 396.946,86.534 C384.646,86.534 375.088,77.894 375.088,64.68 L375.088,32.965 L383.627,32.965 L383.627,64.68 C383.627,72.51 388.812,78.201 396.946,78.201 C404.976,78.201 410.158,72.511 410.158,64.68 L410.156,32.965 Z M431.707,9.687 L440.248,9.687 L440.248,65.902 C440.248,75.152 445.939,77.492 452.447,77.181 L452.447,85.316 C440.144,86.741 431.707,79.523 431.707,66.204 L431.707,9.687 Z M500.542,59.294 C500.542,48.618 492.614,39.872 482.852,39.872 C473.197,39.872 465.268,48.618 465.268,59.294 C465.268,69.764 473.197,78.305 482.852,78.305 C492.614,78.305 500.542,69.764 500.542,59.294 Z M509.181,59.294 C509.181,74.338 497.796,86.637 482.852,86.637 C468.012,86.637 456.527,74.338 456.527,59.294 C456.527,44.046 468.012,31.643 482.852,31.643 C497.796,31.643 509.181,44.046 509.181,59.294 Z M542.628,86.534 C528.192,86.534 516.401,74.338 516.401,59.191 C516.401,44.045 528.192,31.642 542.628,31.642 C554.32,31.642 563.469,38.553 567.024,49.121 L557.771,49.121 C554.823,43.433 549.436,39.871 542.626,39.871 C532.971,39.871 525.042,48.618 525.042,59.191 C525.042,69.76 532.971,78.302 542.626,78.302 C549.535,78.302 554.927,74.74 557.771,69.046 L567.024,69.046 C563.566,79.624 554.32,86.534 542.628,86.534 Z M586.238,85.314 L577.596,85.314 L577.596,32.964 L586.238,32.964 L586.238,85.314 Z M577.598,25.034 L577.598,18.528 C577.598,16.194 579.533,14.364 581.867,14.364 C584.308,14.364 586.24,16.194 586.24,18.528 L586.24,25.034 L577.598,25.034 Z M620.596,85.314 C608.402,86.741 599.963,79.523 599.963,66.203 L599.963,21.78 L608.499,21.78 L608.499,32.965 L620.395,32.965 L620.395,41.197 L608.499,41.197 L608.499,66.203 C608.499,75.457 614.092,77.793 620.596,77.387 L620.596,85.314 L620.596,85.314 Z M673.953,32.965 L673.953,89.18 C673.953,102.899 664.4,111.033 652.097,111.033 C641.12,111.033 632.58,104.533 630.547,93.755 L639.289,93.755 C641.12,99.344 645.391,102.699 652.097,102.699 C660.127,102.699 665.315,97.212 665.315,89.18 L665.315,81.354 C662.164,84.708 657.794,86.536 652.097,86.536 C639.796,86.536 630.244,77.897 630.244,64.681 L630.244,32.965 L638.782,32.965 L638.782,64.68 C638.782,72.51 643.966,78.201 652.095,78.201 C660.125,78.201 665.312,72.511 665.312,64.68 L665.312,32.965 L673.953,32.965 Z"
         id="cumulocity"
         fill="#FFFFFF"
         style="fill:#1a1a1a" />
    </g>
  </g>
</svg>
