<?xml version="1.0" encoding="UTF-8" standalone="no"?>
<svg width="200px" height="200px" viewBox="0 0 200 200" version="1.1" xmlns="http://www.w3.org/2000/svg" xmlns:xlink="http://www.w3.org/1999/xlink">
    <!-- Generator: Sketch 46.2 (44496) - http://www.bohemiancoding.com/sketch -->
    <title>add-user</title>
    <desc>Created with Sketch.</desc>
    <defs>
        <polygon id="path-1" points="73.3333333 72.231369 73.3333333 0.253392857 0.0469333333 0.253392857 0.0469333333 72.231369 73.3333333 72.231369"></polygon>
    </defs>
    <g id="Page-1" stroke="none" stroke-width="1" fill="none" fill-rule="evenodd">
        <g id="add-user">
            <path d="M123.876765,200 L0.0387394042,200 C0.0387394042,172.547867 -2.15129651,157.411996 26.4015625,150.796396 C54.3484406,144.323714 81.9405011,138.532227 68.6753685,113.982516 C29.3756525,41.240308 57.4633946,0 99.6734132,0 C141.064826,0 173.051576,41.0225929 130.664813,113.982516 C120.3751,131.708262 109.361133,146.934959 109.361133,163.230197 C109.361133,177.43911 114.880076,190.379131 123.876765,200" id="Fill-48" fill="white"></path>
            <g id="Group-52" transform="translate(126.666667, 126.666667)">
                <mask id="mask-2" fill="white">
                    <use xlink:href="#path-1"></use>
                </mask>
                <g id="Clip-51"></g>
                <path d="M59.2096,30.7456548 L43.3442667,30.7456548 L43.3442667,15.1741071 L31.0989333,15.1741071 L31.0989333,30.7456548 L15.2322667,30.7456548 L15.2322667,42.7841071 L31.0989333,42.7841071 L31.0989333,58.3582738 L43.3442667,58.3582738 L43.3442667,42.7841071 L59.2096,42.7841071 L59.2096,30.7456548 Z M73.3336,36.2417262 C73.3336,56.1229167 56.9122667,72.231369 36.6909333,72.231369 C16.4536,72.231369 0.0469333333,56.1229167 0.0469333333,36.2417262 C0.0469333333,16.3710119 16.4549333,0.253392857 36.6909333,0.253392857 C56.9122667,0.253392857 73.3336,16.3710119 73.3336,36.2417262 L73.3336,36.2417262 Z" id="Fill-50" fill="@color0" mask="url(#mask-2)"></path>
            </g>
        </g>
    </g>
</svg>
