<?xml version="1.0" encoding="UTF-8" standalone="no"?>
<svg width="200px" height="200px" viewBox="0 0 200 200" version="1.1" xmlns="http://www.w3.org/2000/svg" xmlns:xlink="http://www.w3.org/1999/xlink">
    <!-- Generator: Sketch 46.2 (44496) - http://www.bohemiancoding.com/sketch -->
    <title>atom</title>
    <desc>Created with Sketch.</desc>
    <defs></defs>
    <g id="Page-1" stroke="none" stroke-width="1" fill="none" fill-rule="evenodd">
        <g id="atom">
            <path d="M186.935897,130.681857 C188.130564,128.447571 188.806872,125.901857 188.806872,123.193286 C188.806872,114.347571 181.598667,107.171857 172.709026,107.171857 C163.817949,107.171857 156.608308,114.344714 156.608308,123.193286 C156.608308,132.037571 163.817949,139.211857 172.709026,139.211857 C173.451385,139.211857 174.177949,139.153286 174.893026,139.057571 C179.582667,147.559 179.506564,152.309 178.410974,153.873286 C177.361333,155.369 174.159282,156.264714 169.848718,156.264714 C156.257949,156.264714 137.327077,148.433286 125.130564,142.517571 C121.052615,145.350429 115.999692,148.717571 111.057333,151.797571 C127.402154,160.400429 151.430462,170.824714 169.845846,170.824714 C181.854256,170.824714 187.65959,166.130429 190.416513,162.191857 C194.333641,156.603286 196.277846,146.856143 186.935897,130.681857 M166.77159,71.8961429 C179.546769,55.149 179.935897,46.3432857 178.359282,44.0247143 C177.288103,42.4561429 174.189436,41.5561429 169.85159,41.5561429 C153.287077,41.5561429 128.058359,53.6547143 113.534256,61.8475714 C124.258974,68.779 134.275795,76.0875714 143.410974,83.5418571 C139.954769,86.969 136.329128,90.3247143 132.624513,93.579 C122.488513,85.4232857 111.218154,77.4318571 99.54,70.2775714 C86.1201026,78.8704286 72.6169231,88.9661429 60.4792821,99.7218571 C69.6072821,107.604714 80.4712821,115.880429 92.0575385,123.544714 C87.6206154,126.284714 83.1506667,128.916143 78.0431795,131.669 C78.0403077,131.666143 78.0374359,131.666143 78.0345641,131.666143 C77.9986667,131.636143 77.9584615,131.613286 77.9196923,131.583286 C68.221641,124.861857 58.6499487,117.487571 49.7933333,109.763286 C25.8770256,133.629 19.1412308,150.916143 22.3073846,155.573286 C23.3756923,157.139 26.4772308,158.041857 30.8179487,158.041857 C50.7582564,158.041857 82.404,141.317571 101.129538,129.320429 C124.118256,114.596143 150.337744,93.4418571 166.77159,71.8961429 M60.3830769,166.370429 C44.114359,172.216143 19.8419487,177.911857 10.1941538,163.737571 C5.42697436,156.736143 3.64646154,143.276143 22.2398974,118.901857 C27.1722051,112.434714 32.885641,106.083286 38.6737436,100.257571 C51.6700513,87.3704286 66.3090256,74.9704286 85.3763077,62.1304286 C76.2009231,57.1832857 66.1769231,52.4561429 56.3955897,48.9375714 C46.3830769,45.3304286 37.5724103,43.3361429 30.8179487,43.3361429 C26.5045128,43.3361429 23.3053333,44.2318571 22.2542564,45.729 C21.14,47.3232857 21.084,52.2218571 26.0364103,61.0061429 C26.6236923,60.9447143 27.2152821,60.9075714 27.8126154,60.9075714 C36.7051282,60.9075714 43.9133333,68.079 43.9133333,76.9232857 C43.9133333,85.7704286 36.7051282,92.9404286 27.8126154,92.9404286 C18.9244103,92.9404286 11.7147692,85.7704286 11.7147692,76.9232857 C11.7147692,74.0575714 12.474359,71.3732857 13.8011282,69.0447143 C4.38020513,52.7961429 6.32153846,43.0147143 10.2415385,37.409 C13.0013333,33.469 18.8037949,28.7732857 30.8150769,28.7732857 C52.1467692,28.7732857 80.8891282,42.5375714 99.3935385,53.199 C118.180821,41.9018571 147.895282,26.9961429 169.848718,26.9961429 C181.907385,26.9961429 187.721333,31.8161429 190.472513,35.8604286 C195.239692,42.8618571 197.020205,56.3247143 178.423897,80.6932857 C152.258974,115.000429 100.234974,152.049 60.3830769,166.370429 M100.335487,184.739 C96.6897436,184.739 90.9992821,178.870429 86.0138462,165.877571 C81.0915897,168.324714 76.8370256,170.251857 72.6729231,172.001857 C79.1789744,188.510429 88.4390769,199.300429 100.335487,199.300429 C112.543487,199.300429 121.981641,187.927571 128.510667,170.676143 C124.395385,169.007571 120.048923,167.096143 115.096513,164.713286 C110.003385,178.519 104.083179,184.739 100.335487,184.739 M85.5730256,34.8875714 C80.6464615,32.5175714 76.2928205,30.6018571 72.1588718,28.9247143 C78.6907692,11.6732857 88.1274872,0.300428571 100.335487,0.300428571 C112.22759,0.300428571 121.487692,11.0904286 127.996615,27.5975714 C123.823897,29.3504286 119.536308,31.3032857 114.658564,33.7218571 C109.671692,20.729 103.979795,14.8604286 100.335487,14.8604286 C96.586359,14.8604286 90.6632821,21.0804286 85.5730256,34.8875714" id="Fill-38" fill="white"></path>
            <path d="M27.8737846,59.8091429 C37.3894769,59.8091429 45.1045538,67.4848571 45.1045538,76.952 C45.1045538,86.4205714 37.3894769,94.0948571 27.8737846,94.0948571 C18.3552205,94.0948571 10.6430154,86.4205714 10.6430154,76.952 C10.6430154,67.4848571 18.3552205,59.8091429 27.8737846,59.8091429" id="Fill-40" fill="@color0"></path>
        </g>
    </g>
</svg>