<?xml version="1.0" encoding="UTF-8" standalone="no"?>
<svg width="200px" height="200px" viewBox="0 0 200 200" version="1.1" xmlns="http://www.w3.org/2000/svg" xmlns:xlink="http://www.w3.org/1999/xlink">
    <!-- Generator: Sketch 46.2 (44496) - http://www.bohemiancoding.com/sketch -->
    <title>c8y-support</title>
    <desc>Created with Sketch.</desc>
    <defs></defs>
    <g id="Page-1" stroke="none" stroke-width="1" fill="none" fill-rule="evenodd">
        <g id="c8y-support">
            <path d="M161.608333,159.008333 C137.725,153.491667 115.491667,148.658333 126.258333,128.325 C129.033333,123.075 131.391667,118.033333 133.391667,113.2 C127.366667,116.65 120.666667,119.308333 117.008333,120.225 L115.45,112.825 C123.425,110.55 132.025,106.3 138.025,100.058333 C150.775,56.4166667 129.233333,33.3333333 100.333333,33.3333333 C65.05,33.3333333 41.5416667,67.7 74.4166667,128.325 C85.5083333,148.775 62.4416667,153.608333 39.075,159.008333 C18.3916667,163.775 17,173.883333 17,191.375 L17,200 L183.666667,200 L183.666667,191.375 C183.666667,173.883333 182.275,163.775 161.608333,159.008333 L161.608333,159.008333 Z M100.383333,125.833333 C97.325,126.466667 94.325,124.491667 93.7,121.425 C93.0583333,118.358333 95.0416667,115.35 98.0916667,114.725 L110.275,112.016667 L112.55,123.133333 L100.383333,125.833333 L100.383333,125.833333 Z" id="Shape" fill="white"></path>
            <path d="M33.6666667,74.8666667 C33.6666667,62.4083333 40.5833333,50 56.525,50 C49.4666667,63.4666667 48.65,80.575 53.9166667,100 C40.6916667,100 33.6666667,87.4083333 33.6666667,74.8666667 Z M144.041667,50 C159.983333,50 167,62.4416667 167,74.9166667 C167,87.4416667 159.916667,100 146.516667,100 C151.75,80.4666667 150.975,63.3583333 144.041667,50 Z M62.9,43.75 L52.8,43.75 C57.2,19.0583333 74.6666667,0 100.333333,0 C126,0 143.466667,19.0583333 147.866667,43.75 L137.766667,43.75 C133.233333,25.55 118.9,14.4333333 100.333333,14.475 C81.7666667,14.4333333 67.4333333,25.55 62.9,43.75 Z" id="Combined-Shape" fill="@color0"></path>
        </g>
    </g>
</svg>