<?xml version="1.0" encoding="UTF-8" standalone="no"?>
<svg width="200px" height="200px" viewBox="0 0 200 200" version="1.1" xmlns="http://www.w3.org/2000/svg" xmlns:xlink="http://www.w3.org/1999/xlink">
    <!-- Generator: Sketch 46.2 (44496) - http://www.bohemiancoding.com/sketch -->
    <title>c8y</title>
    <desc>Created with Sketch.</desc>
    <defs></defs>
    <g id="Page-1" stroke="none" stroke-width="1" fill="none" fill-rule="evenodd">
        <g id="c8y" fill="@color0">
            <path d="M130.760651,176.617429 C114.569856,176.617429 100.899695,165.04036 97.8790245,149.537348 C74.9144918,149.520619 70.5888914,149.390497 69.3880586,149.290118 C68.9660941,149.2548 68.5571418,149.169291 68.155625,149.018723 C67.6741765,148.842129 57.0785932,144.865997 51.390438,132.811198 C36.413488,132.753573 26.1617964,132.701524 26.1617964,132.701524 C17.0942077,132.604863 0,127.686281 0,109.798334 C0,102.301494 2.3477582,96.4218752 6.9707785,92.3156219 C11.3781694,88.4045505 16.9120381,87.0847497 21.0108558,86.6943861 C21.1019407,81.9431035 22.5518626,75.1768012 28.8385754,69.6187671 C35.008179,64.1592534 42.3470146,63.5997323 47.4403301,64.1034872 C48.7025058,49.4778645 57.0414157,28.0394675 83.0210425,23.7398914 C112.947059,18.7878503 129.702952,39.7466577 136.117927,55.2422336 C146.488587,50.5801769 160.441297,51.0876496 172.167076,56.9672689 C185.89858,63.854398 193.769053,76.4129526 193.769053,91.42708 C193.769053,99.455558 192.17228,106.692155 188.999182,113.036493 C195.07956,115.475336 200,120.877225 200,130.504335 C200,145.189442 186.073314,149.226916 178.712172,149.306848 L163.679456,149.373767 C160.721987,164.967864 147.036954,176.617429 130.760651,176.617429 L130.760651,176.617429 Z M70.8640048,139.889791 C73.2061863,139.980876 80.8015466,140.068243 102.037326,140.068243 C104.550524,140.068243 106.62131,142.023779 106.762585,144.523965 C107.515429,157.210781 118.053387,167.1539 130.756934,167.1539 C143.516247,167.1539 154.063499,157.160592 154.755,144.401279 C154.892557,141.897375 156.959625,139.936263 159.463529,139.92511 L178.628523,139.835884 C178.613652,139.835884 182.060004,139.752234 185.285151,138.30603 C188.857908,136.709257 190.525318,134.231378 190.525318,130.506194 C190.525318,128.009726 190.525318,121.386557 181.143579,120.927415 C181.12685,120.927415 181.108261,120.925556 181.09339,120.925556 C180.913079,120.916261 180.747639,120.908826 180.593353,120.914402 C180.576623,120.912544 180.572905,120.914402 180.563611,120.914402 C180.513421,120.897673 180.418618,120.912544 180.344264,120.908826 C179.749424,120.914402 179.349766,120.947862 179.269834,120.955298 C178.751208,121.003628 178.232582,120.96831 177.743698,120.851201 C176.70087,120.622559 175.737973,120.063038 175.061343,119.23398 C174.094728,118.053595 173.689494,116.484705 174.087293,115.012477 C174.126329,114.84146 175.360622,109.521362 171.03688,105.69394 C169.27095,104.139921 166.967804,103.383359 164.183211,103.424255 C161.991598,103.487456 160.350212,104.033965 160.327905,104.04326 C159.976578,104.162228 159.602944,104.2403 159.23117,104.275619 C158.015466,104.429905 156.781173,104.117615 155.781099,103.362912 C154.5245,102.416745 153.836716,100.903621 153.907354,99.33659 C153.953826,98.3848464 154.688081,75.7233102 133.281285,72.178437 C131.704959,71.9200535 130.132352,71.7620492 128.602498,71.7230128 L128.602498,71.7230128 C107.630679,71.2861773 100.777009,93.1446798 100.26396,94.8752918 C100.126403,95.4087887 99.8921853,95.9236969 99.5575879,96.3921332 C98.6151387,97.724946 97.1206038,98.4313182 95.6056212,98.3959996 C94.5218975,98.4387537 93.568295,98.0874265 92.7225072,97.4572681 C89.9397725,95.3846233 85.9952413,94.2414156 81.5915681,94.2414156 C81.5674028,94.2414156 81.5376608,94.2432745 81.5079188,94.2414156 L81.5079188,94.2414156 C69.8620715,94.3306416 57.4689568,102.080288 57.4689568,116.282088 C57.4689568,118.456971 58.0005948,121.881017 59.0415644,126.444553 C59.0638709,126.552368 59.0898952,126.671336 59.121496,126.795881 C62.2834411,135.313243 68.9475054,138.986378 70.8640048,139.889791 L70.8640048,139.889791 Z M26.2547401,123.236136 C26.2881999,123.236136 35.1736189,123.278891 48.4515577,123.340233 C48.0649119,121.055677 47.8678712,118.700483 47.8678712,116.287664 C47.8678712,96.6226336 64.9509257,84.8243586 81.4688824,84.7723101 C85.6271842,84.7704513 89.5679976,85.4600936 93.051528,86.8468138 C98.0295933,75.7158747 109.309242,61.8598259 128.578333,62.2464718 C127.602424,59.4377128 124.763923,52.2624581 119.280244,45.6969142 C110.335341,34.9879396 98.6653283,30.7459885 84.5676258,33.0788757 C55.677002,37.8580414 56.7086772,68.3156963 56.7663023,69.6113316 C56.8387984,71.1857981 56.1194141,72.6970629 54.8516618,73.6376533 C53.578333,74.5782437 51.9332292,74.8217562 50.4461298,74.291977 C50.3773515,74.2678117 41.3060451,71.2285522 35.112276,76.702937 C28.8645996,82.2256524 30.6862964,89.8581901 30.7643691,90.1779165 C31.1380028,91.6873224 30.7587925,93.3119785 29.7252584,94.4756338 C28.6991598,95.6430068 27.1674474,96.2508587 25.620864,96.0668302 C25.5706744,96.0612536 17.8526284,95.2675142 13.2147372,99.425816 C10.6959625,101.689925 9.46352889,105.078653 9.46352889,109.798334 C9.46724664,122.566942 24.5334226,123.206394 26.2547401,123.236136 L26.2547401,123.236136 L26.2547401,123.236136 Z M164.612611,93.9458546 C169.555357,93.9458546 173.996208,95.5444865 177.448137,98.5986169 C179.645327,100.544858 181.149156,102.725318 182.152948,104.928084 C183.584281,100.849714 184.299948,96.3363669 184.299948,91.4233623 C184.299948,75.9519517 174.035244,68.4904304 167.917689,65.4307234 C158.716261,60.8188563 147.587181,60.3541378 139.824522,63.9473417 C149.509257,66.8509033 156.589709,73.3551044 160.461744,82.9617666 C162.093836,87.0178303 162.867128,90.9419138 163.22589,93.9811733 C163.476838,93.9663023 163.731504,93.9570079 163.991747,93.9532901 C164.199941,93.9477135 164.408134,93.9458546 164.612611,93.9458546 L164.612611,93.9458546 Z M106.929883,132.954331 L106.848093,132.954331 C104.245669,132.906 102.165589,130.790601 102.193472,128.191895 C102.193472,127.974407 102.669343,106.457937 125.747267,106.060138 L125.827199,106.060138 C128.405458,106.060138 130.513421,108.125348 130.561752,110.716618 C130.600788,113.324619 128.520708,115.482772 125.905272,115.532961 C112.636627,115.757885 111.709049,126.225206 111.658859,128.320158 C111.59194,130.887263 109.491412,132.954331 106.929883,132.954331 L106.929883,132.954331 Z" id="Shape"></path>
        </g>
    </g>
</svg>