<?xml version="1.0" encoding="UTF-8" standalone="no"?>
<svg width="200px" height="200px" viewBox="0 0 200 200" version="1.1" xmlns="http://www.w3.org/2000/svg" xmlns:xlink="http://www.w3.org/1999/xlink">
    <!-- Generator: Sketch 46.2 (44496) - http://www.bohemiancoding.com/sketch -->
    <title>connector-out</title>
    <desc>Created with Sketch.</desc>
    <defs></defs>
    <g id="Page-1" stroke="none" stroke-width="1" fill="none" fill-rule="evenodd">
        <g id="connector-out">
            <path d="M151.775,14.6166667 C180.65,32.1416667 200,63.7583333 200,100 C200,155.225 155.225,200 100,200 C44.775,200 0,155.225 0,100 C0,63.7583333 19.35,32.1416667 48.225,14.6166667 L58.3333333,27.9416667 C33.4666667,42.375 16.6666667,69.2333333 16.6666667,100 C16.6666667,145.95 54.05,183.333333 100,183.333333 C145.95,183.333333 183.333333,145.95 183.333333,100 C183.333333,69.2333333 166.533333,42.375 141.666667,27.9416667 L151.775,14.6166667 Z M75,141.666667 C79.6083333,141.666667 83.3333333,145.391667 83.3333333,150 C83.3333333,154.608333 79.6083333,158.333333 75,158.333333 C70.3916667,158.333333 66.6666667,154.608333 66.6666667,150 C66.6666667,145.391667 70.3916667,141.666667 75,141.666667 Z M100,141.666667 C104.608333,141.666667 108.333333,145.391667 108.333333,150 C108.333333,154.608333 104.608333,158.333333 100,158.333333 C95.3916667,158.333333 91.6666667,154.608333 91.6666667,150 C91.6666667,145.391667 95.3916667,141.666667 100,141.666667 Z M125,141.666667 L125,141.666667 C129.608333,141.666667 133.333333,145.391667 133.333333,150 C133.333333,154.608333 129.608333,158.333333 125,158.333333 C120.391667,158.333333 116.666667,154.608333 116.666667,150 C116.666667,145.391667 120.391667,141.666667 125,141.666667 Z" id="Shape" fill="white" fill-rule="nonzero"></path>
            <polygon id="Combined-Shape-Copy" fill="@color0" transform="translate(100.333333, 66.666667) rotate(180.000000) translate(-100.333333, -66.666667) " points="125.333333 65 158.666667 65 100.333333 133.333333 42 65 75.3333333 65 75.3333333 0 125.333333 0"></polygon>
        </g>
    </g>
</svg>