<?xml version="1.0" encoding="UTF-8" standalone="no"?>
<svg width="200px" height="200px" viewBox="0 0 200 200" version="1.1" xmlns="http://www.w3.org/2000/svg" xmlns:xlink="http://www.w3.org/1999/xlink">
    <!-- Generator: Sketch 46.2 (44496) - http://www.bohemiancoding.com/sketch -->
    <title>device-connect</title>
    <desc>Created with Sketch.</desc>
    <defs></defs>
    <g id="Page-1" stroke="none" stroke-width="1" fill="none" fill-rule="evenodd">
        <g id="device-connect">
            <path d="M199.605333,14.9832252 L167.357635,47.1969078 L184.514511,64.3545128 L136.047964,112.810533 L87.6053333,64.3545128 L136.047964,15.9038059 L153.218126,33.0627394 L185.447224,0.810533333 L199.605333,14.9832252 Z M158.667337,117.333333 C181.494038,117.333333 200,135.838995 200,158.665326 C200,181.494339 181.494038,200 158.667337,200 C135.837954,200 117.333333,181.494339 117.333333,158.665326 C117.333333,135.838995 135.837954,117.333333 158.667337,117.333333 Z M184.068781,166.177551 L184.068781,152.359991 L166.178344,152.359991 L166.178344,134.468503 L152.359218,134.468503 L152.359218,152.359991 L134.468781,152.359991 L134.468781,166.177551 L152.359218,166.177551 L152.359218,184.069039 L166.178344,184.069039 L166.178344,166.177551 L184.068781,166.177551 Z" id="Combined-Shape" fill="@color0"></path>
            <path d="M79.329382,105.450656 L86.8486106,97.9324926 L101.910867,113.00452 L94.3956049,120.517394 L79.329382,105.450656 Z M86.8499328,83.8362667 L72.2980372,98.4084931 L62.7519092,88.8607164 L14.518841,137.083534 L31.5960973,154.162696 L0,185.746652 L14.0825222,199.836267 L45.6786195,168.253633 L62.7519092,185.331474 L110.971756,137.108656 L101.42695,127.555591 L116,112.98072 L86.8499328,83.8362667 Z" id="Fill-65" fill="white"></path>
        </g>
    </g>
</svg>