<?xml version="1.0" encoding="UTF-8" standalone="no"?>
<svg width="200px" height="200px" viewBox="0 0 200 200" version="1.1" xmlns="http://www.w3.org/2000/svg" xmlns:xlink="http://www.w3.org/1999/xlink">
    <!-- Generator: Sketch 46.2 (44496) - http://www.bohemiancoding.com/sketch -->
    <title>fieldbus</title>
    <desc>Created with Sketch.</desc>
    <defs></defs>
    <g id="Page-1" stroke="none" stroke-width="1" fill="none" fill-rule="evenodd">
        <g id="fieldbus">
            <path d="M16.6666667,25 C16.6666667,20.4083333 20.4,16.6666667 25,16.6666667 L58.3333333,16.6666667 L58.3333333,0 L25,0 C11.1916667,0 0,11.1916667 0,25 L0,58.3333333 L16.6666667,58.3333333 L16.6666667,25 L16.6666667,25 Z M166.666667,99.65 L147.691667,99.65 L128.025,144.533333 L104,78.45 L83.65,126.616667 L66.3916667,92.1166667 L56.9833333,108.5 L33.3333333,108.5 L33.3333333,166.666667 L166.666667,166.666667 L166.666667,99.65 L166.666667,99.65 Z M33.3333333,100.175 L52.1583333,100.175 L66.8916667,74.5 L83.0166667,106.716667 L104.591667,55.6666667 L128.75,122.133333 L142.25,91.325 L166.666667,91.325 L166.666667,33.3333333 L33.3333333,33.3333333 L33.3333333,100.175 L33.3333333,100.175 Z M16.6666667,175 L16.6666667,141.666667 L0,141.666667 L0,175 C0,188.808333 11.1916667,200 25,200 L58.3333333,200 L58.3333333,183.333333 L25,183.333333 C20.4,183.333333 16.6666667,179.591667 16.6666667,175 L16.6666667,175 Z M183.333333,175 C183.333333,179.591667 179.6,183.333333 175,183.333333 L141.666667,183.333333 L141.666667,200 L175,200 C188.808333,200 200,188.808333 200,175 L200,141.666667 L183.333333,141.666667 L183.333333,175 L183.333333,175 Z M200,25 C200,11.1916667 188.808333,0 175,0 L141.666667,0 L141.666667,16.6666667 L175,16.6666667 C179.6,16.6666667 183.333333,20.4083333 183.333333,25 L183.333333,58.3333333 L200,58.3333333 L200,25 L200,25 Z" id="Shape" fill="white"></path>
            <path d="M83.3333333,16.6666667 L66.6666667,16.6666667 L66.6666667,0 L83.3333333,0 L83.3333333,16.6666667 Z M16.6666667,66.6666667 L16.6666667,83.3333333 L0,83.3333333 L0,66.6666667 L16.6666667,66.6666667 Z M16.6666667,91.6666667 L16.6666667,108.333333 L0,108.333333 L0,91.6666667 L16.6666667,91.6666667 Z M133.333333,0 L133.333333,16.6666667 L116.666667,16.6666667 L116.666667,0 L133.333333,0 Z M108.333333,0 L108.333333,16.6666667 L91.6666667,16.6666667 L91.6666667,0 L108.333333,0 Z M16.6666667,116.666667 L16.6666667,133.333333 L0,133.333333 L0,116.666667 L16.6666667,116.666667 Z M116.666667,200 L116.666667,183.333333 L133.333333,183.333333 L133.333333,200 L116.666667,200 Z M183.333333,108.333333 L183.333333,91.6666667 L200,91.6666667 L200,108.333333 L183.333333,108.333333 Z M183.333333,83.3333333 L183.333333,66.6666667 L200,66.6666667 L200,83.3333333 L183.333333,83.3333333 Z M183.333333,133.333333 L183.333333,116.666667 L200,116.666667 L200,133.333333 L183.333333,133.333333 Z M66.6666667,200 L66.6666667,183.333333 L83.3333333,183.333333 L83.3333333,200 L66.6666667,200 Z M91.6666667,200 L91.6666667,183.333333 L108.333333,183.333333 L108.333333,200 L91.6666667,200 Z" id="blue-dots" fill="@color0"></path>
        </g>
    </g>
</svg>