<?xml version="1.0" encoding="UTF-8" standalone="no"?>
<svg width="200px" height="200px" viewBox="0 0 200 200" version="1.1" xmlns="http://www.w3.org/2000/svg" xmlns:xlink="http://www.w3.org/1999/xlink">
    <!-- Generator: Sketch 46.2 (44496) - http://www.bohemiancoding.com/sketch -->
    <title>mobile-config</title>
    <desc>Created with Sketch.</desc>
    <defs></defs>
    <g id="Page-1" stroke="none" stroke-width="1" fill="none" fill-rule="evenodd">
        <g id="mobile-config">
            <path d="M151.333333,50.9243021 C146.404244,50.9243021 142.409031,46.929089 142.409031,42 C142.409031,37.0722566 146.404244,33.0756979 151.333333,33.0756979 C156.261077,33.0756979 160.257635,37.0722566 160.257635,42 C160.257635,46.929089 156.261077,50.9243021 151.333333,50.9243021 L151.333333,50.9243021 Z M175.666589,45.2779855 L172.126204,46.5348157 C170.773833,47.0179015 169.689245,48.0459724 169.137531,49.3741217 C168.587163,50.6995798 168.627533,52.1986257 169.243837,53.4931339 L170.855917,56.889536 L166.221524,61.5239293 L162.806283,59.9010842 C161.521194,59.2901625 160.038296,59.2511388 158.722257,59.7988154 L158.720912,59.800161 C157.386034,60.3545658 156.345852,61.4512646 155.861421,62.8144006 L154.609973,66.3332561 L148.055348,66.3332561 L146.797172,62.790179 C146.315432,61.4391538 145.286015,60.3559115 143.960557,59.8082349 L143.960557,59.8068892 C142.633754,59.2551758 141.134708,59.295545 139.837508,59.9118494 L136.445143,61.5239293 L131.808058,56.889536 L133.421484,53.4958252 C134.039134,52.1986257 134.078158,50.6995798 133.526444,49.3741217 L133.526444,49.3727761 C132.977422,48.0459724 131.891488,47.0179015 130.541809,46.5361614 L126.998732,45.2779855 L126.998732,38.7233601 L130.541809,37.4651843 C131.892834,36.9847898 132.977422,35.9540276 133.526444,34.6299152 L133.526444,34.6285695 C134.076812,33.3004202 134.037788,31.8013743 133.421484,30.5041748 L131.808058,27.1118097 L136.445143,22.4760707 L139.837508,24.0908419 C141.134708,24.7071462 142.633754,24.7448242 143.960557,24.1944564 L143.960557,24.1944564 C145.286015,23.6467798 146.315432,22.5581549 146.797172,21.2084753 L148.055348,17.6667439 L154.609973,17.6667439 L155.868149,21.2084753 C156.349889,22.5608462 157.379306,23.6467798 158.704764,24.1944564 L158.706109,24.1944564 C160.032913,24.7448242 161.531959,24.7058006 162.829159,24.0908419 L166.221524,22.4760707 L170.855917,27.1118097 L169.243837,30.5041748 C168.627533,31.8013743 168.587163,33.3004202 169.137531,34.6285695 C169.687899,35.9526819 170.773833,36.9861355 172.124858,37.4651843 L175.666589,38.7233601 L175.666589,45.2779855 Z M151.333333,1.33333333 C128.874557,1.33333333 110.666667,19.5412241 110.666667,42 C110.666667,64.4601215 128.874557,82.6666667 151.333333,82.6666667 C173.792109,82.6666667 192,64.4601215 192,42 C192,19.5412241 173.792109,1.33333333 151.333333,1.33333333 L151.333333,1.33333333 Z" id="Fill-119" fill="@color0"></path>
            <path d="M99.3340039,184.564 C92.8330754,184.564 87.5612579,179.304 87.5612579,172.816 C87.5612579,166.328 92.8330754,161.068 99.3340039,161.068 C105.833596,161.068 111.105414,166.328 111.105414,172.816 C111.105414,179.304 105.833596,184.564 99.3340039,184.564 M150.125681,95.7026667 C147.154439,95.7026667 144.220604,95.4653333 141.341545,95.0053333 L141.341545,148.357333 L57.3251267,148.357333 L57.3251267,27.94 L96.6833993,27.94 C99.2645324,17.204 105.046698,7.52133333 113.432709,0 L51.7740872,0 C45.2718227,0 40.0000052,5.26133333 40.0000052,11.752 C40.0000052,11.752 40.0040132,167.013333 40.0000052,173.049333 C39.9839733,198.034667 76.9842231,199.985333 99.2511725,200 C121.519458,200.014667 158.666667,198.097333 158.666667,173.049333 L158.666667,95.044 C155.866431,95.4786667 153.012756,95.7026667 150.125681,95.7026667" id="Fill-120" fill="white"></path>
        </g>
    </g>
</svg>