<?xml version="1.0" encoding="UTF-8" standalone="no"?>
<svg width="200px" height="200px" viewBox="0 0 200 200" version="1.1" xmlns="http://www.w3.org/2000/svg" xmlns:xlink="http://www.w3.org/1999/xlink">
    <!-- Generator: Sketch 46.2 (44496) - http://www.bohemiancoding.com/sketch -->
    <title>modules</title>
    <desc>Created with Sketch.</desc>
    <defs></defs>
    <g id="Page-1" stroke="none" stroke-width="1" fill="none" fill-rule="evenodd">
        <g id="modules">
            <path d="M150,30.0666667 L150,83.5916667 L200,111.091667 L200,170.9 L148.866667,200 L100,171.725 L51.1333333,200 L0,170.9 L0,110.766667 L50,83.9 L50,29.7416667 L99.7,0 L150,30.0666667 Z M140.475,83.8916667 L104.466667,103.758333 L104.466667,62.4583333 L140.475,41.3 L140.475,83.8916667 L140.475,83.8916667 Z M14.9166667,113.591667 L54.7333333,92.5083333 L90.0416667,112.65 L51.1416667,134.875 L14.9166667,113.591667 L14.9166667,113.591667 Z M55.8916667,143.483333 L95.2416667,121.008333 L95.2416667,163.141667 L55.8916667,186.116667 L55.8916667,143.483333 L55.8916667,143.483333 Z M110.158333,112.266667 L145.55,92.35 L185.291667,113.966667 L148.9,134.875 L110.158333,112.266667 L110.158333,112.266667 Z M190.475,164.958333 L153.633333,186.116667 L153.633333,143.483333 L190.475,122.333333 L190.475,164.958333 Z M99.6833333,11.3083333 L135.283333,32.9416667 L99.7166667,53.85 L64.9166667,32.5666667 L99.6833333,11.3083333 L99.6833333,11.3083333 Z" id="Shape" fill="white"></path>
            <path d="M185.291667,161.938142 L158.816667,177.142852 L158.816667,146.50587 L185.291667,131.307148 L185.291667,161.938142 Z M135.375,80.6730367 L109.566667,94.9121172 L109.566667,65.3110758 L135.375,50.1462162 L135.375,80.6730367 Z M61.5125,146.36279 L89.6208333,130.308539 L89.6208333,160.405052 L61.5125,176.816461 L61.5125,146.36279 L61.5125,146.36279 Z" id="Combined-Shape" fill="@color0"></path>
        </g>
    </g>
</svg>