<?xml version="1.0" encoding="UTF-8" standalone="no"?>
<svg width="200px" height="200px" viewBox="0 0 200 200" version="1.1" xmlns="http://www.w3.org/2000/svg" xmlns:xlink="http://www.w3.org/1999/xlink">
    <!-- Generator: Sketch 46.2 (44496) - http://www.bohemiancoding.com/sketch -->
    <title>notification</title>
    <desc>Created with Sketch.</desc>
    <defs></defs>
    <g id="Page-1" stroke="none" stroke-width="1" fill="none" fill-rule="evenodd">
        <g id="notification">
            <path d="M38.113704,141.66163 C23.3800662,147.07731 7.12139684,139.359756 1.73795226,124.418505 C-3.65382583,109.477254 3.92133071,92.9707295 18.629968,87.5550492 L45.647193,77.6193266 L65.130929,131.725907 L38.113704,141.66163 Z M90.4647859,168.212693 C86.8230439,166.948755 83.6813123,164.6134 81.3895983,161.516334 L67.7643167,143.084606 L40.2554149,153.204478 L61.9391964,181.270593 C64.37258,184.417881 68.5226657,185.623226 72.2477427,184.250472 L90.714791,177.470409 C92.6231638,176.767291 93.8981901,174.900681 93.8898566,172.841551 C93.8731896,170.78242 92.5898298,168.957663 90.648123,168.279656 L90.4647859,168.212693 Z M56.3807482,73.6768453 L75.8644841,127.783426 C93.8231886,124.292948 118.173692,124.426876 149.99935,131.139976 L111.040211,22.9351854 C90.4064513,49.4276554 72.1810747,64.8209106 56.3807482,73.6768453 Z" id="Shape" fill="white" fill-rule="nonzero"></path>
            <path d="M146.340941,47.7117135 L152.016058,35.9261217 C162.141267,40.8228342 170.416438,49.6034349 174.424854,61.1128018 C178.43327,72.6137983 177.408249,84.6672444 172.533149,94.84571 L160.807906,89.1705458 C164.232977,82.0054417 164.941325,73.5261772 162.116267,65.4319533 C159.307875,57.329359 153.474421,51.1519679 146.340941,47.7117135 Z M156.241145,27.0785575 L162.041265,15 C177.499918,22.4748107 190.100178,35.875899 196.225305,53.4287299 C202.333764,70.9899313 200.783732,89.3881775 193.341912,104.932101 L181.316663,99.1062684 C187.27512,86.6677816 188.525146,71.9274215 183.625044,57.8650677 C178.724943,43.8027139 168.624734,33.0634283 156.241145,27.0785575 Z" id="Combined-Shape" fill="@color0"></path>
        </g>
    </g>
</svg>