<?xml version="1.0" encoding="UTF-8" standalone="no"?>
<svg width="200px" height="200px" viewBox="0 0 200 200" version="1.1" xmlns="http://www.w3.org/2000/svg" xmlns:xlink="http://www.w3.org/1999/xlink">
    <!-- Generator: Sketch 46.2 (44496) - http://www.bohemiancoding.com/sketch -->
    <title>saas</title>
    <desc>Created with Sketch.</desc>
    <defs></defs>
    <g id="Page-1" stroke="none" stroke-width="1" fill="none" fill-rule="evenodd">
        <g id="saas">
            <path d="M100,16.6666667 C128.775,16.6666667 149.091667,39.975 146.391667,73.1666667 C160.933333,72.7833333 183.333333,79.425 183.333333,104.166667 C183.333333,120.25 170.25,133.333333 154.166667,133.333333 L45.8333333,133.333333 C29.75,133.333333 16.6666667,120.25 16.6666667,104.166667 C16.6666667,80.8583333 37.325,72.225 53.6083333,73.1666667 C52.2166667,38.0166667 72.0083333,16.6666667 100,16.6666667 Z M100,0 C66.6166667,0 39.4416667,26.175 37.675,59.1 C16.2583333,62.9583333 0,81.65 0,104.166667 C0,129.475 20.525,150 45.8333333,150 L154.166667,150 C179.475,150 200,129.475 200,104.166667 C200,81.65 183.741667,62.9583333 162.325,59.1 C160.558333,26.175 133.383333,0 100,0 Z" id="Shape" fill="white" fill-rule="nonzero"></path>
            <path d="M66.6666667,200 L66.6666667,183.333333 L91.6666667,183.333333 L91.6666667,166.666667 L108.333333,166.666667 L108.333333,183.333333 L133.333333,183.333333 L133.333333,200 L66.6666667,200 Z M141.666667,183.333333 L166.666667,183.333333 L166.666667,200 L141.666667,200 L141.666667,183.333333 Z M58.3333333,183.333333 L58.3333333,200 L33.3333333,200 L33.3333333,183.333333 L58.3333333,183.333333 Z" id="Combined-Shape" fill="@color0"></path>
        </g>
    </g>
</svg>