<?xml version="1.0" encoding="UTF-8" standalone="no"?>
<svg width="200px" height="200px" viewBox="0 0 200 200" version="1.1" xmlns="http://www.w3.org/2000/svg" xmlns:xlink="http://www.w3.org/1999/xlink">
    <!-- Generator: Sketch 46.2 (44496) - http://www.bohemiancoding.com/sketch -->
    <title>tools</title>
    <desc>Created with Sketch.</desc>
    <defs></defs>
    <g id="Page-1" stroke="none" stroke-width="1" fill="none" fill-rule="evenodd">
        <g id="tools">
            <path d="M182.997333,169.60596 C182.997333,165.11457 179.334667,161.470861 174.810667,161.470861 C170.289333,161.470861 166.625333,165.11457 166.625333,169.60596 C166.625333,174.098675 170.289333,177.743709 174.810667,177.743709 C179.333333,177.743709 182.997333,174.098675 182.997333,169.60596 M189.828,184.764901 C182.070667,192.470861 169.490667,192.470861 161.733333,184.764901 L111.88,134.231126 C120.942667,124.274834 116.541333,107.086755 102.028,104.530464 L76.4106667,100.008609 L67.6,91.2536424 C62.5973333,86.284106 55.712,83.6642384 48.6546667,84.0417219 C37.1426667,84.6483444 25.4333333,80.5913907 16.64,71.8562914 C4.86133333,60.1543046 1.52533333,43.2509934 6.628,28.5927152 L33.4106667,55.1953642 C43.856,55.8072848 60.012,39.7582781 59.4,29.3821192 L32.6173333,2.77682119 C47.3666667,-2.29470199 64.388,1.0218543 76.1666667,12.7225166 C84.9613333,21.4576159 89.044,33.089404 88.432,44.5238411 C88.0586667,51.5344371 90.6933333,58.3794702 95.692,63.3437086 L95.9173333,63.5675497 C85.5586667,80.8139073 99.5226667,92.6245033 110.969333,92.1940397 C108.912,101.963576 119.438667,112.143709 128.474667,112.143709 C126.242667,120.751656 132.950667,129.72649 143.386667,131.764901 C139.178667,146.853642 162.204,162.946358 175.536,142.654967 L189.828,156.856291 C197.586667,164.560927 197.586667,177.060265 189.828,184.764901" id="Fill-66" fill="@color0"></path>
            <path d="M98.0416,131.83947 C110.188267,131.83947 112.020267,114.754702 100.562933,112.729536 C57.4749333,105.129536 59.7389333,105.375894 58.3202667,105.375894 C53.0282667,105.375894 48.4442667,109.125563 47.4216,114.295099 L43.6976,146.961325 C43.1922667,152.182517 44.9002667,156.699073 48.9709333,159.63947 C53.0349333,162.577219 65.8562667,171.636821 65.8562667,171.636821 C65.8562667,171.636821 68.5909333,148.169272 69.3602667,141.420927 C70.1269333,134.668609 73.9456,130.011656 81.2229333,130.366623 C81.9922667,130.402384 96.7202667,131.83947 98.0416,131.83947 L98.0416,131.83947 Z M111.560267,145.852715 C106.0016,140.158675 97.3789333,139.730861 81.6936,138.697748 C79.3122667,138.544106 77.8469333,140.06596 77.6429333,142.363974 C77.6016,142.877881 73.8309333,177.194437 73.8309333,177.194437 C73.8309333,177.194437 97.1109333,192.820927 106.668267,199.152053 C115.5336,183.25404 129.164267,182.289801 139.3456,174.296424 L111.560267,145.852715 Z M137.236267,108.491126 C134.3256,112.82755 135.502933,118.68053 139.868267,121.571921 C144.2336,124.460662 150.1256,123.288477 153.036267,118.954702 L163.9696,102.658013 C166.8776,98.3255629 165.7016,92.4672848 161.3376,89.578543 C156.970933,86.6898013 151.078933,87.8606623 148.1696,92.2010596 L137.236267,108.491126 Z M162.8256,115.442119 L152.7336,130.483179 C150.042933,134.48053 151.1336,139.887152 155.1616,142.554702 C159.1856,145.222252 164.628267,144.140132 167.312267,140.140132 L177.4056,125.099073 C180.0936,121.096424 179.008267,115.688477 174.976267,113.02755 C170.952267,110.358675 165.508267,111.444768 162.8256,115.442119 L162.8256,115.442119 Z M104.426933,82.757351 C108.8136,85.6593377 114.736267,84.4818543 117.656267,80.1295364 L129.180267,62.9586755 C132.100267,58.6063576 130.916267,52.7189404 126.532267,49.8169536 C122.1536,46.9162914 116.2256,48.0924503 113.3056,52.4460927 L101.782933,69.6156291 C98.8616,73.9692715 100.0456,79.8527152 104.426933,82.757351 L104.426933,82.757351 Z M120.106933,88.4143046 L131.518933,71.4129801 C134.4376,67.0686093 140.350933,65.8924503 144.7256,68.7878146 C149.1016,71.6858278 150.288267,77.562649 147.370933,81.9070199 L135.9576,98.9123179 C133.040267,103.260662 127.124267,104.434172 122.752267,101.536159 C118.3736,98.6394702 117.1896,92.762649 120.106933,88.4143046 L120.106933,88.4143046 Z" id="Fill-67" fill="white"></path>
        </g>
    </g>
</svg>