<?xml version="1.0" encoding="UTF-8" standalone="no"?>
<svg width="200px" height="200px" viewBox="0 0 200 200" version="1.1" xmlns="http://www.w3.org/2000/svg" xmlns:xlink="http://www.w3.org/1999/xlink">
    <!-- Generator: Sketch 46.2 (44496) - http://www.bohemiancoding.com/sketch -->
    <title>tracking</title>
    <desc>Created with Sketch.</desc>
    <defs></defs>
    <g id="Page-1" stroke="none" stroke-width="1" fill="none" fill-rule="evenodd">
        <g id="tracking">
            <path d="M145.766667,128.6 C142.158333,128.6 138.641667,127.875 135.325,126.441667 L139.216667,117.425 C141.3,118.316667 143.5,118.775 145.766667,118.775 C147.616667,118.775 149.441667,118.466667 151.191667,117.858333 L154.425,127.125 C151.641667,128.108333 148.733333,128.6 145.766667,128.6 Z M54.75,128.416667 C51.6416667,128.416667 48.575,127.866667 45.6416667,126.791667 L49.0333333,117.583333 C50.875,118.258333 52.7916667,118.6 54.75,118.6 C56.9166667,118.6 59.0333333,118.183333 61.0333333,117.366667 L64.7583333,126.45 C61.575,127.758333 58.2083333,128.416667 54.75,128.416667 Z M127,121.891667 L113.175,114.016667 L118.033333,105.483333 L131.866667,113.358333 L127,121.891667 L127,121.891667 Z M73.2083333,121.725 L68.1666667,113.3 L81.825,105.125 L86.8666667,113.55 L73.2083333,121.725 Z M105.858333,109.991667 C103.833333,109.15 101.691667,108.716667 99.4916667,108.716667 C97.575,108.716667 95.6833333,109.05 93.875,109.708333 L90.5333333,100.475 C93.4166667,99.4333333 96.4333333,98.9083333 99.4916667,98.9083333 C102.991667,98.9083333 106.408333,99.5916667 109.633333,100.941667 L105.858333,109.991667 L105.858333,109.991667 Z M166.916667,108.633333 C162.466667,108.633333 158.85,112.241667 158.85,116.7 C158.85,121.158333 162.466667,124.766667 166.916667,124.766667 C171.375,124.766667 174.991667,121.15 174.991667,116.7 C174.991667,112.241667 171.375,108.633333 166.916667,108.633333 Z M33.075,108.633333 C28.6166667,108.633333 25,112.241667 25,116.7 C25,121.158333 28.6166667,124.766667 33.075,124.766667 C37.5333333,124.766667 41.15,121.15 41.15,116.7 C41.15,112.241667 37.5333333,108.633333 33.075,108.633333 L33.075,108.633333 Z M200,31.675 C200,14.1833333 184.166667,-7.10542736e-15 166.666667,-7.10542736e-15 C149.166667,-7.10542736e-15 133.333333,14.1833333 133.333333,31.675 C133.333333,57.6833333 159.9,60.4333333 166.666667,100 C173.433333,60.4333333 200,57.6833333 200,31.675 Z M154.166667,33.3333333 C154.166667,26.425 159.766667,20.8333333 166.666667,20.8333333 C173.566667,20.8333333 179.166667,26.425 179.166667,33.3333333 C179.166667,40.2416667 173.566667,45.8333333 166.666667,45.8333333 C159.766667,45.8333333 154.166667,40.2416667 154.166667,33.3333333 Z M149.6,100 C147.833333,91.7333333 145.041667,85.6333333 141.666667,80.55 L141.666667,100 L149.6,100 Z" id="Shape" fill="@color0" fill-rule="nonzero"></path>
            <path d="M183.333333,101.7 L183.333333,157.391667 L150,178.05 L150,141.666667 L141.666667,141.666667 L141.666667,176.175 L108.333333,152.133333 L108.333333,125 L91.6666667,125 L91.6666667,152.125 L58.3333333,176.166667 L58.3333333,141.666667 L50,141.666667 L50,178.041667 L16.6666667,157.383333 L16.6666667,46.6 L50,67.2583333 L50,100 L58.3333333,100 L58.3333333,67.275 L91.6666667,43.225 L91.6666667,83.3333333 L108.333333,83.3333333 L108.333333,43.225 L121.475,52.7083333 C118.65,46.8666667 116.666667,40.0583333 116.666667,31.675 L116.825,28.8 L100,16.6666667 L53.7916667,50 L0,16.6666667 L0,166.666667 L53.7916667,200 L100,166.666667 L146.208333,200 L200,166.666667 L200,69.85 L199.675,70.2416667 C192.75,78.425 186.225,86.225 183.333333,101.7 Z" id="Path" fill="white"></path>
        </g>
    </g>
</svg>